G04 EAGLE Gerber RS-274X export*
G75*
%MOMM*%
%FSLAX34Y34*%
%LPD*%
%INCopper Layer 15*%
%IPPOS*%
%AMOC8*
5,1,8,0,0,1.08239X$1,22.5*%
G01*
%ADD10C,1.524000*%
%ADD11C,0.606400*%
%ADD12C,0.756400*%
%ADD13C,0.400000*%
%ADD14C,0.200000*%

G36*
X510022Y2767D02*
X510022Y2767D01*
X510050Y2765D01*
X514211Y3092D01*
X514260Y3105D01*
X514358Y3121D01*
X522274Y5693D01*
X522278Y5696D01*
X522284Y5697D01*
X522450Y5783D01*
X529184Y10676D01*
X529188Y10680D01*
X529193Y10682D01*
X529324Y10816D01*
X534217Y17550D01*
X534219Y17555D01*
X534223Y17559D01*
X534307Y17726D01*
X536879Y25642D01*
X536886Y25693D01*
X536908Y25789D01*
X537235Y29950D01*
X537233Y29972D01*
X537237Y30000D01*
X537237Y270000D01*
X537233Y270022D01*
X537235Y270050D01*
X536908Y274211D01*
X536895Y274260D01*
X536879Y274358D01*
X534307Y282274D01*
X534304Y282278D01*
X534303Y282284D01*
X534217Y282450D01*
X529324Y289184D01*
X529320Y289188D01*
X529318Y289193D01*
X529219Y289290D01*
X529197Y289314D01*
X529192Y289316D01*
X529184Y289324D01*
X522450Y294217D01*
X522445Y294219D01*
X522441Y294223D01*
X522274Y294307D01*
X514358Y296879D01*
X514308Y296886D01*
X514303Y296887D01*
X514255Y296903D01*
X514236Y296902D01*
X514211Y296908D01*
X510050Y297235D01*
X510028Y297233D01*
X510000Y297237D01*
X30000Y297237D01*
X29978Y297233D01*
X29950Y297235D01*
X25789Y296908D01*
X25740Y296895D01*
X25642Y296879D01*
X17726Y294307D01*
X17722Y294304D01*
X17716Y294303D01*
X17550Y294217D01*
X10816Y289324D01*
X10812Y289320D01*
X10807Y289318D01*
X10789Y289299D01*
X10774Y289290D01*
X10744Y289253D01*
X10676Y289184D01*
X5783Y282450D01*
X5781Y282445D01*
X5777Y282441D01*
X5693Y282274D01*
X3121Y274358D01*
X3114Y274307D01*
X3092Y274211D01*
X2765Y270050D01*
X2767Y270028D01*
X2763Y270000D01*
X2763Y30000D01*
X2767Y29978D01*
X2765Y29950D01*
X3092Y25789D01*
X3105Y25740D01*
X3121Y25642D01*
X5693Y17726D01*
X5696Y17722D01*
X5697Y17716D01*
X5783Y17550D01*
X10676Y10816D01*
X10680Y10812D01*
X10682Y10807D01*
X10816Y10676D01*
X17550Y5783D01*
X17555Y5781D01*
X17559Y5777D01*
X17726Y5693D01*
X25642Y3121D01*
X25693Y3114D01*
X25789Y3092D01*
X29950Y2765D01*
X29972Y2767D01*
X30000Y2763D01*
X510000Y2763D01*
X510022Y2767D01*
G37*
%LPC*%
G36*
X149342Y104277D02*
X149342Y104277D01*
X147018Y105240D01*
X145240Y107018D01*
X144277Y109342D01*
X144277Y111858D01*
X145240Y114182D01*
X147018Y115960D01*
X149342Y116923D01*
X151858Y116923D01*
X152031Y116851D01*
X152084Y116839D01*
X152134Y116818D01*
X152193Y116816D01*
X152250Y116803D01*
X152304Y116811D01*
X152358Y116808D01*
X152414Y116826D01*
X152472Y116835D01*
X152520Y116860D01*
X152571Y116877D01*
X152629Y116919D01*
X152670Y116941D01*
X152690Y116964D01*
X152722Y116988D01*
X160519Y124786D01*
X160544Y124821D01*
X160575Y124849D01*
X160607Y124912D01*
X160648Y124970D01*
X160658Y125011D01*
X160678Y125049D01*
X160691Y125139D01*
X160704Y125187D01*
X160701Y125208D01*
X160705Y125234D01*
X160705Y201466D01*
X160698Y201508D01*
X160700Y201550D01*
X160678Y201617D01*
X160666Y201687D01*
X160644Y201723D01*
X160631Y201764D01*
X160577Y201836D01*
X160551Y201880D01*
X160535Y201893D01*
X160519Y201914D01*
X135183Y227250D01*
X135183Y248250D01*
X145391Y258458D01*
X145416Y258493D01*
X145447Y258521D01*
X145479Y258584D01*
X145520Y258642D01*
X145530Y258683D01*
X145550Y258721D01*
X145563Y258811D01*
X145576Y258859D01*
X145573Y258880D01*
X145577Y258906D01*
X145577Y258958D01*
X146540Y261282D01*
X148318Y263060D01*
X150642Y264023D01*
X153158Y264023D01*
X155482Y263060D01*
X157260Y261282D01*
X158223Y258958D01*
X158223Y256442D01*
X157260Y254118D01*
X155482Y252340D01*
X153158Y251377D01*
X150642Y251377D01*
X148348Y252328D01*
X148295Y252339D01*
X148245Y252360D01*
X148186Y252363D01*
X148129Y252376D01*
X148075Y252368D01*
X148021Y252370D01*
X147965Y252352D01*
X147906Y252344D01*
X147859Y252318D01*
X147807Y252302D01*
X147750Y252259D01*
X147709Y252237D01*
X147689Y252214D01*
X147657Y252190D01*
X141403Y245936D01*
X141378Y245901D01*
X141347Y245873D01*
X141315Y245810D01*
X141274Y245752D01*
X141264Y245711D01*
X141244Y245673D01*
X141231Y245583D01*
X141218Y245535D01*
X141221Y245514D01*
X141217Y245488D01*
X141217Y230012D01*
X141224Y229970D01*
X141222Y229928D01*
X141244Y229861D01*
X141256Y229791D01*
X141278Y229755D01*
X141291Y229714D01*
X141345Y229642D01*
X141371Y229598D01*
X141387Y229585D01*
X141403Y229564D01*
X166739Y204228D01*
X166739Y122472D01*
X156988Y112722D01*
X156958Y112678D01*
X156919Y112640D01*
X156894Y112586D01*
X156860Y112538D01*
X156847Y112486D01*
X156824Y112436D01*
X156819Y112378D01*
X156804Y112321D01*
X156810Y112267D01*
X156806Y112213D01*
X156823Y112144D01*
X156828Y112098D01*
X156841Y112070D01*
X156851Y112031D01*
X156923Y111858D01*
X156923Y109342D01*
X155960Y107018D01*
X154182Y105240D01*
X151858Y104277D01*
X149342Y104277D01*
G37*
%LPD*%
%LPC*%
G36*
X26519Y252499D02*
X26519Y252499D01*
X20087Y255164D01*
X15164Y260087D01*
X12499Y266519D01*
X12499Y273481D01*
X15164Y279913D01*
X20087Y284836D01*
X26519Y287501D01*
X33481Y287501D01*
X39913Y284836D01*
X44836Y279913D01*
X47501Y273481D01*
X47501Y266519D01*
X44836Y260087D01*
X39913Y255164D01*
X33481Y252499D01*
X26519Y252499D01*
G37*
%LPD*%
%LPC*%
G36*
X506519Y12499D02*
X506519Y12499D01*
X500087Y15164D01*
X495164Y20087D01*
X492499Y26519D01*
X492499Y33481D01*
X495164Y39913D01*
X500087Y44836D01*
X506519Y47501D01*
X513481Y47501D01*
X519913Y44836D01*
X524836Y39913D01*
X527501Y33481D01*
X527501Y26519D01*
X524836Y20087D01*
X519913Y15164D01*
X513481Y12499D01*
X506519Y12499D01*
G37*
%LPD*%
%LPC*%
G36*
X26519Y12499D02*
X26519Y12499D01*
X20087Y15164D01*
X15164Y20087D01*
X12499Y26519D01*
X12499Y33481D01*
X15164Y39913D01*
X20087Y44836D01*
X26519Y47501D01*
X33481Y47501D01*
X39913Y44836D01*
X44836Y39913D01*
X47501Y33481D01*
X47501Y26519D01*
X44836Y20087D01*
X39913Y15164D01*
X33481Y12499D01*
X26519Y12499D01*
G37*
%LPD*%
%LPC*%
G36*
X442691Y161605D02*
X442691Y161605D01*
X440643Y162454D01*
X439076Y164021D01*
X438227Y166069D01*
X438227Y168287D01*
X439076Y170335D01*
X440643Y171902D01*
X440672Y171914D01*
X440737Y171956D01*
X440806Y171990D01*
X440831Y172016D01*
X440860Y172035D01*
X440907Y172097D01*
X440960Y172153D01*
X440974Y172186D01*
X440995Y172214D01*
X441017Y172289D01*
X441048Y172360D01*
X441049Y172396D01*
X441059Y172430D01*
X441054Y172507D01*
X441058Y172584D01*
X441047Y172618D01*
X441044Y172653D01*
X441013Y172724D01*
X440989Y172798D01*
X440965Y172830D01*
X440952Y172858D01*
X440920Y172891D01*
X440877Y172948D01*
X416228Y197597D01*
X416194Y197622D01*
X416165Y197653D01*
X416102Y197685D01*
X416044Y197726D01*
X416003Y197736D01*
X415965Y197756D01*
X415876Y197769D01*
X415827Y197782D01*
X415806Y197779D01*
X415780Y197783D01*
X347365Y197783D01*
X345998Y199150D01*
X345997Y199150D01*
X312648Y232500D01*
X312604Y232531D01*
X312566Y232569D01*
X312512Y232594D01*
X312464Y232628D01*
X312411Y232641D01*
X312362Y232664D01*
X312304Y232669D01*
X312247Y232684D01*
X312193Y232678D01*
X312139Y232683D01*
X312070Y232665D01*
X312023Y232661D01*
X311996Y232647D01*
X311957Y232637D01*
X311208Y232327D01*
X308991Y232327D01*
X306943Y233176D01*
X305376Y234743D01*
X304527Y236791D01*
X304527Y239009D01*
X305376Y241057D01*
X306943Y242624D01*
X308991Y243473D01*
X311209Y243473D01*
X313270Y242619D01*
X313318Y242586D01*
X313387Y242530D01*
X313409Y242522D01*
X313429Y242508D01*
X313515Y242486D01*
X313599Y242458D01*
X313623Y242458D01*
X313646Y242452D01*
X313735Y242462D01*
X313824Y242464D01*
X313845Y242473D01*
X313869Y242476D01*
X313949Y242515D01*
X314031Y242549D01*
X314049Y242565D01*
X314070Y242575D01*
X314131Y242640D01*
X314197Y242700D01*
X314208Y242721D01*
X314224Y242738D01*
X314259Y242820D01*
X314300Y242900D01*
X314303Y242926D01*
X314312Y242945D01*
X314314Y242995D01*
X314327Y243085D01*
X314327Y243109D01*
X315176Y245157D01*
X316743Y246724D01*
X318791Y247573D01*
X321009Y247573D01*
X323057Y246724D01*
X324624Y245157D01*
X325473Y243109D01*
X325473Y240891D01*
X324624Y238843D01*
X323057Y237276D01*
X321009Y236427D01*
X318791Y236427D01*
X316730Y237281D01*
X316724Y237285D01*
X316706Y237305D01*
X316673Y237322D01*
X316613Y237370D01*
X316591Y237378D01*
X316571Y237392D01*
X316485Y237414D01*
X316401Y237442D01*
X316377Y237442D01*
X316354Y237448D01*
X316265Y237438D01*
X316176Y237436D01*
X316155Y237427D01*
X316131Y237424D01*
X316051Y237385D01*
X315969Y237351D01*
X315951Y237335D01*
X315930Y237325D01*
X315869Y237260D01*
X315803Y237200D01*
X315792Y237179D01*
X315776Y237162D01*
X315754Y237110D01*
X315752Y237107D01*
X315747Y237093D01*
X315741Y237080D01*
X315700Y237000D01*
X315697Y236974D01*
X315688Y236955D01*
X315687Y236915D01*
X315680Y236895D01*
X315681Y236867D01*
X315673Y236815D01*
X315673Y236792D01*
X315363Y236043D01*
X315351Y235990D01*
X315330Y235940D01*
X315327Y235881D01*
X315315Y235824D01*
X315322Y235770D01*
X315320Y235716D01*
X315338Y235660D01*
X315346Y235602D01*
X315372Y235554D01*
X315389Y235503D01*
X315431Y235445D01*
X315453Y235404D01*
X315476Y235384D01*
X315500Y235352D01*
X348850Y202003D01*
X348884Y201978D01*
X348913Y201947D01*
X348976Y201915D01*
X349034Y201874D01*
X349075Y201864D01*
X349113Y201844D01*
X349202Y201831D01*
X349251Y201818D01*
X349272Y201821D01*
X349298Y201817D01*
X417713Y201817D01*
X445817Y173713D01*
X445817Y172798D01*
X445826Y172745D01*
X445826Y172691D01*
X445846Y172635D01*
X445856Y172577D01*
X445884Y172531D01*
X445902Y172480D01*
X445941Y172435D01*
X445971Y172384D01*
X446013Y172350D01*
X446048Y172309D01*
X446109Y172272D01*
X446145Y172243D01*
X446174Y172233D01*
X446208Y172212D01*
X446957Y171902D01*
X448524Y170335D01*
X449373Y168287D01*
X449373Y166069D01*
X448524Y164021D01*
X446957Y162454D01*
X444909Y161605D01*
X442691Y161605D01*
G37*
%LPD*%
%LPC*%
G36*
X256399Y276127D02*
X256399Y276127D01*
X254351Y276976D01*
X252784Y278543D01*
X251935Y280591D01*
X251935Y281093D01*
X251924Y281158D01*
X251922Y281224D01*
X251904Y281267D01*
X251896Y281314D01*
X251862Y281371D01*
X251837Y281431D01*
X251806Y281466D01*
X251781Y281507D01*
X251730Y281549D01*
X251686Y281597D01*
X251644Y281619D01*
X251607Y281648D01*
X251545Y281669D01*
X251486Y281700D01*
X251432Y281708D01*
X251395Y281720D01*
X251355Y281719D01*
X251301Y281727D01*
X249491Y281727D01*
X247443Y282576D01*
X245876Y284143D01*
X245703Y284560D01*
X245661Y284625D01*
X245627Y284694D01*
X245601Y284719D01*
X245582Y284749D01*
X245520Y284795D01*
X245464Y284848D01*
X245431Y284862D01*
X245403Y284884D01*
X245328Y284906D01*
X245257Y284936D01*
X245222Y284937D01*
X245188Y284948D01*
X245110Y284942D01*
X245033Y284946D01*
X244999Y284935D01*
X244964Y284933D01*
X244893Y284901D01*
X244819Y284877D01*
X244787Y284853D01*
X244759Y284841D01*
X244726Y284808D01*
X244669Y284766D01*
X243153Y283250D01*
X241105Y282401D01*
X238887Y282401D01*
X236839Y283250D01*
X235272Y284817D01*
X234423Y286866D01*
X234423Y289083D01*
X235272Y291131D01*
X236839Y292698D01*
X238887Y293547D01*
X241105Y293547D01*
X243153Y292698D01*
X244720Y291131D01*
X244893Y290714D01*
X244935Y290649D01*
X244969Y290580D01*
X244995Y290555D01*
X245014Y290525D01*
X245076Y290479D01*
X245132Y290426D01*
X245165Y290412D01*
X245193Y290390D01*
X245268Y290368D01*
X245339Y290338D01*
X245374Y290337D01*
X245408Y290327D01*
X245486Y290332D01*
X245563Y290328D01*
X245597Y290339D01*
X245632Y290341D01*
X245703Y290373D01*
X245777Y290397D01*
X245809Y290421D01*
X245837Y290433D01*
X245870Y290466D01*
X245927Y290508D01*
X247443Y292024D01*
X249491Y292873D01*
X251709Y292873D01*
X253757Y292024D01*
X255324Y290457D01*
X256173Y288409D01*
X256173Y287907D01*
X256184Y287842D01*
X256186Y287776D01*
X256204Y287733D01*
X256212Y287686D01*
X256246Y287629D01*
X256271Y287569D01*
X256302Y287534D01*
X256327Y287493D01*
X256378Y287451D01*
X256422Y287403D01*
X256464Y287381D01*
X256501Y287352D01*
X256563Y287331D01*
X256622Y287300D01*
X256676Y287292D01*
X256713Y287280D01*
X256753Y287281D01*
X256807Y287273D01*
X258616Y287273D01*
X258857Y287173D01*
X258933Y287156D01*
X259006Y287132D01*
X259042Y287133D01*
X259076Y287125D01*
X259153Y287136D01*
X259231Y287138D01*
X259263Y287152D01*
X259299Y287157D01*
X259367Y287194D01*
X259438Y287223D01*
X259465Y287247D01*
X259496Y287263D01*
X259547Y287322D01*
X259604Y287374D01*
X259620Y287406D01*
X259644Y287432D01*
X259671Y287505D01*
X259707Y287574D01*
X259713Y287613D01*
X259723Y287642D01*
X259724Y287689D01*
X259734Y287759D01*
X259734Y288109D01*
X260583Y290157D01*
X262150Y291724D01*
X264198Y292573D01*
X266416Y292573D01*
X268464Y291724D01*
X270031Y290157D01*
X270047Y290118D01*
X270083Y290063D01*
X270110Y290003D01*
X270143Y289969D01*
X270169Y289929D01*
X270221Y289890D01*
X270267Y289843D01*
X270310Y289823D01*
X270348Y289794D01*
X270411Y289776D01*
X270471Y289748D01*
X270518Y289744D01*
X270563Y289730D01*
X270629Y289735D01*
X270694Y289729D01*
X270747Y289743D01*
X270787Y289745D01*
X270823Y289761D01*
X270876Y289775D01*
X272802Y290573D01*
X275020Y290573D01*
X277068Y289724D01*
X278657Y288135D01*
X278711Y288097D01*
X278759Y288052D01*
X278802Y288034D01*
X278841Y288007D01*
X278905Y287991D01*
X278966Y287965D01*
X279013Y287963D01*
X279058Y287951D01*
X279124Y287958D01*
X279190Y287955D01*
X279235Y287969D01*
X279282Y287974D01*
X279341Y288003D01*
X279403Y288023D01*
X279447Y288056D01*
X279483Y288074D01*
X279510Y288102D01*
X279554Y288135D01*
X279943Y288524D01*
X281991Y289373D01*
X284209Y289373D01*
X286257Y288524D01*
X287824Y286957D01*
X288673Y284909D01*
X288673Y282691D01*
X287824Y280643D01*
X286257Y279076D01*
X284209Y278227D01*
X281991Y278227D01*
X279943Y279076D01*
X278354Y280665D01*
X278300Y280703D01*
X278252Y280748D01*
X278209Y280766D01*
X278170Y280793D01*
X278106Y280809D01*
X278045Y280835D01*
X277998Y280837D01*
X277952Y280849D01*
X277887Y280842D01*
X277821Y280845D01*
X277776Y280831D01*
X277729Y280826D01*
X277670Y280797D01*
X277608Y280776D01*
X277564Y280744D01*
X277528Y280726D01*
X277501Y280698D01*
X277457Y280665D01*
X277068Y280276D01*
X275020Y279427D01*
X272802Y279427D01*
X270754Y280276D01*
X269187Y281843D01*
X269171Y281882D01*
X269135Y281937D01*
X269108Y281997D01*
X269075Y282031D01*
X269049Y282071D01*
X268997Y282110D01*
X268951Y282157D01*
X268908Y282177D01*
X268870Y282206D01*
X268807Y282224D01*
X268747Y282252D01*
X268700Y282256D01*
X268655Y282270D01*
X268589Y282265D01*
X268524Y282271D01*
X268471Y282257D01*
X268431Y282255D01*
X268395Y282239D01*
X268342Y282225D01*
X266416Y281427D01*
X264199Y281427D01*
X263958Y281527D01*
X263882Y281544D01*
X263809Y281568D01*
X263773Y281567D01*
X263739Y281575D01*
X263662Y281564D01*
X263584Y281562D01*
X263552Y281548D01*
X263516Y281543D01*
X263448Y281506D01*
X263377Y281477D01*
X263350Y281453D01*
X263319Y281437D01*
X263268Y281378D01*
X263211Y281326D01*
X263195Y281294D01*
X263171Y281268D01*
X263144Y281195D01*
X263108Y281126D01*
X263102Y281087D01*
X263092Y281058D01*
X263091Y281011D01*
X263081Y280941D01*
X263081Y280591D01*
X262232Y278543D01*
X260665Y276976D01*
X258617Y276127D01*
X256399Y276127D01*
G37*
%LPD*%
%LPC*%
G36*
X513407Y261790D02*
X513407Y261790D01*
X510280Y263086D01*
X507886Y265480D01*
X506590Y268607D01*
X506590Y271993D01*
X507886Y275120D01*
X510280Y277514D01*
X513407Y278810D01*
X516793Y278810D01*
X519920Y277514D01*
X522314Y275120D01*
X523610Y271993D01*
X523610Y268607D01*
X522314Y265480D01*
X519920Y263086D01*
X516793Y261790D01*
X513407Y261790D01*
G37*
%LPD*%
%LPC*%
G36*
X513407Y236390D02*
X513407Y236390D01*
X510280Y237686D01*
X507886Y240080D01*
X506590Y243207D01*
X506590Y246593D01*
X507886Y249720D01*
X510280Y252114D01*
X513407Y253410D01*
X516793Y253410D01*
X519920Y252114D01*
X522314Y249720D01*
X523610Y246593D01*
X523610Y243207D01*
X522314Y240080D01*
X519920Y237686D01*
X516793Y236390D01*
X513407Y236390D01*
G37*
%LPD*%
%LPC*%
G36*
X422907Y21890D02*
X422907Y21890D01*
X419780Y23186D01*
X417386Y25580D01*
X416090Y28707D01*
X416090Y32093D01*
X417386Y35220D01*
X419780Y37614D01*
X422907Y38910D01*
X426293Y38910D01*
X429420Y37614D01*
X431814Y35220D01*
X433110Y32093D01*
X433110Y28707D01*
X431814Y25580D01*
X429420Y23186D01*
X426293Y21890D01*
X422907Y21890D01*
G37*
%LPD*%
%LPC*%
G36*
X397507Y21890D02*
X397507Y21890D01*
X394380Y23186D01*
X391986Y25580D01*
X390690Y28707D01*
X390690Y32093D01*
X391986Y35220D01*
X394380Y37614D01*
X397507Y38910D01*
X400893Y38910D01*
X404020Y37614D01*
X406414Y35220D01*
X407710Y32093D01*
X407710Y28707D01*
X406414Y25580D01*
X404020Y23186D01*
X400893Y21890D01*
X397507Y21890D01*
G37*
%LPD*%
%LPC*%
G36*
X372107Y21890D02*
X372107Y21890D01*
X368980Y23186D01*
X366586Y25580D01*
X365290Y28707D01*
X365290Y32093D01*
X366586Y35220D01*
X368980Y37614D01*
X372107Y38910D01*
X375493Y38910D01*
X378620Y37614D01*
X381014Y35220D01*
X382310Y32093D01*
X382310Y28707D01*
X381014Y25580D01*
X378620Y23186D01*
X375493Y21890D01*
X372107Y21890D01*
G37*
%LPD*%
%LPC*%
G36*
X513407Y210990D02*
X513407Y210990D01*
X510280Y212286D01*
X507886Y214680D01*
X506590Y217807D01*
X506590Y221193D01*
X507886Y224320D01*
X510280Y226714D01*
X513407Y228010D01*
X516793Y228010D01*
X519920Y226714D01*
X522314Y224320D01*
X523610Y221193D01*
X523610Y217807D01*
X522314Y214680D01*
X519920Y212286D01*
X516793Y210990D01*
X513407Y210990D01*
G37*
%LPD*%
%LPC*%
G36*
X448307Y47290D02*
X448307Y47290D01*
X445180Y48586D01*
X442786Y50980D01*
X441490Y54107D01*
X441490Y57493D01*
X442786Y60620D01*
X445180Y63014D01*
X448307Y64310D01*
X451693Y64310D01*
X454820Y63014D01*
X457214Y60620D01*
X458510Y57493D01*
X458510Y54107D01*
X457214Y50980D01*
X454820Y48586D01*
X451693Y47290D01*
X448307Y47290D01*
G37*
%LPD*%
%LPC*%
G36*
X422907Y47290D02*
X422907Y47290D01*
X419780Y48586D01*
X417386Y50980D01*
X416090Y54107D01*
X416090Y57493D01*
X417386Y60620D01*
X419780Y63014D01*
X422907Y64310D01*
X426293Y64310D01*
X429420Y63014D01*
X431814Y60620D01*
X433110Y57493D01*
X433110Y54107D01*
X431814Y50980D01*
X429420Y48586D01*
X426293Y47290D01*
X422907Y47290D01*
G37*
%LPD*%
%LPC*%
G36*
X397507Y47290D02*
X397507Y47290D01*
X394380Y48586D01*
X391986Y50980D01*
X390690Y54107D01*
X390690Y57493D01*
X391986Y60620D01*
X394380Y63014D01*
X397507Y64310D01*
X400893Y64310D01*
X404020Y63014D01*
X406414Y60620D01*
X407710Y57493D01*
X407710Y54107D01*
X406414Y50980D01*
X404020Y48586D01*
X400893Y47290D01*
X397507Y47290D01*
G37*
%LPD*%
%LPC*%
G36*
X372107Y47290D02*
X372107Y47290D01*
X368980Y48586D01*
X366586Y50980D01*
X365290Y54107D01*
X365290Y57493D01*
X366586Y60620D01*
X368980Y63014D01*
X372107Y64310D01*
X375493Y64310D01*
X378620Y63014D01*
X381014Y60620D01*
X382310Y57493D01*
X382310Y54107D01*
X381014Y50980D01*
X378620Y48586D01*
X375493Y47290D01*
X372107Y47290D01*
G37*
%LPD*%
%LPC*%
G36*
X448307Y21890D02*
X448307Y21890D01*
X445180Y23186D01*
X442786Y25580D01*
X441490Y28707D01*
X441490Y32093D01*
X442786Y35220D01*
X445180Y37614D01*
X448307Y38910D01*
X451693Y38910D01*
X454820Y37614D01*
X457214Y35220D01*
X458510Y32093D01*
X458510Y28707D01*
X457214Y25580D01*
X454820Y23186D01*
X451693Y21890D01*
X448307Y21890D01*
G37*
%LPD*%
%LPC*%
G36*
X275687Y227127D02*
X275687Y227127D01*
X273639Y227976D01*
X272072Y229543D01*
X271223Y231591D01*
X271223Y233809D01*
X272072Y235857D01*
X273639Y237424D01*
X275687Y238273D01*
X276893Y238273D01*
X276958Y238284D01*
X277024Y238286D01*
X277067Y238304D01*
X277114Y238312D01*
X277171Y238346D01*
X277231Y238371D01*
X277266Y238402D01*
X277307Y238427D01*
X277349Y238478D01*
X277397Y238522D01*
X277419Y238564D01*
X277448Y238601D01*
X277469Y238663D01*
X277500Y238722D01*
X277508Y238776D01*
X277520Y238813D01*
X277519Y238853D01*
X277527Y238907D01*
X277527Y240709D01*
X278376Y242757D01*
X279943Y244324D01*
X281991Y245173D01*
X284209Y245173D01*
X286257Y244324D01*
X287824Y242757D01*
X288673Y240709D01*
X288673Y238491D01*
X287824Y236443D01*
X286257Y234876D01*
X284209Y234027D01*
X283003Y234027D01*
X282938Y234016D01*
X282872Y234014D01*
X282829Y233996D01*
X282782Y233988D01*
X282725Y233954D01*
X282665Y233929D01*
X282630Y233898D01*
X282589Y233873D01*
X282547Y233822D01*
X282499Y233778D01*
X282477Y233736D01*
X282448Y233699D01*
X282427Y233637D01*
X282396Y233578D01*
X282388Y233524D01*
X282376Y233487D01*
X282377Y233447D01*
X282369Y233393D01*
X282369Y231591D01*
X281520Y229543D01*
X279953Y227976D01*
X277905Y227127D01*
X275687Y227127D01*
G37*
%LPD*%
%LPC*%
G36*
X256491Y67727D02*
X256491Y67727D01*
X254443Y68576D01*
X252876Y70143D01*
X252027Y72191D01*
X252027Y74409D01*
X252876Y76457D01*
X254443Y78024D01*
X254574Y78078D01*
X254629Y78114D01*
X254690Y78141D01*
X254723Y78174D01*
X254763Y78200D01*
X254802Y78252D01*
X254849Y78298D01*
X254869Y78341D01*
X254898Y78379D01*
X254917Y78442D01*
X254944Y78502D01*
X254948Y78549D01*
X254962Y78594D01*
X254957Y78660D01*
X254963Y78725D01*
X254949Y78779D01*
X254947Y78818D01*
X254931Y78854D01*
X254917Y78907D01*
X254222Y80586D01*
X254222Y82803D01*
X255070Y84851D01*
X256638Y86419D01*
X258686Y87267D01*
X260903Y87267D01*
X262951Y86419D01*
X264519Y84851D01*
X265367Y82803D01*
X265367Y80586D01*
X264519Y78538D01*
X262951Y76970D01*
X262821Y76916D01*
X262765Y76881D01*
X262705Y76854D01*
X262674Y76823D01*
X262663Y76816D01*
X262660Y76813D01*
X262632Y76795D01*
X262592Y76742D01*
X262545Y76696D01*
X262525Y76653D01*
X262497Y76616D01*
X262478Y76553D01*
X262450Y76493D01*
X262446Y76446D01*
X262433Y76401D01*
X262437Y76335D01*
X262432Y76269D01*
X262445Y76216D01*
X262448Y76177D01*
X262464Y76141D01*
X262477Y76087D01*
X263173Y74409D01*
X263173Y72191D01*
X262324Y70143D01*
X260757Y68576D01*
X258709Y67727D01*
X256491Y67727D01*
G37*
%LPD*%
%LPC*%
G36*
X253626Y107323D02*
X253626Y107323D01*
X251578Y108172D01*
X250010Y109739D01*
X249162Y111787D01*
X249162Y114005D01*
X250010Y116053D01*
X250590Y116632D01*
X250627Y116686D01*
X250673Y116734D01*
X250691Y116778D01*
X250718Y116816D01*
X250734Y116880D01*
X250760Y116941D01*
X250762Y116988D01*
X250774Y117034D01*
X250767Y117099D01*
X250770Y117165D01*
X250756Y117210D01*
X250751Y117257D01*
X250721Y117316D01*
X250701Y117378D01*
X250669Y117423D01*
X250651Y117458D01*
X250623Y117485D01*
X250590Y117529D01*
X249776Y118343D01*
X248927Y120391D01*
X248927Y122609D01*
X249776Y124657D01*
X251343Y126224D01*
X253391Y127073D01*
X255609Y127073D01*
X257657Y126224D01*
X259224Y124657D01*
X260073Y122609D01*
X260073Y120391D01*
X259224Y118343D01*
X258645Y117764D01*
X258607Y117710D01*
X258562Y117662D01*
X258544Y117618D01*
X258517Y117580D01*
X258500Y117516D01*
X258475Y117455D01*
X258473Y117408D01*
X258461Y117362D01*
X258468Y117297D01*
X258465Y117231D01*
X258479Y117186D01*
X258484Y117139D01*
X258513Y117080D01*
X258533Y117018D01*
X258566Y116973D01*
X258583Y116938D01*
X258612Y116911D01*
X258645Y116867D01*
X259459Y116053D01*
X260307Y114005D01*
X260307Y111787D01*
X259459Y109739D01*
X257891Y108172D01*
X255843Y107323D01*
X253626Y107323D01*
G37*
%LPD*%
%LPC*%
G36*
X76942Y218277D02*
X76942Y218277D01*
X74618Y219240D01*
X72840Y221018D01*
X71877Y223342D01*
X71877Y225858D01*
X72840Y228182D01*
X74618Y229960D01*
X76942Y230923D01*
X79458Y230923D01*
X81782Y229960D01*
X83560Y228182D01*
X84523Y225858D01*
X84523Y223342D01*
X83560Y221018D01*
X81782Y219240D01*
X79458Y218277D01*
X76942Y218277D01*
G37*
%LPD*%
%LPC*%
G36*
X422692Y217177D02*
X422692Y217177D01*
X420368Y218140D01*
X418590Y219918D01*
X417627Y222242D01*
X417627Y224758D01*
X418590Y227082D01*
X420368Y228860D01*
X422692Y229823D01*
X425208Y229823D01*
X427532Y228860D01*
X429310Y227082D01*
X430273Y224758D01*
X430273Y222242D01*
X429310Y219918D01*
X427532Y218140D01*
X425208Y217177D01*
X422692Y217177D01*
G37*
%LPD*%
%LPC*%
G36*
X164442Y214777D02*
X164442Y214777D01*
X162118Y215740D01*
X160340Y217518D01*
X159377Y219842D01*
X159377Y222358D01*
X160340Y224682D01*
X162118Y226460D01*
X164442Y227423D01*
X166958Y227423D01*
X169282Y226460D01*
X171060Y224682D01*
X172023Y222358D01*
X172023Y219842D01*
X171060Y217518D01*
X169282Y215740D01*
X166958Y214777D01*
X164442Y214777D01*
G37*
%LPD*%
%LPC*%
G36*
X118742Y210177D02*
X118742Y210177D01*
X116418Y211140D01*
X114640Y212918D01*
X113677Y215242D01*
X113677Y217758D01*
X114640Y220082D01*
X116418Y221860D01*
X118742Y222823D01*
X121258Y222823D01*
X123582Y221860D01*
X125360Y220082D01*
X126323Y217758D01*
X126323Y215242D01*
X125360Y212918D01*
X123582Y211140D01*
X121258Y210177D01*
X118742Y210177D01*
G37*
%LPD*%
%LPC*%
G36*
X76942Y201277D02*
X76942Y201277D01*
X74618Y202240D01*
X72840Y204018D01*
X71877Y206342D01*
X71877Y208858D01*
X72840Y211182D01*
X74618Y212960D01*
X76942Y213923D01*
X79458Y213923D01*
X81782Y212960D01*
X83560Y211182D01*
X84523Y208858D01*
X84523Y206342D01*
X83560Y204018D01*
X81782Y202240D01*
X79458Y201277D01*
X76942Y201277D01*
G37*
%LPD*%
%LPC*%
G36*
X178442Y198677D02*
X178442Y198677D01*
X176118Y199640D01*
X174340Y201418D01*
X173377Y203742D01*
X173377Y206258D01*
X174340Y208582D01*
X176118Y210360D01*
X178442Y211323D01*
X180958Y211323D01*
X183282Y210360D01*
X185060Y208582D01*
X186023Y206258D01*
X186023Y203742D01*
X185060Y201418D01*
X183282Y199640D01*
X180958Y198677D01*
X178442Y198677D01*
G37*
%LPD*%
%LPC*%
G36*
X56742Y197177D02*
X56742Y197177D01*
X54418Y198140D01*
X52640Y199918D01*
X51677Y202242D01*
X51677Y204758D01*
X52640Y207082D01*
X54418Y208860D01*
X56742Y209823D01*
X59258Y209823D01*
X61582Y208860D01*
X63360Y207082D01*
X64323Y204758D01*
X64323Y202242D01*
X63360Y199918D01*
X61582Y198140D01*
X59258Y197177D01*
X56742Y197177D01*
G37*
%LPD*%
%LPC*%
G36*
X43242Y127677D02*
X43242Y127677D01*
X40918Y128640D01*
X39140Y130418D01*
X38177Y132742D01*
X38177Y135258D01*
X39140Y137582D01*
X40918Y139360D01*
X43242Y140323D01*
X45758Y140323D01*
X48082Y139360D01*
X49860Y137582D01*
X50823Y135258D01*
X50823Y132742D01*
X49860Y130418D01*
X48082Y128640D01*
X45758Y127677D01*
X43242Y127677D01*
G37*
%LPD*%
%LPC*%
G36*
X474342Y182077D02*
X474342Y182077D01*
X472018Y183040D01*
X470240Y184818D01*
X469277Y187142D01*
X469277Y189658D01*
X470240Y191982D01*
X472018Y193760D01*
X474342Y194723D01*
X476858Y194723D01*
X479182Y193760D01*
X480960Y191982D01*
X481923Y189658D01*
X481923Y187142D01*
X480960Y184818D01*
X479182Y183040D01*
X476858Y182077D01*
X474342Y182077D01*
G37*
%LPD*%
%LPC*%
G36*
X84742Y62177D02*
X84742Y62177D01*
X82418Y63140D01*
X80640Y64918D01*
X79677Y67242D01*
X79677Y69758D01*
X80640Y72082D01*
X82418Y73860D01*
X84742Y74823D01*
X87258Y74823D01*
X89582Y73860D01*
X91360Y72082D01*
X92323Y69758D01*
X92323Y67242D01*
X91360Y64918D01*
X89582Y63140D01*
X87258Y62177D01*
X84742Y62177D01*
G37*
%LPD*%
%LPC*%
G36*
X471742Y146677D02*
X471742Y146677D01*
X469418Y147640D01*
X467640Y149418D01*
X466677Y151742D01*
X466677Y154258D01*
X467640Y156582D01*
X469418Y158360D01*
X471742Y159323D01*
X474258Y159323D01*
X476582Y158360D01*
X478360Y156582D01*
X479323Y154258D01*
X479323Y151742D01*
X478360Y149418D01*
X476582Y147640D01*
X474258Y146677D01*
X471742Y146677D01*
G37*
%LPD*%
%LPC*%
G36*
X22742Y181677D02*
X22742Y181677D01*
X20418Y182640D01*
X18640Y184418D01*
X17677Y186742D01*
X17677Y189258D01*
X18640Y191582D01*
X20418Y193360D01*
X22742Y194323D01*
X25258Y194323D01*
X27582Y193360D01*
X29360Y191582D01*
X30323Y189258D01*
X30323Y186742D01*
X29360Y184418D01*
X27582Y182640D01*
X25258Y181677D01*
X22742Y181677D01*
G37*
%LPD*%
%LPC*%
G36*
X88742Y133677D02*
X88742Y133677D01*
X86418Y134640D01*
X84640Y136418D01*
X83677Y138742D01*
X83677Y141258D01*
X84640Y143582D01*
X86418Y145360D01*
X88742Y146323D01*
X91258Y146323D01*
X93582Y145360D01*
X95360Y143582D01*
X96323Y141258D01*
X96323Y138742D01*
X95360Y136418D01*
X93582Y134640D01*
X91258Y133677D01*
X88742Y133677D01*
G37*
%LPD*%
%LPC*%
G36*
X119042Y127077D02*
X119042Y127077D01*
X116718Y128040D01*
X114940Y129818D01*
X113977Y132142D01*
X113977Y134658D01*
X114940Y136982D01*
X116718Y138760D01*
X119042Y139723D01*
X121558Y139723D01*
X123882Y138760D01*
X125660Y136982D01*
X126623Y134658D01*
X126623Y132142D01*
X125660Y129818D01*
X123882Y128040D01*
X121558Y127077D01*
X119042Y127077D01*
G37*
%LPD*%
%LPC*%
G36*
X118742Y13677D02*
X118742Y13677D01*
X116418Y14640D01*
X114640Y16418D01*
X113677Y18742D01*
X113677Y21258D01*
X114640Y23582D01*
X116418Y25360D01*
X118742Y26323D01*
X121258Y26323D01*
X123582Y25360D01*
X125360Y23582D01*
X126323Y21258D01*
X126323Y18742D01*
X125360Y16418D01*
X123582Y14640D01*
X121258Y13677D01*
X118742Y13677D01*
G37*
%LPD*%
%LPC*%
G36*
X70391Y58927D02*
X70391Y58927D01*
X68343Y59776D01*
X66776Y61343D01*
X65927Y63391D01*
X65927Y65609D01*
X66776Y67657D01*
X68343Y69224D01*
X70391Y70073D01*
X72609Y70073D01*
X74657Y69224D01*
X76224Y67657D01*
X77073Y65609D01*
X77073Y63391D01*
X76224Y61343D01*
X74657Y59776D01*
X72609Y58927D01*
X70391Y58927D01*
G37*
%LPD*%
%LPC*%
G36*
X442547Y144727D02*
X442547Y144727D01*
X440499Y145576D01*
X438932Y147143D01*
X438083Y149191D01*
X438083Y151409D01*
X438932Y153457D01*
X440499Y155024D01*
X442547Y155873D01*
X444765Y155873D01*
X446813Y155024D01*
X448380Y153457D01*
X449229Y151409D01*
X449229Y149191D01*
X448380Y147143D01*
X446813Y145576D01*
X444765Y144727D01*
X442547Y144727D01*
G37*
%LPD*%
%LPC*%
G36*
X516369Y195369D02*
X516369Y195369D01*
X516369Y204186D01*
X517479Y204011D01*
X519000Y203516D01*
X520425Y202790D01*
X521719Y201850D01*
X522850Y200719D01*
X523790Y199425D01*
X524516Y198000D01*
X525011Y196479D01*
X525186Y195369D01*
X516369Y195369D01*
G37*
%LPD*%
%LPC*%
G36*
X505014Y195369D02*
X505014Y195369D01*
X505189Y196479D01*
X505684Y198000D01*
X506410Y199425D01*
X507350Y200719D01*
X508481Y201850D01*
X509775Y202790D01*
X511200Y203516D01*
X512721Y204011D01*
X513831Y204186D01*
X513831Y195369D01*
X505014Y195369D01*
G37*
%LPD*%
%LPC*%
G36*
X516369Y192831D02*
X516369Y192831D01*
X525186Y192831D01*
X525011Y191721D01*
X524516Y190200D01*
X523790Y188775D01*
X522850Y187481D01*
X521719Y186350D01*
X520425Y185410D01*
X519000Y184684D01*
X517479Y184189D01*
X516369Y184014D01*
X516369Y192831D01*
G37*
%LPD*%
%LPC*%
G36*
X512721Y184189D02*
X512721Y184189D01*
X511200Y184684D01*
X509775Y185410D01*
X508481Y186350D01*
X507350Y187481D01*
X506410Y188775D01*
X505684Y190200D01*
X505189Y191721D01*
X505014Y192831D01*
X513831Y192831D01*
X513831Y184014D01*
X512721Y184189D01*
G37*
%LPD*%
%LPC*%
G36*
X515099Y194099D02*
X515099Y194099D01*
X515099Y194101D01*
X515101Y194101D01*
X515101Y194099D01*
X515099Y194099D01*
G37*
%LPD*%
D10*
X515100Y194100D03*
X515100Y219500D03*
X515100Y244900D03*
X515100Y270300D03*
X373800Y30400D03*
X373800Y55800D03*
X399200Y30400D03*
X399200Y55800D03*
X424600Y30400D03*
X424600Y55800D03*
X450000Y30400D03*
X450000Y55800D03*
D11*
X255400Y104300D03*
X254200Y130600D03*
X265600Y88100D03*
X246500Y49300D03*
X269400Y239600D03*
X289400Y233700D03*
X171200Y44300D03*
X321600Y44300D03*
X276500Y49200D03*
X216500Y49100D03*
D12*
X427100Y173900D03*
X427100Y153900D03*
X350000Y190000D03*
X373900Y224500D03*
X352900Y224400D03*
X395000Y224700D03*
X338200Y168800D03*
X398000Y91200D03*
X101800Y86800D03*
X13300Y134000D03*
X7200Y151700D03*
X179600Y174300D03*
X201300Y173000D03*
X155400Y181500D03*
X145200Y199000D03*
X150200Y238100D03*
X151900Y286800D03*
X86700Y49400D03*
X58400Y79400D03*
X172600Y287000D03*
X202300Y237300D03*
X98600Y233900D03*
X76000Y177000D03*
X90000Y177000D03*
X76000Y162000D03*
X90000Y162000D03*
X119500Y245300D03*
X46200Y111200D03*
X461500Y122700D03*
X383300Y136200D03*
X357000Y275000D03*
X387000Y275000D03*
D11*
X293000Y283500D03*
D12*
X44500Y134000D03*
X24000Y188000D03*
X120000Y20000D03*
X86000Y68500D03*
X150600Y110600D03*
D13*
X163722Y123722D02*
X163722Y202978D01*
X163722Y123722D02*
X150600Y110600D01*
X138200Y228500D02*
X138200Y247000D01*
X140600Y249400D01*
X148900Y257700D01*
X151900Y257700D01*
D12*
X151900Y257700D03*
D13*
X138200Y228500D02*
X163722Y202978D01*
D12*
X90000Y140000D03*
X78200Y224600D03*
X165700Y221100D03*
X58000Y203500D03*
X78200Y207600D03*
X120000Y216500D03*
X179700Y205000D03*
X120300Y133400D03*
X473000Y153000D03*
D11*
X310100Y237900D03*
D14*
X348200Y199800D01*
X416878Y199800D02*
X443800Y172878D01*
X443800Y167178D01*
D11*
X443800Y167178D03*
D14*
X416878Y199800D02*
X348200Y199800D01*
D11*
X319900Y242000D03*
X443656Y150300D03*
X257508Y281700D03*
X254500Y121500D03*
X254735Y112896D03*
X265307Y287000D03*
X276796Y232700D03*
X273911Y285000D03*
X283100Y239600D03*
X283100Y283800D03*
X257600Y73300D03*
X239996Y287974D03*
X259795Y81695D03*
X250600Y287300D03*
D12*
X475600Y188400D03*
X423950Y223500D03*
D11*
X71500Y64500D03*
M02*
