G04 EAGLE Gerber RS-274X export*
G75*
%MOMM*%
%FSLAX34Y34*%
%LPD*%
%INCopper Layer 2*%
%IPPOS*%
%AMOC8*
5,1,8,0,0,1.08239X$1,22.5*%
G01*
%ADD10C,1.524000*%
%ADD11C,0.606400*%
%ADD12C,0.756400*%
%ADD13C,0.400000*%
%ADD14C,0.200000*%

G36*
X510022Y2767D02*
X510022Y2767D01*
X510050Y2765D01*
X514211Y3092D01*
X514260Y3105D01*
X514358Y3121D01*
X522274Y5693D01*
X522278Y5696D01*
X522284Y5697D01*
X522450Y5783D01*
X529184Y10676D01*
X529188Y10680D01*
X529193Y10682D01*
X529324Y10816D01*
X534217Y17550D01*
X534219Y17555D01*
X534223Y17559D01*
X534307Y17726D01*
X536879Y25642D01*
X536886Y25693D01*
X536908Y25789D01*
X537235Y29950D01*
X537233Y29972D01*
X537237Y30000D01*
X537237Y270000D01*
X537233Y270022D01*
X537235Y270050D01*
X536908Y274211D01*
X536895Y274260D01*
X536879Y274358D01*
X534307Y282274D01*
X534304Y282278D01*
X534303Y282284D01*
X534217Y282450D01*
X529324Y289184D01*
X529320Y289188D01*
X529318Y289193D01*
X529219Y289290D01*
X529197Y289314D01*
X529192Y289316D01*
X529184Y289324D01*
X522450Y294217D01*
X522445Y294219D01*
X522441Y294223D01*
X522274Y294307D01*
X514358Y296879D01*
X514308Y296886D01*
X514303Y296887D01*
X514255Y296903D01*
X514236Y296902D01*
X514211Y296908D01*
X510050Y297235D01*
X510028Y297233D01*
X510000Y297237D01*
X30000Y297237D01*
X29978Y297233D01*
X29950Y297235D01*
X25789Y296908D01*
X25740Y296895D01*
X25642Y296879D01*
X17726Y294307D01*
X17722Y294304D01*
X17716Y294303D01*
X17550Y294217D01*
X10816Y289324D01*
X10812Y289320D01*
X10807Y289318D01*
X10789Y289299D01*
X10774Y289290D01*
X10744Y289253D01*
X10676Y289184D01*
X5783Y282450D01*
X5781Y282445D01*
X5777Y282441D01*
X5693Y282274D01*
X3121Y274358D01*
X3114Y274307D01*
X3092Y274211D01*
X2765Y270050D01*
X2767Y270028D01*
X2763Y270000D01*
X2763Y30000D01*
X2767Y29978D01*
X2765Y29950D01*
X3092Y25789D01*
X3105Y25740D01*
X3121Y25642D01*
X5693Y17726D01*
X5696Y17722D01*
X5697Y17716D01*
X5783Y17550D01*
X10676Y10816D01*
X10680Y10812D01*
X10682Y10807D01*
X10816Y10676D01*
X17550Y5783D01*
X17555Y5781D01*
X17559Y5777D01*
X17726Y5693D01*
X25642Y3121D01*
X25693Y3114D01*
X25789Y3092D01*
X29950Y2765D01*
X29972Y2767D01*
X30000Y2763D01*
X510000Y2763D01*
X510022Y2767D01*
G37*
%LPC*%
G36*
X103165Y7983D02*
X103165Y7983D01*
X69483Y41665D01*
X69483Y58880D01*
X69474Y58933D01*
X69474Y58987D01*
X69454Y59043D01*
X69444Y59101D01*
X69416Y59147D01*
X69398Y59198D01*
X69359Y59243D01*
X69329Y59294D01*
X69287Y59328D01*
X69252Y59369D01*
X69191Y59406D01*
X69155Y59435D01*
X69126Y59445D01*
X69092Y59466D01*
X68343Y59776D01*
X66776Y61343D01*
X65927Y63391D01*
X65927Y65609D01*
X66776Y67657D01*
X68343Y69224D01*
X70391Y70073D01*
X72609Y70073D01*
X74657Y69224D01*
X76224Y67657D01*
X77073Y65609D01*
X77073Y63391D01*
X76224Y61343D01*
X74657Y59776D01*
X73908Y59466D01*
X73863Y59436D01*
X73813Y59416D01*
X73769Y59376D01*
X73719Y59345D01*
X73687Y59301D01*
X73647Y59265D01*
X73620Y59212D01*
X73585Y59165D01*
X73569Y59113D01*
X73544Y59065D01*
X73534Y58995D01*
X73521Y58950D01*
X73523Y58920D01*
X73517Y58880D01*
X73517Y43598D01*
X73524Y43556D01*
X73522Y43514D01*
X73544Y43447D01*
X73556Y43377D01*
X73578Y43341D01*
X73591Y43300D01*
X73645Y43228D01*
X73671Y43184D01*
X73687Y43171D01*
X73703Y43150D01*
X104650Y12203D01*
X104684Y12178D01*
X104713Y12147D01*
X104776Y12115D01*
X104834Y12074D01*
X104875Y12064D01*
X104913Y12044D01*
X105002Y12031D01*
X105051Y12018D01*
X105072Y12021D01*
X105098Y12017D01*
X408902Y12017D01*
X408944Y12024D01*
X408986Y12022D01*
X409053Y12044D01*
X409123Y12056D01*
X409159Y12078D01*
X409200Y12091D01*
X409272Y12145D01*
X409316Y12171D01*
X409329Y12187D01*
X409350Y12203D01*
X419608Y22460D01*
X419646Y22514D01*
X419691Y22562D01*
X419709Y22606D01*
X419736Y22644D01*
X419753Y22708D01*
X419778Y22769D01*
X419780Y22816D01*
X419792Y22862D01*
X419785Y22927D01*
X419788Y22993D01*
X419774Y23038D01*
X419769Y23085D01*
X419740Y23144D01*
X419720Y23207D01*
X419687Y23251D01*
X419670Y23286D01*
X419641Y23313D01*
X419608Y23357D01*
X417386Y25580D01*
X416090Y28707D01*
X416090Y32093D01*
X417386Y35220D01*
X419780Y37614D01*
X422907Y38910D01*
X426293Y38910D01*
X429420Y37614D01*
X431814Y35220D01*
X433110Y32093D01*
X433110Y28707D01*
X431814Y25580D01*
X429420Y23186D01*
X426293Y21890D01*
X425005Y21890D01*
X424963Y21883D01*
X424921Y21885D01*
X424854Y21863D01*
X424784Y21851D01*
X424748Y21829D01*
X424707Y21816D01*
X424634Y21762D01*
X424591Y21736D01*
X424578Y21720D01*
X424557Y21704D01*
X410835Y7983D01*
X103165Y7983D01*
G37*
%LPD*%
%LPC*%
G36*
X372107Y21890D02*
X372107Y21890D01*
X368980Y23186D01*
X366586Y25580D01*
X365587Y27992D01*
X365557Y28037D01*
X365537Y28087D01*
X365497Y28131D01*
X365466Y28181D01*
X365422Y28213D01*
X365386Y28253D01*
X365333Y28280D01*
X365286Y28315D01*
X365234Y28331D01*
X365186Y28356D01*
X365116Y28366D01*
X365071Y28379D01*
X365041Y28377D01*
X365001Y28383D01*
X167719Y28383D01*
X87983Y108119D01*
X87983Y133568D01*
X87974Y133621D01*
X87974Y133675D01*
X87954Y133731D01*
X87944Y133789D01*
X87916Y133835D01*
X87898Y133886D01*
X87859Y133931D01*
X87829Y133982D01*
X87787Y134016D01*
X87752Y134057D01*
X87691Y134094D01*
X87655Y134123D01*
X87626Y134133D01*
X87592Y134154D01*
X86418Y134640D01*
X84640Y136418D01*
X83677Y138742D01*
X83677Y141258D01*
X84640Y143582D01*
X86418Y145360D01*
X88742Y146323D01*
X91258Y146323D01*
X93582Y145360D01*
X95360Y143582D01*
X96323Y141258D01*
X96323Y138742D01*
X95360Y136418D01*
X93582Y134640D01*
X92408Y134154D01*
X92363Y134125D01*
X92313Y134104D01*
X92269Y134065D01*
X92219Y134033D01*
X92187Y133989D01*
X92147Y133953D01*
X92120Y133900D01*
X92085Y133853D01*
X92069Y133801D01*
X92044Y133753D01*
X92034Y133683D01*
X92021Y133638D01*
X92023Y133608D01*
X92017Y133568D01*
X92017Y110053D01*
X92024Y110011D01*
X92022Y109969D01*
X92044Y109902D01*
X92056Y109832D01*
X92078Y109796D01*
X92091Y109755D01*
X92145Y109682D01*
X92171Y109639D01*
X92187Y109626D01*
X92203Y109604D01*
X169204Y32603D01*
X169239Y32578D01*
X169268Y32547D01*
X169331Y32515D01*
X169389Y32474D01*
X169430Y32464D01*
X169468Y32444D01*
X169557Y32431D01*
X169606Y32418D01*
X169627Y32421D01*
X169653Y32417D01*
X365001Y32417D01*
X365054Y32426D01*
X365108Y32426D01*
X365164Y32446D01*
X365222Y32456D01*
X365268Y32484D01*
X365319Y32502D01*
X365364Y32541D01*
X365415Y32571D01*
X365449Y32613D01*
X365490Y32648D01*
X365527Y32709D01*
X365556Y32745D01*
X365566Y32774D01*
X365587Y32808D01*
X366586Y35220D01*
X368980Y37614D01*
X372107Y38910D01*
X375493Y38910D01*
X378620Y37614D01*
X381014Y35220D01*
X382310Y32093D01*
X382310Y28707D01*
X381014Y25580D01*
X378620Y23186D01*
X375493Y21890D01*
X372107Y21890D01*
G37*
%LPD*%
%LPC*%
G36*
X118742Y13677D02*
X118742Y13677D01*
X116418Y14640D01*
X114640Y16418D01*
X113677Y18742D01*
X113677Y21258D01*
X113749Y21431D01*
X113761Y21484D01*
X113782Y21534D01*
X113784Y21593D01*
X113797Y21650D01*
X113789Y21704D01*
X113792Y21758D01*
X113774Y21814D01*
X113765Y21872D01*
X113740Y21920D01*
X113723Y21971D01*
X113681Y22029D01*
X113659Y22070D01*
X113636Y22090D01*
X113612Y22122D01*
X98836Y36897D01*
X96883Y38850D01*
X96883Y59688D01*
X96876Y59730D01*
X96878Y59772D01*
X96856Y59839D01*
X96844Y59909D01*
X96822Y59945D01*
X96809Y59986D01*
X96755Y60058D01*
X96729Y60102D01*
X96713Y60115D01*
X96697Y60136D01*
X92086Y64748D01*
X92055Y64769D01*
X92037Y64789D01*
X92017Y64799D01*
X91984Y64830D01*
X91941Y64849D01*
X91902Y64876D01*
X91838Y64892D01*
X91778Y64918D01*
X91730Y64920D01*
X91685Y64932D01*
X91619Y64925D01*
X91553Y64928D01*
X91509Y64913D01*
X91462Y64908D01*
X91404Y64880D01*
X91403Y64880D01*
X91402Y64879D01*
X91340Y64859D01*
X91296Y64826D01*
X91260Y64809D01*
X91233Y64780D01*
X91229Y64777D01*
X91210Y64765D01*
X91204Y64758D01*
X91189Y64748D01*
X89582Y63140D01*
X87258Y62177D01*
X84742Y62177D01*
X82418Y63140D01*
X80640Y64918D01*
X79677Y67242D01*
X79677Y69758D01*
X79749Y69931D01*
X79761Y69984D01*
X79782Y70034D01*
X79784Y70093D01*
X79797Y70150D01*
X79789Y70204D01*
X79792Y70258D01*
X79774Y70314D01*
X79765Y70372D01*
X79740Y70420D01*
X79723Y70471D01*
X79681Y70529D01*
X79659Y70570D01*
X79636Y70590D01*
X79612Y70622D01*
X58936Y91297D01*
X56983Y93250D01*
X56983Y116888D01*
X56976Y116930D01*
X56978Y116972D01*
X56956Y117039D01*
X56944Y117109D01*
X56922Y117145D01*
X56909Y117186D01*
X56855Y117258D01*
X56829Y117302D01*
X56813Y117315D01*
X56797Y117336D01*
X46551Y127582D01*
X46507Y127613D01*
X46469Y127652D01*
X46416Y127677D01*
X46367Y127710D01*
X46315Y127724D01*
X46266Y127747D01*
X46207Y127752D01*
X46150Y127766D01*
X46096Y127761D01*
X46042Y127765D01*
X45973Y127748D01*
X45927Y127743D01*
X45899Y127730D01*
X45860Y127720D01*
X45758Y127677D01*
X43242Y127677D01*
X40918Y128640D01*
X39140Y130418D01*
X38177Y132742D01*
X38177Y135258D01*
X38249Y135431D01*
X38261Y135484D01*
X38282Y135534D01*
X38284Y135593D01*
X38297Y135650D01*
X38289Y135704D01*
X38292Y135758D01*
X38274Y135814D01*
X38265Y135872D01*
X38240Y135920D01*
X38223Y135971D01*
X38181Y136029D01*
X38159Y136070D01*
X38136Y136090D01*
X38112Y136122D01*
X22936Y151297D01*
X20983Y153250D01*
X20983Y181982D01*
X20974Y182035D01*
X20974Y182090D01*
X20954Y182145D01*
X20944Y182203D01*
X20916Y182250D01*
X20898Y182301D01*
X20859Y182345D01*
X20829Y182396D01*
X20787Y182430D01*
X20752Y182472D01*
X20691Y182508D01*
X20655Y182538D01*
X20626Y182547D01*
X20592Y182568D01*
X20418Y182640D01*
X18640Y184418D01*
X17677Y186742D01*
X17677Y189258D01*
X18640Y191582D01*
X20418Y193360D01*
X22742Y194323D01*
X25258Y194323D01*
X27582Y193360D01*
X29360Y191582D01*
X30323Y189258D01*
X30323Y186742D01*
X29360Y184418D01*
X27582Y182640D01*
X27408Y182568D01*
X27363Y182539D01*
X27313Y182518D01*
X27269Y182479D01*
X27219Y182447D01*
X27187Y182404D01*
X27147Y182367D01*
X27120Y182315D01*
X27085Y182268D01*
X27069Y182216D01*
X27044Y182167D01*
X27034Y182097D01*
X27021Y182053D01*
X27023Y182022D01*
X27017Y181982D01*
X27017Y156012D01*
X27024Y155970D01*
X27022Y155928D01*
X27044Y155861D01*
X27056Y155791D01*
X27078Y155755D01*
X27091Y155714D01*
X27145Y155642D01*
X27171Y155598D01*
X27187Y155585D01*
X27203Y155564D01*
X42378Y140388D01*
X42422Y140358D01*
X42460Y140319D01*
X42514Y140294D01*
X42562Y140260D01*
X42614Y140247D01*
X42664Y140224D01*
X42722Y140219D01*
X42779Y140204D01*
X42833Y140210D01*
X42887Y140206D01*
X42956Y140223D01*
X43002Y140228D01*
X43030Y140241D01*
X43069Y140251D01*
X43242Y140323D01*
X45758Y140323D01*
X48082Y139360D01*
X49860Y137582D01*
X50823Y135258D01*
X50823Y132742D01*
X50722Y132498D01*
X50710Y132445D01*
X50689Y132396D01*
X50686Y132337D01*
X50674Y132279D01*
X50681Y132226D01*
X50679Y132171D01*
X50697Y132115D01*
X50705Y132057D01*
X50731Y132009D01*
X50748Y131958D01*
X50790Y131901D01*
X50812Y131860D01*
X50835Y131840D01*
X50859Y131807D01*
X63017Y119650D01*
X63017Y96012D01*
X63024Y95970D01*
X63022Y95928D01*
X63044Y95861D01*
X63056Y95791D01*
X63078Y95755D01*
X63091Y95714D01*
X63126Y95667D01*
X63129Y95659D01*
X63143Y95644D01*
X63145Y95642D01*
X63171Y95598D01*
X63187Y95585D01*
X63203Y95564D01*
X83878Y74888D01*
X83922Y74858D01*
X83960Y74819D01*
X84014Y74794D01*
X84062Y74760D01*
X84114Y74747D01*
X84164Y74724D01*
X84222Y74719D01*
X84279Y74704D01*
X84333Y74710D01*
X84387Y74706D01*
X84456Y74723D01*
X84502Y74728D01*
X84530Y74741D01*
X84569Y74751D01*
X84742Y74823D01*
X87258Y74823D01*
X89582Y73860D01*
X91360Y72082D01*
X91432Y71908D01*
X91461Y71863D01*
X91482Y71813D01*
X91521Y71769D01*
X91553Y71719D01*
X91596Y71687D01*
X91633Y71647D01*
X91685Y71620D01*
X91732Y71585D01*
X91784Y71569D01*
X91833Y71544D01*
X91903Y71534D01*
X91947Y71521D01*
X91978Y71523D01*
X92018Y71517D01*
X93850Y71517D01*
X102917Y62450D01*
X102917Y41612D01*
X102924Y41570D01*
X102922Y41528D01*
X102944Y41461D01*
X102956Y41391D01*
X102978Y41355D01*
X102991Y41314D01*
X103045Y41242D01*
X103071Y41198D01*
X103087Y41185D01*
X103103Y41164D01*
X117878Y26388D01*
X117906Y26369D01*
X117914Y26360D01*
X117925Y26354D01*
X117960Y26319D01*
X118014Y26294D01*
X118062Y26260D01*
X118114Y26247D01*
X118164Y26224D01*
X118222Y26219D01*
X118279Y26204D01*
X118333Y26210D01*
X118387Y26206D01*
X118456Y26223D01*
X118502Y26228D01*
X118530Y26241D01*
X118569Y26251D01*
X118742Y26323D01*
X121258Y26323D01*
X123582Y25360D01*
X125360Y23582D01*
X126323Y21258D01*
X126323Y18742D01*
X125360Y16418D01*
X123582Y14640D01*
X121258Y13677D01*
X118742Y13677D01*
G37*
%LPD*%
%LPC*%
G36*
X56742Y197177D02*
X56742Y197177D01*
X54418Y198140D01*
X52640Y199918D01*
X51677Y202242D01*
X51677Y204758D01*
X52640Y207082D01*
X54418Y208860D01*
X56742Y209823D01*
X59258Y209823D01*
X61582Y208860D01*
X63360Y207082D01*
X63846Y205908D01*
X63875Y205863D01*
X63896Y205813D01*
X63935Y205769D01*
X63967Y205719D01*
X64011Y205687D01*
X64047Y205647D01*
X64100Y205620D01*
X64147Y205585D01*
X64199Y205569D01*
X64247Y205544D01*
X64317Y205534D01*
X64362Y205521D01*
X64392Y205523D01*
X64432Y205517D01*
X71270Y205517D01*
X71346Y205530D01*
X71424Y205536D01*
X71456Y205550D01*
X71491Y205556D01*
X71558Y205596D01*
X71628Y205628D01*
X71654Y205653D01*
X71684Y205671D01*
X71733Y205731D01*
X71788Y205785D01*
X71803Y205817D01*
X71825Y205845D01*
X71850Y205918D01*
X71883Y205988D01*
X71886Y206024D01*
X71897Y206057D01*
X71895Y206135D01*
X71901Y206212D01*
X71892Y206251D01*
X71891Y206282D01*
X71877Y206315D01*
X71877Y208858D01*
X72840Y211182D01*
X74618Y212960D01*
X76942Y213923D01*
X79458Y213923D01*
X80631Y213437D01*
X80684Y213425D01*
X80734Y213404D01*
X80793Y213401D01*
X80850Y213389D01*
X80904Y213396D01*
X80958Y213394D01*
X81014Y213412D01*
X81072Y213420D01*
X81120Y213446D01*
X81171Y213463D01*
X81229Y213505D01*
X81270Y213527D01*
X81290Y213550D01*
X81322Y213574D01*
X84898Y217150D01*
X86265Y218517D01*
X113568Y218517D01*
X113621Y218526D01*
X113675Y218526D01*
X113731Y218546D01*
X113789Y218556D01*
X113835Y218584D01*
X113886Y218602D01*
X113931Y218641D01*
X113982Y218671D01*
X114016Y218713D01*
X114057Y218748D01*
X114094Y218809D01*
X114123Y218845D01*
X114133Y218874D01*
X114154Y218908D01*
X114640Y220082D01*
X116059Y221501D01*
X116110Y221574D01*
X116166Y221643D01*
X116173Y221665D01*
X116187Y221685D01*
X116209Y221771D01*
X116238Y221855D01*
X116237Y221879D01*
X116243Y221902D01*
X116234Y221991D01*
X116231Y222080D01*
X116222Y222102D01*
X116220Y222125D01*
X116180Y222205D01*
X116147Y222287D01*
X116131Y222305D01*
X116120Y222326D01*
X116055Y222387D01*
X115995Y222453D01*
X115974Y222464D01*
X115957Y222480D01*
X115875Y222515D01*
X115796Y222556D01*
X115770Y222559D01*
X115750Y222568D01*
X115700Y222570D01*
X115610Y222583D01*
X84632Y222583D01*
X84579Y222574D01*
X84525Y222574D01*
X84469Y222554D01*
X84411Y222544D01*
X84365Y222516D01*
X84314Y222498D01*
X84269Y222459D01*
X84218Y222429D01*
X84184Y222387D01*
X84143Y222352D01*
X84106Y222291D01*
X84077Y222255D01*
X84067Y222226D01*
X84046Y222192D01*
X83560Y221018D01*
X81782Y219240D01*
X79458Y218277D01*
X76942Y218277D01*
X74618Y219240D01*
X72840Y221018D01*
X71877Y223342D01*
X71877Y225858D01*
X72840Y228182D01*
X74618Y229960D01*
X76942Y230923D01*
X79458Y230923D01*
X81782Y229960D01*
X83560Y228182D01*
X84046Y227008D01*
X84075Y226964D01*
X84081Y226949D01*
X84081Y226948D01*
X84096Y226913D01*
X84135Y226869D01*
X84167Y226819D01*
X84211Y226787D01*
X84247Y226747D01*
X84300Y226720D01*
X84347Y226685D01*
X84399Y226669D01*
X84447Y226644D01*
X84517Y226634D01*
X84562Y226621D01*
X84592Y226623D01*
X84632Y226617D01*
X162370Y226617D01*
X162401Y226622D01*
X162431Y226620D01*
X162546Y226648D01*
X162591Y226656D01*
X162600Y226662D01*
X162613Y226665D01*
X164442Y227423D01*
X166958Y227423D01*
X169282Y226460D01*
X171060Y224682D01*
X172023Y222358D01*
X172023Y219842D01*
X171060Y217518D01*
X169282Y215740D01*
X166958Y214777D01*
X164442Y214777D01*
X162118Y215740D01*
X160340Y217518D01*
X159377Y219842D01*
X159377Y221949D01*
X159366Y222014D01*
X159364Y222080D01*
X159346Y222123D01*
X159338Y222170D01*
X159304Y222227D01*
X159279Y222287D01*
X159248Y222322D01*
X159223Y222363D01*
X159172Y222405D01*
X159128Y222453D01*
X159086Y222475D01*
X159049Y222504D01*
X158987Y222525D01*
X158928Y222556D01*
X158874Y222564D01*
X158837Y222576D01*
X158797Y222575D01*
X158743Y222583D01*
X124390Y222583D01*
X124302Y222568D01*
X124213Y222558D01*
X124192Y222548D01*
X124169Y222544D01*
X124092Y222498D01*
X124012Y222459D01*
X123996Y222442D01*
X123976Y222429D01*
X123919Y222360D01*
X123858Y222296D01*
X123849Y222274D01*
X123834Y222255D01*
X123806Y222171D01*
X123771Y222089D01*
X123770Y222065D01*
X123762Y222043D01*
X123765Y221954D01*
X123761Y221865D01*
X123768Y221842D01*
X123769Y221818D01*
X123802Y221736D01*
X123830Y221651D01*
X123845Y221630D01*
X123853Y221611D01*
X123887Y221573D01*
X123941Y221501D01*
X125360Y220082D01*
X126323Y217758D01*
X126323Y215242D01*
X125360Y212918D01*
X123582Y211140D01*
X121258Y210177D01*
X118742Y210177D01*
X116418Y211140D01*
X114640Y212918D01*
X114154Y214092D01*
X114125Y214137D01*
X114104Y214187D01*
X114065Y214231D01*
X114033Y214281D01*
X113989Y214313D01*
X113953Y214353D01*
X113900Y214380D01*
X113853Y214415D01*
X113801Y214431D01*
X113753Y214456D01*
X113683Y214466D01*
X113638Y214479D01*
X113608Y214477D01*
X113568Y214483D01*
X88198Y214483D01*
X88156Y214476D01*
X88114Y214478D01*
X88047Y214456D01*
X87977Y214444D01*
X87941Y214422D01*
X87900Y214409D01*
X87827Y214355D01*
X87784Y214329D01*
X87771Y214313D01*
X87750Y214298D01*
X84174Y210722D01*
X84143Y210678D01*
X84105Y210640D01*
X84080Y210586D01*
X84046Y210538D01*
X84033Y210486D01*
X84010Y210436D01*
X84005Y210378D01*
X83990Y210321D01*
X83996Y210267D01*
X83991Y210213D01*
X84009Y210144D01*
X84013Y210098D01*
X84027Y210070D01*
X84037Y210031D01*
X84523Y208858D01*
X84523Y206342D01*
X83560Y204018D01*
X81782Y202240D01*
X79458Y201277D01*
X76942Y201277D01*
X75769Y201763D01*
X75716Y201775D01*
X75666Y201796D01*
X75607Y201799D01*
X75550Y201811D01*
X75496Y201804D01*
X75442Y201806D01*
X75386Y201788D01*
X75328Y201780D01*
X75280Y201754D01*
X75228Y201737D01*
X75171Y201695D01*
X75130Y201673D01*
X75110Y201650D01*
X75078Y201626D01*
X74935Y201483D01*
X64432Y201483D01*
X64379Y201474D01*
X64325Y201474D01*
X64269Y201454D01*
X64211Y201444D01*
X64165Y201416D01*
X64114Y201398D01*
X64069Y201359D01*
X64018Y201329D01*
X63984Y201287D01*
X63943Y201252D01*
X63906Y201191D01*
X63877Y201155D01*
X63867Y201126D01*
X63846Y201092D01*
X63360Y199918D01*
X61582Y198140D01*
X59258Y197177D01*
X56742Y197177D01*
G37*
%LPD*%
%LPC*%
G36*
X26519Y252499D02*
X26519Y252499D01*
X20087Y255164D01*
X15164Y260087D01*
X12499Y266519D01*
X12499Y273481D01*
X15164Y279913D01*
X20087Y284836D01*
X26519Y287501D01*
X33481Y287501D01*
X39913Y284836D01*
X44836Y279913D01*
X47501Y273481D01*
X47501Y266519D01*
X44836Y260087D01*
X39913Y255164D01*
X33481Y252499D01*
X26519Y252499D01*
G37*
%LPD*%
%LPC*%
G36*
X26519Y12499D02*
X26519Y12499D01*
X20087Y15164D01*
X15164Y20087D01*
X12499Y26519D01*
X12499Y33481D01*
X15164Y39913D01*
X20087Y44836D01*
X26519Y47501D01*
X33481Y47501D01*
X39913Y44836D01*
X44836Y39913D01*
X47501Y33481D01*
X47501Y26519D01*
X44836Y20087D01*
X39913Y15164D01*
X33481Y12499D01*
X26519Y12499D01*
G37*
%LPD*%
%LPC*%
G36*
X506519Y12499D02*
X506519Y12499D01*
X500087Y15164D01*
X495164Y20087D01*
X492499Y26519D01*
X492499Y33481D01*
X495164Y39913D01*
X500087Y44836D01*
X506519Y47501D01*
X513481Y47501D01*
X519913Y44836D01*
X524836Y39913D01*
X527501Y33481D01*
X527501Y26519D01*
X524836Y20087D01*
X519913Y15164D01*
X513481Y12499D01*
X506519Y12499D01*
G37*
%LPD*%
%LPC*%
G36*
X442547Y144727D02*
X442547Y144727D01*
X440499Y145576D01*
X438932Y147143D01*
X438083Y149191D01*
X438083Y151408D01*
X438393Y152157D01*
X438405Y152210D01*
X438426Y152260D01*
X438429Y152319D01*
X438441Y152376D01*
X438434Y152430D01*
X438436Y152484D01*
X438418Y152540D01*
X438410Y152598D01*
X438384Y152646D01*
X438367Y152697D01*
X438325Y152755D01*
X438303Y152796D01*
X438280Y152816D01*
X438256Y152848D01*
X428306Y162797D01*
X428272Y162822D01*
X428243Y162853D01*
X428180Y162885D01*
X428122Y162926D01*
X428081Y162936D01*
X428043Y162956D01*
X427954Y162969D01*
X427905Y162982D01*
X427884Y162979D01*
X427858Y162983D01*
X396065Y162983D01*
X394697Y164350D01*
X322448Y236600D01*
X322404Y236631D01*
X322366Y236669D01*
X322312Y236694D01*
X322264Y236728D01*
X322211Y236741D01*
X322162Y236764D01*
X322104Y236769D01*
X322047Y236784D01*
X321993Y236778D01*
X321939Y236783D01*
X321870Y236765D01*
X321823Y236761D01*
X321796Y236747D01*
X321757Y236737D01*
X321008Y236427D01*
X318791Y236427D01*
X316730Y237281D01*
X316724Y237285D01*
X316706Y237305D01*
X316673Y237322D01*
X316613Y237370D01*
X316591Y237378D01*
X316571Y237392D01*
X316485Y237414D01*
X316401Y237442D01*
X316377Y237442D01*
X316354Y237448D01*
X316265Y237438D01*
X316176Y237436D01*
X316155Y237427D01*
X316131Y237424D01*
X316051Y237385D01*
X315969Y237351D01*
X315951Y237335D01*
X315930Y237325D01*
X315869Y237260D01*
X315803Y237200D01*
X315792Y237179D01*
X315776Y237162D01*
X315754Y237110D01*
X315752Y237107D01*
X315747Y237093D01*
X315741Y237080D01*
X315700Y237000D01*
X315697Y236974D01*
X315688Y236955D01*
X315687Y236915D01*
X315680Y236895D01*
X315681Y236867D01*
X315673Y236815D01*
X315673Y236791D01*
X314824Y234743D01*
X313257Y233176D01*
X311209Y232327D01*
X308991Y232327D01*
X306943Y233176D01*
X305376Y234743D01*
X304527Y236791D01*
X304527Y239009D01*
X305376Y241057D01*
X306943Y242624D01*
X308991Y243473D01*
X311209Y243473D01*
X313270Y242619D01*
X313318Y242586D01*
X313387Y242530D01*
X313409Y242522D01*
X313429Y242508D01*
X313515Y242486D01*
X313599Y242458D01*
X313623Y242458D01*
X313646Y242452D01*
X313735Y242462D01*
X313824Y242464D01*
X313845Y242473D01*
X313869Y242476D01*
X313949Y242515D01*
X314031Y242549D01*
X314049Y242565D01*
X314070Y242575D01*
X314131Y242640D01*
X314197Y242700D01*
X314208Y242721D01*
X314224Y242738D01*
X314259Y242820D01*
X314300Y242900D01*
X314303Y242926D01*
X314312Y242945D01*
X314314Y242995D01*
X314327Y243085D01*
X314327Y243109D01*
X315176Y245157D01*
X316743Y246724D01*
X318791Y247573D01*
X321009Y247573D01*
X323057Y246724D01*
X324624Y245157D01*
X325473Y243109D01*
X325473Y240892D01*
X325163Y240143D01*
X325151Y240090D01*
X325130Y240040D01*
X325127Y239981D01*
X325115Y239924D01*
X325122Y239870D01*
X325120Y239816D01*
X325138Y239760D01*
X325146Y239702D01*
X325172Y239654D01*
X325189Y239603D01*
X325231Y239545D01*
X325253Y239504D01*
X325276Y239484D01*
X325300Y239452D01*
X397550Y167203D01*
X397580Y167181D01*
X397596Y167164D01*
X397599Y167162D01*
X397613Y167147D01*
X397676Y167115D01*
X397734Y167074D01*
X397775Y167064D01*
X397813Y167044D01*
X397902Y167031D01*
X397951Y167018D01*
X397972Y167021D01*
X397998Y167017D01*
X429791Y167017D01*
X431159Y165650D01*
X441108Y155700D01*
X441152Y155669D01*
X441190Y155631D01*
X441244Y155606D01*
X441292Y155572D01*
X441345Y155559D01*
X441394Y155536D01*
X441452Y155531D01*
X441509Y155516D01*
X441563Y155522D01*
X441617Y155517D01*
X441686Y155535D01*
X441733Y155539D01*
X441760Y155553D01*
X441799Y155563D01*
X442548Y155873D01*
X444765Y155873D01*
X446813Y155024D01*
X448380Y153457D01*
X449229Y151409D01*
X449229Y149191D01*
X448380Y147143D01*
X446813Y145576D01*
X444765Y144727D01*
X442547Y144727D01*
G37*
%LPD*%
%LPC*%
G36*
X448307Y47290D02*
X448307Y47290D01*
X445180Y48586D01*
X442786Y50980D01*
X441490Y54107D01*
X441490Y57493D01*
X442786Y60620D01*
X445180Y63014D01*
X448307Y64310D01*
X451693Y64310D01*
X454105Y63311D01*
X454158Y63299D01*
X454208Y63278D01*
X454266Y63275D01*
X454324Y63263D01*
X454378Y63270D01*
X454432Y63268D01*
X454488Y63286D01*
X454546Y63294D01*
X454594Y63320D01*
X454645Y63337D01*
X454702Y63379D01*
X454743Y63401D01*
X454764Y63424D01*
X454796Y63448D01*
X470797Y79450D01*
X470822Y79484D01*
X470853Y79513D01*
X470885Y79576D01*
X470926Y79634D01*
X470936Y79675D01*
X470956Y79713D01*
X470969Y79802D01*
X470982Y79851D01*
X470979Y79872D01*
X470983Y79898D01*
X470983Y146568D01*
X470974Y146621D01*
X470974Y146675D01*
X470954Y146731D01*
X470944Y146789D01*
X470916Y146835D01*
X470898Y146886D01*
X470859Y146931D01*
X470829Y146982D01*
X470787Y147016D01*
X470752Y147057D01*
X470691Y147094D01*
X470655Y147123D01*
X470626Y147133D01*
X470592Y147154D01*
X469418Y147640D01*
X467640Y149418D01*
X466677Y151742D01*
X466677Y154258D01*
X467640Y156582D01*
X469418Y158360D01*
X471742Y159323D01*
X474258Y159323D01*
X476582Y158360D01*
X478360Y156582D01*
X479323Y154258D01*
X479323Y151742D01*
X478360Y149418D01*
X476582Y147640D01*
X475408Y147154D01*
X475363Y147125D01*
X475313Y147104D01*
X475269Y147065D01*
X475219Y147033D01*
X475187Y146989D01*
X475147Y146953D01*
X475120Y146900D01*
X475085Y146853D01*
X475069Y146801D01*
X475044Y146753D01*
X475034Y146683D01*
X475021Y146638D01*
X475023Y146608D01*
X475017Y146568D01*
X475017Y77965D01*
X457648Y60596D01*
X457617Y60552D01*
X457579Y60514D01*
X457554Y60460D01*
X457520Y60412D01*
X457507Y60359D01*
X457484Y60310D01*
X457479Y60252D01*
X457464Y60195D01*
X457470Y60141D01*
X457465Y60087D01*
X457482Y60018D01*
X457487Y59971D01*
X457501Y59944D01*
X457511Y59905D01*
X458510Y57493D01*
X458510Y54107D01*
X457214Y50980D01*
X454820Y48586D01*
X451693Y47290D01*
X448307Y47290D01*
G37*
%LPD*%
%LPC*%
G36*
X256399Y276127D02*
X256399Y276127D01*
X254351Y276976D01*
X252784Y278543D01*
X251935Y280591D01*
X251935Y281093D01*
X251924Y281158D01*
X251922Y281224D01*
X251904Y281267D01*
X251896Y281314D01*
X251862Y281371D01*
X251837Y281431D01*
X251806Y281466D01*
X251781Y281507D01*
X251730Y281549D01*
X251686Y281597D01*
X251644Y281619D01*
X251607Y281648D01*
X251545Y281669D01*
X251486Y281700D01*
X251432Y281708D01*
X251395Y281720D01*
X251355Y281719D01*
X251301Y281727D01*
X249491Y281727D01*
X247443Y282576D01*
X245876Y284143D01*
X245703Y284560D01*
X245661Y284625D01*
X245627Y284695D01*
X245601Y284719D01*
X245582Y284749D01*
X245520Y284795D01*
X245464Y284848D01*
X245431Y284862D01*
X245403Y284884D01*
X245328Y284906D01*
X245257Y284936D01*
X245222Y284937D01*
X245188Y284948D01*
X245110Y284942D01*
X245033Y284946D01*
X244999Y284935D01*
X244964Y284933D01*
X244893Y284901D01*
X244819Y284877D01*
X244787Y284853D01*
X244759Y284841D01*
X244726Y284808D01*
X244669Y284766D01*
X243153Y283250D01*
X241105Y282401D01*
X238887Y282401D01*
X236839Y283250D01*
X235272Y284817D01*
X234423Y286866D01*
X234423Y289083D01*
X235272Y291131D01*
X236839Y292698D01*
X238887Y293547D01*
X241105Y293547D01*
X243153Y292698D01*
X244720Y291131D01*
X244893Y290714D01*
X244935Y290649D01*
X244969Y290580D01*
X244995Y290555D01*
X245014Y290525D01*
X245076Y290479D01*
X245132Y290426D01*
X245165Y290412D01*
X245193Y290390D01*
X245268Y290368D01*
X245339Y290338D01*
X245374Y290337D01*
X245408Y290327D01*
X245486Y290332D01*
X245563Y290328D01*
X245597Y290339D01*
X245632Y290341D01*
X245703Y290373D01*
X245777Y290397D01*
X245809Y290421D01*
X245837Y290433D01*
X245870Y290466D01*
X245927Y290508D01*
X247443Y292024D01*
X249491Y292873D01*
X251709Y292873D01*
X253757Y292024D01*
X255324Y290457D01*
X256173Y288409D01*
X256173Y287907D01*
X256184Y287842D01*
X256186Y287776D01*
X256204Y287733D01*
X256212Y287686D01*
X256246Y287629D01*
X256271Y287569D01*
X256302Y287534D01*
X256327Y287493D01*
X256378Y287451D01*
X256422Y287403D01*
X256464Y287381D01*
X256501Y287352D01*
X256563Y287331D01*
X256622Y287300D01*
X256676Y287292D01*
X256713Y287280D01*
X256753Y287281D01*
X256807Y287273D01*
X258616Y287273D01*
X258857Y287173D01*
X258933Y287156D01*
X259006Y287132D01*
X259042Y287133D01*
X259076Y287125D01*
X259153Y287136D01*
X259231Y287138D01*
X259263Y287152D01*
X259299Y287157D01*
X259367Y287194D01*
X259438Y287223D01*
X259465Y287247D01*
X259496Y287263D01*
X259547Y287322D01*
X259604Y287374D01*
X259620Y287406D01*
X259644Y287432D01*
X259671Y287505D01*
X259707Y287574D01*
X259713Y287613D01*
X259723Y287642D01*
X259724Y287689D01*
X259734Y287759D01*
X259734Y288109D01*
X260583Y290157D01*
X262150Y291724D01*
X264198Y292573D01*
X266416Y292573D01*
X268464Y291724D01*
X270031Y290157D01*
X270047Y290118D01*
X270083Y290063D01*
X270110Y290003D01*
X270143Y289969D01*
X270169Y289929D01*
X270221Y289890D01*
X270267Y289843D01*
X270310Y289823D01*
X270348Y289794D01*
X270411Y289776D01*
X270471Y289748D01*
X270518Y289744D01*
X270563Y289730D01*
X270629Y289735D01*
X270694Y289729D01*
X270747Y289743D01*
X270787Y289745D01*
X270823Y289761D01*
X270876Y289775D01*
X272802Y290573D01*
X275020Y290573D01*
X277068Y289724D01*
X278657Y288135D01*
X278711Y288097D01*
X278759Y288052D01*
X278802Y288034D01*
X278841Y288007D01*
X278905Y287991D01*
X278966Y287965D01*
X279013Y287963D01*
X279058Y287951D01*
X279124Y287958D01*
X279190Y287955D01*
X279235Y287969D01*
X279282Y287974D01*
X279341Y288003D01*
X279403Y288023D01*
X279447Y288056D01*
X279483Y288074D01*
X279510Y288102D01*
X279554Y288135D01*
X279943Y288524D01*
X281991Y289373D01*
X284209Y289373D01*
X286257Y288524D01*
X287824Y286957D01*
X288673Y284909D01*
X288673Y282691D01*
X287824Y280643D01*
X286257Y279076D01*
X284209Y278227D01*
X281991Y278227D01*
X279943Y279076D01*
X278354Y280665D01*
X278300Y280703D01*
X278252Y280748D01*
X278209Y280766D01*
X278170Y280793D01*
X278106Y280809D01*
X278045Y280835D01*
X277998Y280837D01*
X277952Y280849D01*
X277887Y280842D01*
X277821Y280845D01*
X277776Y280831D01*
X277729Y280826D01*
X277670Y280797D01*
X277608Y280776D01*
X277564Y280744D01*
X277528Y280726D01*
X277501Y280698D01*
X277457Y280665D01*
X277068Y280276D01*
X275020Y279427D01*
X272802Y279427D01*
X270754Y280276D01*
X269187Y281843D01*
X269171Y281882D01*
X269135Y281937D01*
X269108Y281997D01*
X269075Y282031D01*
X269049Y282071D01*
X268997Y282110D01*
X268951Y282157D01*
X268908Y282177D01*
X268870Y282206D01*
X268807Y282224D01*
X268747Y282252D01*
X268700Y282256D01*
X268655Y282270D01*
X268589Y282265D01*
X268524Y282271D01*
X268471Y282257D01*
X268431Y282255D01*
X268395Y282239D01*
X268342Y282225D01*
X266416Y281427D01*
X264199Y281427D01*
X263958Y281527D01*
X263882Y281544D01*
X263809Y281568D01*
X263773Y281567D01*
X263739Y281575D01*
X263662Y281564D01*
X263584Y281562D01*
X263552Y281548D01*
X263516Y281543D01*
X263448Y281506D01*
X263377Y281477D01*
X263350Y281453D01*
X263319Y281437D01*
X263268Y281378D01*
X263211Y281326D01*
X263195Y281294D01*
X263171Y281268D01*
X263144Y281195D01*
X263108Y281126D01*
X263102Y281087D01*
X263092Y281058D01*
X263091Y281011D01*
X263081Y280941D01*
X263081Y280591D01*
X262232Y278543D01*
X260665Y276976D01*
X258617Y276127D01*
X256399Y276127D01*
G37*
%LPD*%
%LPC*%
G36*
X474342Y182077D02*
X474342Y182077D01*
X472018Y183040D01*
X470240Y184818D01*
X469277Y187142D01*
X469277Y189658D01*
X470240Y191982D01*
X472018Y193760D01*
X473192Y194246D01*
X473237Y194275D01*
X473287Y194296D01*
X473331Y194335D01*
X473381Y194367D01*
X473413Y194411D01*
X473453Y194447D01*
X473480Y194500D01*
X473515Y194547D01*
X473531Y194599D01*
X473556Y194647D01*
X473566Y194717D01*
X473579Y194762D01*
X473577Y194792D01*
X473583Y194832D01*
X473583Y200602D01*
X473576Y200644D01*
X473578Y200686D01*
X473556Y200753D01*
X473544Y200823D01*
X473522Y200859D01*
X473509Y200900D01*
X473455Y200972D01*
X473429Y201016D01*
X473413Y201029D01*
X473397Y201050D01*
X453150Y221297D01*
X453116Y221322D01*
X453087Y221353D01*
X453024Y221385D01*
X452966Y221426D01*
X452925Y221436D01*
X452887Y221456D01*
X452798Y221469D01*
X452749Y221482D01*
X452728Y221479D01*
X452702Y221483D01*
X430382Y221483D01*
X430329Y221474D01*
X430275Y221474D01*
X430219Y221454D01*
X430161Y221444D01*
X430115Y221416D01*
X430064Y221398D01*
X430019Y221359D01*
X429968Y221329D01*
X429934Y221287D01*
X429893Y221252D01*
X429856Y221191D01*
X429827Y221155D01*
X429817Y221126D01*
X429796Y221092D01*
X429310Y219918D01*
X427532Y218140D01*
X425208Y217177D01*
X422692Y217177D01*
X420368Y218140D01*
X418590Y219918D01*
X417627Y222242D01*
X417627Y224758D01*
X418590Y227082D01*
X420368Y228860D01*
X422692Y229823D01*
X425208Y229823D01*
X427532Y228860D01*
X429310Y227082D01*
X429796Y225908D01*
X429825Y225863D01*
X429846Y225813D01*
X429885Y225769D01*
X429917Y225719D01*
X429961Y225687D01*
X429997Y225647D01*
X430050Y225620D01*
X430097Y225585D01*
X430149Y225569D01*
X430197Y225544D01*
X430267Y225534D01*
X430312Y225521D01*
X430342Y225523D01*
X430382Y225517D01*
X454635Y225517D01*
X477617Y202535D01*
X477617Y194832D01*
X477626Y194779D01*
X477626Y194725D01*
X477646Y194669D01*
X477656Y194611D01*
X477684Y194565D01*
X477702Y194514D01*
X477741Y194469D01*
X477771Y194418D01*
X477813Y194384D01*
X477848Y194343D01*
X477909Y194306D01*
X477945Y194277D01*
X477974Y194267D01*
X478008Y194246D01*
X479182Y193760D01*
X480960Y191982D01*
X481923Y189658D01*
X481923Y187142D01*
X480960Y184818D01*
X479182Y183040D01*
X476858Y182077D01*
X474342Y182077D01*
G37*
%LPD*%
%LPC*%
G36*
X513407Y261790D02*
X513407Y261790D01*
X510280Y263086D01*
X507886Y265480D01*
X506590Y268607D01*
X506590Y271993D01*
X507886Y275120D01*
X510280Y277514D01*
X513407Y278810D01*
X516793Y278810D01*
X519920Y277514D01*
X522314Y275120D01*
X523610Y271993D01*
X523610Y268607D01*
X522314Y265480D01*
X519920Y263086D01*
X516793Y261790D01*
X513407Y261790D01*
G37*
%LPD*%
%LPC*%
G36*
X448307Y21890D02*
X448307Y21890D01*
X445180Y23186D01*
X442786Y25580D01*
X441490Y28707D01*
X441490Y32093D01*
X442786Y35220D01*
X445180Y37614D01*
X448307Y38910D01*
X451693Y38910D01*
X454820Y37614D01*
X457214Y35220D01*
X458510Y32093D01*
X458510Y28707D01*
X457214Y25580D01*
X454820Y23186D01*
X451693Y21890D01*
X448307Y21890D01*
G37*
%LPD*%
%LPC*%
G36*
X513407Y236390D02*
X513407Y236390D01*
X510280Y237686D01*
X507886Y240080D01*
X506590Y243207D01*
X506590Y246593D01*
X507886Y249720D01*
X510280Y252114D01*
X513407Y253410D01*
X516793Y253410D01*
X519920Y252114D01*
X522314Y249720D01*
X523610Y246593D01*
X523610Y243207D01*
X522314Y240080D01*
X519920Y237686D01*
X516793Y236390D01*
X513407Y236390D01*
G37*
%LPD*%
%LPC*%
G36*
X513407Y210990D02*
X513407Y210990D01*
X510280Y212286D01*
X507886Y214680D01*
X506590Y217807D01*
X506590Y221193D01*
X507886Y224320D01*
X510280Y226714D01*
X513407Y228010D01*
X516793Y228010D01*
X519920Y226714D01*
X522314Y224320D01*
X523610Y221193D01*
X523610Y217807D01*
X522314Y214680D01*
X519920Y212286D01*
X516793Y210990D01*
X513407Y210990D01*
G37*
%LPD*%
%LPC*%
G36*
X397507Y21890D02*
X397507Y21890D01*
X394380Y23186D01*
X391986Y25580D01*
X390690Y28707D01*
X390690Y32093D01*
X391986Y35220D01*
X394380Y37614D01*
X397507Y38910D01*
X400893Y38910D01*
X404020Y37614D01*
X406414Y35220D01*
X407710Y32093D01*
X407710Y28707D01*
X406414Y25580D01*
X404020Y23186D01*
X400893Y21890D01*
X397507Y21890D01*
G37*
%LPD*%
%LPC*%
G36*
X422907Y47290D02*
X422907Y47290D01*
X419780Y48586D01*
X417386Y50980D01*
X416090Y54107D01*
X416090Y57493D01*
X417386Y60620D01*
X419780Y63014D01*
X422907Y64310D01*
X426293Y64310D01*
X429420Y63014D01*
X431814Y60620D01*
X433110Y57493D01*
X433110Y54107D01*
X431814Y50980D01*
X429420Y48586D01*
X426293Y47290D01*
X422907Y47290D01*
G37*
%LPD*%
%LPC*%
G36*
X397507Y47290D02*
X397507Y47290D01*
X394380Y48586D01*
X391986Y50980D01*
X390690Y54107D01*
X390690Y57493D01*
X391986Y60620D01*
X394380Y63014D01*
X397507Y64310D01*
X400893Y64310D01*
X404020Y63014D01*
X406414Y60620D01*
X407710Y57493D01*
X407710Y54107D01*
X406414Y50980D01*
X404020Y48586D01*
X400893Y47290D01*
X397507Y47290D01*
G37*
%LPD*%
%LPC*%
G36*
X372107Y47290D02*
X372107Y47290D01*
X368980Y48586D01*
X366586Y50980D01*
X365290Y54107D01*
X365290Y57493D01*
X366586Y60620D01*
X368980Y63014D01*
X372107Y64310D01*
X375493Y64310D01*
X378620Y63014D01*
X381014Y60620D01*
X382310Y57493D01*
X382310Y54107D01*
X381014Y50980D01*
X378620Y48586D01*
X375493Y47290D01*
X372107Y47290D01*
G37*
%LPD*%
%LPC*%
G36*
X275687Y227127D02*
X275687Y227127D01*
X273639Y227976D01*
X272072Y229543D01*
X271223Y231591D01*
X271223Y233809D01*
X272072Y235857D01*
X273639Y237424D01*
X275687Y238273D01*
X276893Y238273D01*
X276958Y238284D01*
X277024Y238286D01*
X277067Y238304D01*
X277114Y238312D01*
X277171Y238346D01*
X277231Y238371D01*
X277266Y238402D01*
X277307Y238427D01*
X277349Y238478D01*
X277397Y238522D01*
X277419Y238564D01*
X277448Y238601D01*
X277469Y238663D01*
X277500Y238722D01*
X277508Y238776D01*
X277520Y238813D01*
X277519Y238853D01*
X277527Y238907D01*
X277527Y240709D01*
X278376Y242757D01*
X279943Y244324D01*
X281991Y245173D01*
X284209Y245173D01*
X286257Y244324D01*
X287824Y242757D01*
X288673Y240709D01*
X288673Y238491D01*
X287824Y236443D01*
X286257Y234876D01*
X284209Y234027D01*
X283003Y234027D01*
X282938Y234016D01*
X282872Y234014D01*
X282829Y233996D01*
X282782Y233988D01*
X282725Y233954D01*
X282665Y233929D01*
X282630Y233898D01*
X282589Y233873D01*
X282547Y233822D01*
X282499Y233778D01*
X282477Y233736D01*
X282448Y233699D01*
X282427Y233637D01*
X282396Y233578D01*
X282388Y233524D01*
X282376Y233487D01*
X282377Y233447D01*
X282369Y233393D01*
X282369Y231591D01*
X281520Y229543D01*
X279953Y227976D01*
X277905Y227127D01*
X275687Y227127D01*
G37*
%LPD*%
%LPC*%
G36*
X256491Y67727D02*
X256491Y67727D01*
X254443Y68576D01*
X252876Y70143D01*
X252027Y72191D01*
X252027Y74409D01*
X252876Y76457D01*
X254443Y78024D01*
X254574Y78079D01*
X254629Y78114D01*
X254690Y78141D01*
X254723Y78174D01*
X254763Y78200D01*
X254803Y78252D01*
X254849Y78298D01*
X254869Y78341D01*
X254898Y78379D01*
X254917Y78442D01*
X254944Y78502D01*
X254948Y78549D01*
X254962Y78594D01*
X254957Y78660D01*
X254963Y78725D01*
X254949Y78779D01*
X254947Y78818D01*
X254931Y78854D01*
X254917Y78907D01*
X254222Y80586D01*
X254222Y82803D01*
X255070Y84851D01*
X256638Y86419D01*
X258686Y87267D01*
X260903Y87267D01*
X262951Y86419D01*
X264519Y84851D01*
X265367Y82803D01*
X265367Y80586D01*
X264519Y78538D01*
X262951Y76970D01*
X262821Y76916D01*
X262765Y76881D01*
X262705Y76854D01*
X262674Y76823D01*
X262663Y76816D01*
X262660Y76813D01*
X262632Y76795D01*
X262592Y76742D01*
X262545Y76696D01*
X262525Y76653D01*
X262497Y76616D01*
X262478Y76553D01*
X262450Y76493D01*
X262446Y76446D01*
X262433Y76401D01*
X262437Y76335D01*
X262432Y76269D01*
X262445Y76216D01*
X262448Y76177D01*
X262464Y76141D01*
X262477Y76087D01*
X263173Y74409D01*
X263173Y72191D01*
X262324Y70143D01*
X260757Y68576D01*
X258709Y67727D01*
X256491Y67727D01*
G37*
%LPD*%
%LPC*%
G36*
X253626Y107323D02*
X253626Y107323D01*
X251578Y108172D01*
X250010Y109739D01*
X249162Y111787D01*
X249162Y114005D01*
X250010Y116053D01*
X250590Y116632D01*
X250627Y116686D01*
X250673Y116734D01*
X250691Y116778D01*
X250718Y116816D01*
X250734Y116880D01*
X250760Y116941D01*
X250762Y116988D01*
X250774Y117034D01*
X250767Y117099D01*
X250770Y117165D01*
X250756Y117210D01*
X250751Y117257D01*
X250721Y117316D01*
X250701Y117378D01*
X250669Y117423D01*
X250651Y117458D01*
X250623Y117485D01*
X250590Y117529D01*
X249776Y118343D01*
X248927Y120391D01*
X248927Y122609D01*
X249776Y124657D01*
X251343Y126224D01*
X253391Y127073D01*
X255609Y127073D01*
X257657Y126224D01*
X259224Y124657D01*
X260073Y122609D01*
X260073Y120391D01*
X259224Y118343D01*
X258645Y117764D01*
X258607Y117710D01*
X258562Y117662D01*
X258544Y117618D01*
X258517Y117580D01*
X258500Y117516D01*
X258475Y117455D01*
X258473Y117408D01*
X258461Y117362D01*
X258468Y117297D01*
X258465Y117231D01*
X258479Y117186D01*
X258484Y117139D01*
X258513Y117080D01*
X258533Y117018D01*
X258566Y116973D01*
X258583Y116938D01*
X258612Y116911D01*
X258645Y116867D01*
X259459Y116053D01*
X260307Y114005D01*
X260307Y111787D01*
X259459Y109739D01*
X257891Y108172D01*
X255843Y107323D01*
X253626Y107323D01*
G37*
%LPD*%
%LPC*%
G36*
X150642Y251377D02*
X150642Y251377D01*
X148318Y252340D01*
X146540Y254118D01*
X145577Y256442D01*
X145577Y258958D01*
X146540Y261282D01*
X148318Y263060D01*
X150642Y264023D01*
X153158Y264023D01*
X155482Y263060D01*
X157260Y261282D01*
X158223Y258958D01*
X158223Y256442D01*
X157260Y254118D01*
X155482Y252340D01*
X153158Y251377D01*
X150642Y251377D01*
G37*
%LPD*%
%LPC*%
G36*
X119042Y127077D02*
X119042Y127077D01*
X116718Y128040D01*
X114940Y129818D01*
X113977Y132142D01*
X113977Y134658D01*
X114940Y136982D01*
X116718Y138760D01*
X119042Y139723D01*
X121558Y139723D01*
X123882Y138760D01*
X125660Y136982D01*
X126623Y134658D01*
X126623Y132142D01*
X125660Y129818D01*
X123882Y128040D01*
X121558Y127077D01*
X119042Y127077D01*
G37*
%LPD*%
%LPC*%
G36*
X149342Y104277D02*
X149342Y104277D01*
X147018Y105240D01*
X145240Y107018D01*
X144277Y109342D01*
X144277Y111858D01*
X145240Y114182D01*
X147018Y115960D01*
X149342Y116923D01*
X151858Y116923D01*
X154182Y115960D01*
X155960Y114182D01*
X156923Y111858D01*
X156923Y109342D01*
X155960Y107018D01*
X154182Y105240D01*
X151858Y104277D01*
X149342Y104277D01*
G37*
%LPD*%
%LPC*%
G36*
X178442Y198677D02*
X178442Y198677D01*
X176118Y199640D01*
X174340Y201418D01*
X173377Y203742D01*
X173377Y206258D01*
X174340Y208582D01*
X176118Y210360D01*
X178442Y211323D01*
X180958Y211323D01*
X183282Y210360D01*
X185060Y208582D01*
X186023Y206258D01*
X186023Y203742D01*
X185060Y201418D01*
X183282Y199640D01*
X180958Y198677D01*
X178442Y198677D01*
G37*
%LPD*%
%LPC*%
G36*
X442691Y161605D02*
X442691Y161605D01*
X440643Y162454D01*
X439076Y164021D01*
X438227Y166069D01*
X438227Y168287D01*
X439076Y170335D01*
X440643Y171902D01*
X442691Y172751D01*
X444909Y172751D01*
X446957Y171902D01*
X448524Y170335D01*
X449373Y168287D01*
X449373Y166069D01*
X448524Y164021D01*
X446957Y162454D01*
X444909Y161605D01*
X442691Y161605D01*
G37*
%LPD*%
%LPC*%
G36*
X516369Y195369D02*
X516369Y195369D01*
X516369Y204186D01*
X517479Y204011D01*
X519000Y203516D01*
X520425Y202790D01*
X521719Y201850D01*
X522850Y200719D01*
X523790Y199425D01*
X524516Y198000D01*
X525011Y196479D01*
X525186Y195369D01*
X516369Y195369D01*
G37*
%LPD*%
%LPC*%
G36*
X505014Y195369D02*
X505014Y195369D01*
X505189Y196479D01*
X505684Y198000D01*
X506410Y199425D01*
X507350Y200719D01*
X508481Y201850D01*
X509775Y202790D01*
X511200Y203516D01*
X512721Y204011D01*
X513831Y204186D01*
X513831Y195369D01*
X505014Y195369D01*
G37*
%LPD*%
%LPC*%
G36*
X516369Y192831D02*
X516369Y192831D01*
X525186Y192831D01*
X525011Y191721D01*
X524516Y190200D01*
X523790Y188775D01*
X522850Y187481D01*
X521719Y186350D01*
X520425Y185410D01*
X519000Y184684D01*
X517479Y184189D01*
X516369Y184014D01*
X516369Y192831D01*
G37*
%LPD*%
%LPC*%
G36*
X512721Y184189D02*
X512721Y184189D01*
X511200Y184684D01*
X509775Y185410D01*
X508481Y186350D01*
X507350Y187481D01*
X506410Y188775D01*
X505684Y190200D01*
X505189Y191721D01*
X505014Y192831D01*
X513831Y192831D01*
X513831Y184014D01*
X512721Y184189D01*
G37*
%LPD*%
%LPC*%
G36*
X515099Y194099D02*
X515099Y194099D01*
X515099Y194101D01*
X515101Y194101D01*
X515101Y194099D01*
X515099Y194099D01*
G37*
%LPD*%
D10*
X515100Y194100D03*
X515100Y219500D03*
X515100Y244900D03*
X515100Y270300D03*
X373800Y30400D03*
X373800Y55800D03*
X399200Y30400D03*
X399200Y55800D03*
X424600Y30400D03*
X424600Y55800D03*
X450000Y30400D03*
X450000Y55800D03*
D11*
X255400Y104300D03*
X254200Y130600D03*
X265600Y88100D03*
X246500Y49300D03*
X269400Y239600D03*
X289400Y233700D03*
X171200Y44300D03*
X321600Y44300D03*
X276500Y49200D03*
X216500Y49100D03*
D12*
X427100Y173900D03*
X427100Y153900D03*
X350000Y190000D03*
X373900Y224500D03*
X352900Y224400D03*
X395000Y224700D03*
X338200Y168800D03*
X398000Y91200D03*
X101800Y86800D03*
X13300Y134000D03*
X7200Y151700D03*
X179600Y174300D03*
X201300Y173000D03*
X155400Y181500D03*
X145200Y199000D03*
X150200Y238100D03*
X151900Y286800D03*
X86700Y49400D03*
X58400Y79400D03*
X172600Y287000D03*
X202300Y237300D03*
X98600Y233900D03*
X76000Y177000D03*
X90000Y177000D03*
X76000Y162000D03*
X90000Y162000D03*
X119500Y245300D03*
X46200Y111200D03*
X461500Y122700D03*
X383300Y136200D03*
X357000Y275000D03*
X387000Y275000D03*
D11*
X293000Y283500D03*
D12*
X44500Y134000D03*
D13*
X24000Y154500D01*
X24000Y188000D01*
D12*
X24000Y188000D03*
X120000Y20000D03*
D13*
X99900Y40100D01*
X99900Y61200D01*
X92600Y68500D01*
X86000Y68500D01*
D12*
X86000Y68500D03*
D13*
X60000Y94500D01*
X60000Y118400D01*
X44500Y133900D02*
X44500Y134000D01*
X44500Y133900D02*
X60000Y118400D01*
D12*
X150600Y110600D03*
X151900Y257700D03*
X90000Y140000D03*
D14*
X90000Y108955D01*
X168555Y30400D01*
X373800Y30400D01*
D12*
X78200Y224600D03*
D14*
X162200Y224600D01*
X165700Y221100D01*
D12*
X165700Y221100D03*
X58000Y203500D03*
D14*
X74100Y203500D01*
X78200Y207600D01*
D12*
X78200Y207600D03*
D14*
X87100Y216500D01*
X120000Y216500D01*
D12*
X120000Y216500D03*
X179700Y205000D03*
X120300Y133400D03*
X473000Y153000D03*
D11*
X310100Y237900D03*
X443800Y167178D03*
D14*
X473000Y153000D02*
X473000Y78800D01*
X450000Y55800D01*
D11*
X319900Y242000D03*
D14*
X396900Y165000D01*
X428956Y165000D02*
X443656Y150300D01*
D11*
X443656Y150300D03*
D14*
X428956Y165000D02*
X396900Y165000D01*
D11*
X257508Y281700D03*
X254500Y121500D03*
X254735Y112896D03*
X265307Y287000D03*
X276796Y232700D03*
X273911Y285000D03*
X283100Y239600D03*
X283100Y283800D03*
X257600Y73300D03*
X239996Y287974D03*
X259795Y81695D03*
X250600Y287300D03*
D12*
X475600Y188400D03*
D14*
X475600Y201700D01*
X453800Y223500D02*
X423950Y223500D01*
D12*
X423950Y223500D03*
D14*
X453800Y223500D02*
X475600Y201700D01*
D11*
X71500Y64500D03*
D14*
X71500Y42500D01*
X104000Y10000D02*
X410000Y10000D01*
X424600Y24600D01*
X424600Y30400D01*
X104000Y10000D02*
X71500Y42500D01*
M02*
