G04 EAGLE Gerber RS-274X export*
G75*
%MOMM*%
%FSLAX34Y34*%
%LPD*%
%INSilkscreen Top*%
%IPPOS*%
%AMOC8*
5,1,8,0,0,1.08239X$1,22.5*%
G01*
%ADD10C,0.076200*%
%ADD11C,0.250000*%
%ADD12C,0.101600*%
%ADD13C,0.200000*%
%ADD14C,0.100000*%
%ADD15C,0.100000*%
%ADD16C,0.152400*%


D10*
X196614Y34579D02*
X196614Y27269D01*
X196613Y27269D02*
X196611Y27180D01*
X196605Y27092D01*
X196596Y27004D01*
X196583Y26916D01*
X196566Y26829D01*
X196546Y26743D01*
X196521Y26658D01*
X196494Y26573D01*
X196462Y26490D01*
X196428Y26409D01*
X196389Y26329D01*
X196348Y26251D01*
X196303Y26174D01*
X196255Y26100D01*
X196204Y26027D01*
X196150Y25957D01*
X196092Y25890D01*
X196032Y25824D01*
X195970Y25762D01*
X195904Y25702D01*
X195837Y25644D01*
X195767Y25590D01*
X195694Y25539D01*
X195620Y25491D01*
X195543Y25446D01*
X195465Y25405D01*
X195385Y25366D01*
X195304Y25332D01*
X195221Y25300D01*
X195136Y25273D01*
X195051Y25248D01*
X194965Y25228D01*
X194878Y25211D01*
X194790Y25198D01*
X194702Y25189D01*
X194614Y25183D01*
X194525Y25181D01*
X193481Y25181D01*
X201128Y25181D02*
X201128Y34579D01*
X201128Y25181D02*
X205304Y25181D01*
X210793Y25181D02*
X212881Y25181D01*
X210793Y25181D02*
X210704Y25183D01*
X210616Y25189D01*
X210528Y25198D01*
X210440Y25211D01*
X210353Y25228D01*
X210267Y25248D01*
X210182Y25273D01*
X210097Y25300D01*
X210014Y25332D01*
X209933Y25366D01*
X209853Y25405D01*
X209775Y25446D01*
X209698Y25491D01*
X209624Y25539D01*
X209551Y25590D01*
X209481Y25644D01*
X209414Y25702D01*
X209348Y25762D01*
X209286Y25824D01*
X209226Y25890D01*
X209168Y25957D01*
X209114Y26027D01*
X209063Y26100D01*
X209015Y26174D01*
X208970Y26251D01*
X208929Y26329D01*
X208890Y26409D01*
X208856Y26490D01*
X208824Y26573D01*
X208797Y26658D01*
X208772Y26743D01*
X208752Y26829D01*
X208735Y26916D01*
X208722Y27004D01*
X208713Y27092D01*
X208707Y27180D01*
X208705Y27269D01*
X208704Y27269D02*
X208704Y32491D01*
X208705Y32491D02*
X208707Y32582D01*
X208713Y32673D01*
X208723Y32764D01*
X208737Y32854D01*
X208754Y32943D01*
X208776Y33031D01*
X208802Y33119D01*
X208831Y33205D01*
X208864Y33290D01*
X208901Y33373D01*
X208941Y33455D01*
X208985Y33535D01*
X209032Y33613D01*
X209083Y33689D01*
X209136Y33762D01*
X209193Y33833D01*
X209254Y33902D01*
X209317Y33967D01*
X209382Y34030D01*
X209451Y34090D01*
X209522Y34148D01*
X209595Y34201D01*
X209671Y34252D01*
X209749Y34299D01*
X209829Y34343D01*
X209911Y34383D01*
X209994Y34420D01*
X210079Y34453D01*
X210165Y34482D01*
X210253Y34508D01*
X210341Y34530D01*
X210430Y34547D01*
X210520Y34561D01*
X210611Y34571D01*
X210702Y34577D01*
X210793Y34579D01*
X212881Y34579D01*
X218559Y34579D02*
X218559Y27269D01*
X218557Y27180D01*
X218551Y27092D01*
X218542Y27004D01*
X218529Y26916D01*
X218512Y26829D01*
X218492Y26743D01*
X218467Y26658D01*
X218440Y26573D01*
X218408Y26490D01*
X218374Y26409D01*
X218335Y26329D01*
X218294Y26251D01*
X218249Y26174D01*
X218201Y26100D01*
X218150Y26027D01*
X218096Y25957D01*
X218038Y25890D01*
X217978Y25824D01*
X217916Y25762D01*
X217850Y25702D01*
X217783Y25644D01*
X217713Y25590D01*
X217640Y25539D01*
X217566Y25491D01*
X217489Y25446D01*
X217411Y25405D01*
X217331Y25366D01*
X217250Y25332D01*
X217167Y25300D01*
X217082Y25273D01*
X216997Y25248D01*
X216911Y25228D01*
X216824Y25211D01*
X216736Y25198D01*
X216648Y25189D01*
X216560Y25183D01*
X216471Y25181D01*
X215426Y25181D01*
X223073Y25181D02*
X223073Y34579D01*
X223073Y25181D02*
X227250Y25181D01*
X232738Y25181D02*
X234827Y25181D01*
X232738Y25181D02*
X232649Y25183D01*
X232561Y25189D01*
X232473Y25198D01*
X232385Y25211D01*
X232298Y25228D01*
X232212Y25248D01*
X232127Y25273D01*
X232042Y25300D01*
X231959Y25332D01*
X231878Y25366D01*
X231798Y25405D01*
X231720Y25446D01*
X231643Y25491D01*
X231569Y25539D01*
X231496Y25590D01*
X231426Y25644D01*
X231359Y25702D01*
X231293Y25762D01*
X231231Y25824D01*
X231171Y25890D01*
X231113Y25957D01*
X231059Y26027D01*
X231008Y26100D01*
X230960Y26174D01*
X230915Y26251D01*
X230874Y26329D01*
X230835Y26409D01*
X230801Y26490D01*
X230769Y26573D01*
X230742Y26658D01*
X230717Y26743D01*
X230697Y26829D01*
X230680Y26916D01*
X230667Y27004D01*
X230658Y27092D01*
X230652Y27180D01*
X230650Y27269D01*
X230650Y32491D01*
X230652Y32582D01*
X230658Y32673D01*
X230668Y32764D01*
X230682Y32854D01*
X230699Y32943D01*
X230721Y33031D01*
X230747Y33119D01*
X230776Y33205D01*
X230809Y33290D01*
X230846Y33373D01*
X230886Y33455D01*
X230930Y33535D01*
X230977Y33613D01*
X231028Y33689D01*
X231081Y33762D01*
X231138Y33833D01*
X231199Y33902D01*
X231262Y33967D01*
X231327Y34030D01*
X231396Y34090D01*
X231467Y34148D01*
X231540Y34201D01*
X231616Y34252D01*
X231694Y34299D01*
X231774Y34343D01*
X231856Y34383D01*
X231939Y34420D01*
X232024Y34453D01*
X232110Y34482D01*
X232198Y34508D01*
X232286Y34530D01*
X232375Y34547D01*
X232465Y34561D01*
X232556Y34571D01*
X232647Y34577D01*
X232738Y34579D01*
X234827Y34579D01*
X240505Y34579D02*
X240505Y27269D01*
X240504Y27269D02*
X240502Y27180D01*
X240496Y27092D01*
X240487Y27004D01*
X240474Y26916D01*
X240457Y26829D01*
X240437Y26743D01*
X240412Y26658D01*
X240385Y26573D01*
X240353Y26490D01*
X240319Y26409D01*
X240280Y26329D01*
X240239Y26251D01*
X240194Y26174D01*
X240146Y26100D01*
X240095Y26027D01*
X240041Y25957D01*
X239983Y25890D01*
X239923Y25824D01*
X239861Y25762D01*
X239795Y25702D01*
X239728Y25644D01*
X239658Y25590D01*
X239585Y25539D01*
X239511Y25491D01*
X239434Y25446D01*
X239356Y25405D01*
X239276Y25366D01*
X239195Y25332D01*
X239112Y25300D01*
X239027Y25273D01*
X238942Y25248D01*
X238856Y25228D01*
X238769Y25211D01*
X238681Y25198D01*
X238593Y25189D01*
X238505Y25183D01*
X238416Y25181D01*
X237372Y25181D01*
X245019Y25181D02*
X245019Y34579D01*
X245019Y25181D02*
X249195Y25181D01*
X254684Y25181D02*
X256772Y25181D01*
X254684Y25181D02*
X254595Y25183D01*
X254507Y25189D01*
X254419Y25198D01*
X254331Y25211D01*
X254244Y25228D01*
X254158Y25248D01*
X254073Y25273D01*
X253988Y25300D01*
X253905Y25332D01*
X253824Y25366D01*
X253744Y25405D01*
X253666Y25446D01*
X253589Y25491D01*
X253515Y25539D01*
X253442Y25590D01*
X253372Y25644D01*
X253305Y25702D01*
X253239Y25762D01*
X253177Y25824D01*
X253117Y25890D01*
X253059Y25957D01*
X253005Y26027D01*
X252954Y26100D01*
X252906Y26174D01*
X252861Y26251D01*
X252820Y26329D01*
X252781Y26409D01*
X252747Y26490D01*
X252715Y26573D01*
X252688Y26658D01*
X252663Y26743D01*
X252643Y26829D01*
X252626Y26916D01*
X252613Y27004D01*
X252604Y27092D01*
X252598Y27180D01*
X252596Y27269D01*
X252595Y27269D02*
X252595Y32491D01*
X252596Y32491D02*
X252598Y32582D01*
X252604Y32673D01*
X252614Y32764D01*
X252628Y32854D01*
X252645Y32943D01*
X252667Y33031D01*
X252693Y33119D01*
X252722Y33205D01*
X252755Y33290D01*
X252792Y33373D01*
X252832Y33455D01*
X252876Y33535D01*
X252923Y33613D01*
X252974Y33689D01*
X253027Y33762D01*
X253084Y33833D01*
X253145Y33902D01*
X253208Y33967D01*
X253273Y34030D01*
X253342Y34090D01*
X253413Y34148D01*
X253486Y34201D01*
X253562Y34252D01*
X253640Y34299D01*
X253720Y34343D01*
X253802Y34383D01*
X253885Y34420D01*
X253970Y34453D01*
X254056Y34482D01*
X254144Y34508D01*
X254232Y34530D01*
X254321Y34547D01*
X254411Y34561D01*
X254502Y34571D01*
X254593Y34577D01*
X254684Y34579D01*
X256772Y34579D01*
X262450Y34579D02*
X262450Y27269D01*
X262448Y27180D01*
X262442Y27092D01*
X262433Y27004D01*
X262420Y26916D01*
X262403Y26829D01*
X262383Y26743D01*
X262358Y26658D01*
X262331Y26573D01*
X262299Y26490D01*
X262265Y26409D01*
X262226Y26329D01*
X262185Y26251D01*
X262140Y26174D01*
X262092Y26100D01*
X262041Y26027D01*
X261987Y25957D01*
X261929Y25890D01*
X261869Y25824D01*
X261807Y25762D01*
X261741Y25702D01*
X261674Y25644D01*
X261604Y25590D01*
X261531Y25539D01*
X261457Y25491D01*
X261380Y25446D01*
X261302Y25405D01*
X261222Y25366D01*
X261141Y25332D01*
X261058Y25300D01*
X260973Y25273D01*
X260888Y25248D01*
X260802Y25228D01*
X260715Y25211D01*
X260627Y25198D01*
X260539Y25189D01*
X260451Y25183D01*
X260362Y25181D01*
X259317Y25181D01*
X266964Y25181D02*
X266964Y34579D01*
X266964Y25181D02*
X271141Y25181D01*
X276629Y25181D02*
X278718Y25181D01*
X276629Y25181D02*
X276540Y25183D01*
X276452Y25189D01*
X276364Y25198D01*
X276276Y25211D01*
X276189Y25228D01*
X276103Y25248D01*
X276018Y25273D01*
X275933Y25300D01*
X275850Y25332D01*
X275769Y25366D01*
X275689Y25405D01*
X275611Y25446D01*
X275534Y25491D01*
X275460Y25539D01*
X275387Y25590D01*
X275317Y25644D01*
X275250Y25702D01*
X275184Y25762D01*
X275122Y25824D01*
X275062Y25890D01*
X275004Y25957D01*
X274950Y26027D01*
X274899Y26100D01*
X274851Y26174D01*
X274806Y26251D01*
X274765Y26329D01*
X274726Y26409D01*
X274692Y26490D01*
X274660Y26573D01*
X274633Y26658D01*
X274608Y26743D01*
X274588Y26829D01*
X274571Y26916D01*
X274558Y27004D01*
X274549Y27092D01*
X274543Y27180D01*
X274541Y27269D01*
X274541Y32491D01*
X274543Y32582D01*
X274549Y32673D01*
X274559Y32764D01*
X274573Y32854D01*
X274590Y32943D01*
X274612Y33031D01*
X274638Y33119D01*
X274667Y33205D01*
X274700Y33290D01*
X274737Y33373D01*
X274777Y33455D01*
X274821Y33535D01*
X274868Y33613D01*
X274919Y33689D01*
X274972Y33762D01*
X275029Y33833D01*
X275090Y33902D01*
X275153Y33967D01*
X275218Y34030D01*
X275287Y34090D01*
X275358Y34148D01*
X275431Y34201D01*
X275507Y34252D01*
X275585Y34299D01*
X275665Y34343D01*
X275747Y34383D01*
X275830Y34420D01*
X275915Y34453D01*
X276001Y34482D01*
X276089Y34508D01*
X276177Y34530D01*
X276266Y34547D01*
X276356Y34561D01*
X276447Y34571D01*
X276538Y34577D01*
X276629Y34579D01*
X278718Y34579D01*
X284396Y34579D02*
X284396Y27269D01*
X284395Y27269D02*
X284393Y27180D01*
X284387Y27092D01*
X284378Y27004D01*
X284365Y26916D01*
X284348Y26829D01*
X284328Y26743D01*
X284303Y26658D01*
X284276Y26573D01*
X284244Y26490D01*
X284210Y26409D01*
X284171Y26329D01*
X284130Y26251D01*
X284085Y26174D01*
X284037Y26100D01*
X283986Y26027D01*
X283932Y25957D01*
X283874Y25890D01*
X283814Y25824D01*
X283752Y25762D01*
X283686Y25702D01*
X283619Y25644D01*
X283549Y25590D01*
X283476Y25539D01*
X283402Y25491D01*
X283325Y25446D01*
X283247Y25405D01*
X283167Y25366D01*
X283086Y25332D01*
X283003Y25300D01*
X282918Y25273D01*
X282833Y25248D01*
X282747Y25228D01*
X282660Y25211D01*
X282572Y25198D01*
X282484Y25189D01*
X282396Y25183D01*
X282307Y25181D01*
X281263Y25181D01*
X288909Y25181D02*
X288909Y34579D01*
X288909Y25181D02*
X293086Y25181D01*
X298575Y25181D02*
X300663Y25181D01*
X298575Y25181D02*
X298486Y25183D01*
X298398Y25189D01*
X298310Y25198D01*
X298222Y25211D01*
X298135Y25228D01*
X298049Y25248D01*
X297964Y25273D01*
X297879Y25300D01*
X297796Y25332D01*
X297715Y25366D01*
X297635Y25405D01*
X297557Y25446D01*
X297480Y25491D01*
X297406Y25539D01*
X297333Y25590D01*
X297263Y25644D01*
X297196Y25702D01*
X297130Y25762D01*
X297068Y25824D01*
X297008Y25890D01*
X296950Y25957D01*
X296896Y26027D01*
X296845Y26100D01*
X296797Y26174D01*
X296752Y26251D01*
X296711Y26329D01*
X296672Y26409D01*
X296638Y26490D01*
X296606Y26573D01*
X296579Y26658D01*
X296554Y26743D01*
X296534Y26829D01*
X296517Y26916D01*
X296504Y27004D01*
X296495Y27092D01*
X296489Y27180D01*
X296487Y27269D01*
X296486Y27269D02*
X296486Y32491D01*
X296487Y32491D02*
X296489Y32582D01*
X296495Y32673D01*
X296505Y32764D01*
X296519Y32854D01*
X296536Y32943D01*
X296558Y33031D01*
X296584Y33119D01*
X296613Y33205D01*
X296646Y33290D01*
X296683Y33373D01*
X296723Y33455D01*
X296767Y33535D01*
X296814Y33613D01*
X296865Y33689D01*
X296918Y33762D01*
X296975Y33833D01*
X297036Y33902D01*
X297099Y33967D01*
X297164Y34030D01*
X297233Y34090D01*
X297304Y34148D01*
X297377Y34201D01*
X297453Y34252D01*
X297531Y34299D01*
X297611Y34343D01*
X297693Y34383D01*
X297776Y34420D01*
X297861Y34453D01*
X297947Y34482D01*
X298035Y34508D01*
X298123Y34530D01*
X298212Y34547D01*
X298302Y34561D01*
X298393Y34571D01*
X298484Y34577D01*
X298575Y34579D01*
X300663Y34579D01*
X347353Y48581D02*
X354719Y48581D01*
X347353Y48581D02*
X347353Y51855D01*
X350627Y51855D02*
X350627Y48581D01*
X347353Y54921D02*
X354719Y54921D01*
X354719Y58195D01*
X354719Y62560D02*
X347353Y62560D01*
X347353Y64606D02*
X347353Y60513D01*
X384681Y76873D02*
X386727Y76873D01*
X386816Y76871D01*
X386905Y76865D01*
X386994Y76855D01*
X387082Y76842D01*
X387170Y76825D01*
X387257Y76803D01*
X387342Y76778D01*
X387427Y76750D01*
X387510Y76717D01*
X387592Y76681D01*
X387672Y76642D01*
X387750Y76599D01*
X387826Y76553D01*
X387901Y76503D01*
X387973Y76450D01*
X388042Y76394D01*
X388109Y76335D01*
X388174Y76274D01*
X388235Y76209D01*
X388294Y76142D01*
X388350Y76073D01*
X388403Y76001D01*
X388453Y75926D01*
X388499Y75850D01*
X388542Y75772D01*
X388581Y75692D01*
X388617Y75610D01*
X388650Y75527D01*
X388678Y75442D01*
X388703Y75357D01*
X388725Y75270D01*
X388742Y75182D01*
X388755Y75094D01*
X388765Y75005D01*
X388771Y74916D01*
X388773Y74827D01*
X388771Y74738D01*
X388765Y74649D01*
X388755Y74560D01*
X388742Y74472D01*
X388725Y74384D01*
X388703Y74297D01*
X388678Y74212D01*
X388650Y74127D01*
X388617Y74044D01*
X388581Y73962D01*
X388542Y73882D01*
X388499Y73804D01*
X388453Y73728D01*
X388403Y73653D01*
X388350Y73581D01*
X388294Y73512D01*
X388235Y73445D01*
X388174Y73380D01*
X388109Y73319D01*
X388042Y73260D01*
X387973Y73204D01*
X387901Y73151D01*
X387826Y73101D01*
X387750Y73055D01*
X387672Y73012D01*
X387592Y72973D01*
X387510Y72937D01*
X387427Y72904D01*
X387342Y72876D01*
X387257Y72851D01*
X387170Y72829D01*
X387082Y72812D01*
X386994Y72799D01*
X386905Y72789D01*
X386816Y72783D01*
X386727Y72781D01*
X384681Y72781D01*
X384681Y80147D01*
X386727Y80147D01*
X386806Y80145D01*
X386885Y80139D01*
X386964Y80130D01*
X387042Y80117D01*
X387119Y80099D01*
X387195Y80079D01*
X387270Y80054D01*
X387344Y80026D01*
X387417Y79995D01*
X387488Y79959D01*
X387557Y79921D01*
X387624Y79879D01*
X387689Y79834D01*
X387752Y79786D01*
X387813Y79735D01*
X387870Y79681D01*
X387926Y79625D01*
X387978Y79566D01*
X388028Y79504D01*
X388074Y79440D01*
X388118Y79374D01*
X388158Y79306D01*
X388194Y79236D01*
X388228Y79164D01*
X388258Y79090D01*
X388284Y79016D01*
X388307Y78940D01*
X388325Y78863D01*
X388341Y78786D01*
X388352Y78707D01*
X388360Y78629D01*
X388364Y78550D01*
X388364Y78470D01*
X388360Y78391D01*
X388352Y78313D01*
X388341Y78234D01*
X388325Y78157D01*
X388307Y78080D01*
X388284Y78004D01*
X388258Y77930D01*
X388228Y77856D01*
X388194Y77784D01*
X388158Y77714D01*
X388118Y77646D01*
X388074Y77580D01*
X388028Y77516D01*
X387978Y77454D01*
X387926Y77395D01*
X387870Y77339D01*
X387813Y77285D01*
X387752Y77234D01*
X387689Y77186D01*
X387624Y77141D01*
X387557Y77099D01*
X387488Y77061D01*
X387417Y77025D01*
X387344Y76994D01*
X387270Y76966D01*
X387195Y76941D01*
X387119Y76921D01*
X387042Y76903D01*
X386964Y76890D01*
X386885Y76881D01*
X386806Y76875D01*
X386727Y76873D01*
X391894Y80147D02*
X391894Y72781D01*
X395168Y72781D01*
X397652Y71963D02*
X400926Y71963D01*
X404086Y72781D02*
X407360Y72781D01*
X404086Y72781D02*
X404086Y80147D01*
X407360Y80147D01*
X406541Y76873D02*
X404086Y76873D01*
X410410Y80147D02*
X410410Y72781D01*
X414502Y72781D02*
X410410Y80147D01*
X414502Y80147D02*
X414502Y72781D01*
X421381Y73381D02*
X421381Y80747D01*
X425473Y80747D02*
X421381Y76246D01*
X423018Y77882D02*
X425473Y73381D01*
X432427Y78906D02*
X432425Y78991D01*
X432419Y79076D01*
X432409Y79160D01*
X432396Y79244D01*
X432378Y79328D01*
X432357Y79410D01*
X432332Y79491D01*
X432303Y79571D01*
X432270Y79650D01*
X432234Y79727D01*
X432194Y79802D01*
X432151Y79876D01*
X432105Y79947D01*
X432055Y80016D01*
X432002Y80083D01*
X431946Y80147D01*
X431887Y80208D01*
X431826Y80267D01*
X431762Y80323D01*
X431695Y80376D01*
X431626Y80426D01*
X431555Y80472D01*
X431481Y80515D01*
X431406Y80555D01*
X431329Y80591D01*
X431250Y80624D01*
X431170Y80653D01*
X431089Y80678D01*
X431007Y80699D01*
X430923Y80717D01*
X430839Y80730D01*
X430755Y80740D01*
X430670Y80746D01*
X430585Y80748D01*
X430585Y80747D02*
X430489Y80745D01*
X430393Y80739D01*
X430298Y80729D01*
X430203Y80716D01*
X430108Y80698D01*
X430015Y80677D01*
X429922Y80652D01*
X429831Y80623D01*
X429740Y80591D01*
X429651Y80555D01*
X429564Y80515D01*
X429478Y80472D01*
X429394Y80426D01*
X429312Y80376D01*
X429232Y80322D01*
X429155Y80266D01*
X429080Y80206D01*
X429007Y80144D01*
X428937Y80078D01*
X428869Y80010D01*
X428804Y79939D01*
X428743Y79866D01*
X428684Y79790D01*
X428628Y79711D01*
X428576Y79631D01*
X428527Y79548D01*
X428481Y79464D01*
X428439Y79378D01*
X428401Y79290D01*
X428366Y79201D01*
X428334Y79110D01*
X431813Y77474D02*
X431873Y77533D01*
X431930Y77595D01*
X431985Y77659D01*
X432036Y77726D01*
X432085Y77795D01*
X432131Y77865D01*
X432174Y77938D01*
X432214Y78012D01*
X432250Y78088D01*
X432283Y78166D01*
X432313Y78245D01*
X432340Y78325D01*
X432363Y78406D01*
X432382Y78488D01*
X432398Y78570D01*
X432411Y78654D01*
X432420Y78738D01*
X432425Y78822D01*
X432427Y78906D01*
X431813Y77473D02*
X428335Y73381D01*
X432427Y73381D01*
X467053Y49781D02*
X474419Y49781D01*
X471554Y49781D02*
X467053Y53873D01*
X469918Y51418D02*
X474419Y53873D01*
X468690Y56735D02*
X467053Y58781D01*
X474419Y58781D01*
X474419Y56735D02*
X474419Y60827D01*
X352727Y13627D02*
X352727Y11581D01*
X352727Y13627D02*
X352729Y13716D01*
X352735Y13805D01*
X352745Y13894D01*
X352758Y13982D01*
X352775Y14070D01*
X352797Y14157D01*
X352822Y14242D01*
X352850Y14327D01*
X352883Y14410D01*
X352919Y14492D01*
X352958Y14572D01*
X353001Y14650D01*
X353047Y14726D01*
X353097Y14801D01*
X353150Y14873D01*
X353206Y14942D01*
X353265Y15009D01*
X353326Y15074D01*
X353391Y15135D01*
X353458Y15194D01*
X353527Y15250D01*
X353599Y15303D01*
X353674Y15353D01*
X353750Y15399D01*
X353828Y15442D01*
X353908Y15481D01*
X353990Y15517D01*
X354073Y15550D01*
X354158Y15578D01*
X354243Y15603D01*
X354330Y15625D01*
X354418Y15642D01*
X354506Y15655D01*
X354595Y15665D01*
X354684Y15671D01*
X354773Y15673D01*
X354862Y15671D01*
X354951Y15665D01*
X355040Y15655D01*
X355128Y15642D01*
X355216Y15625D01*
X355303Y15603D01*
X355388Y15578D01*
X355473Y15550D01*
X355556Y15517D01*
X355638Y15481D01*
X355718Y15442D01*
X355796Y15399D01*
X355872Y15353D01*
X355947Y15303D01*
X356019Y15250D01*
X356088Y15194D01*
X356155Y15135D01*
X356220Y15074D01*
X356281Y15009D01*
X356340Y14942D01*
X356396Y14873D01*
X356449Y14801D01*
X356499Y14726D01*
X356545Y14650D01*
X356588Y14572D01*
X356627Y14492D01*
X356663Y14410D01*
X356696Y14327D01*
X356724Y14242D01*
X356749Y14157D01*
X356771Y14070D01*
X356788Y13982D01*
X356801Y13894D01*
X356811Y13805D01*
X356817Y13716D01*
X356819Y13627D01*
X356819Y11581D01*
X349453Y11581D01*
X349453Y13627D01*
X349455Y13706D01*
X349461Y13785D01*
X349470Y13864D01*
X349483Y13942D01*
X349501Y14019D01*
X349521Y14095D01*
X349546Y14170D01*
X349574Y14244D01*
X349605Y14317D01*
X349641Y14388D01*
X349679Y14457D01*
X349721Y14524D01*
X349766Y14589D01*
X349814Y14652D01*
X349865Y14713D01*
X349919Y14770D01*
X349975Y14826D01*
X350034Y14878D01*
X350096Y14928D01*
X350160Y14974D01*
X350226Y15018D01*
X350294Y15058D01*
X350364Y15094D01*
X350436Y15128D01*
X350510Y15158D01*
X350584Y15184D01*
X350660Y15207D01*
X350737Y15225D01*
X350814Y15241D01*
X350893Y15252D01*
X350971Y15260D01*
X351050Y15264D01*
X351130Y15264D01*
X351209Y15260D01*
X351287Y15252D01*
X351366Y15241D01*
X351443Y15225D01*
X351520Y15207D01*
X351596Y15184D01*
X351670Y15158D01*
X351744Y15128D01*
X351816Y15094D01*
X351886Y15058D01*
X351954Y15018D01*
X352020Y14974D01*
X352084Y14928D01*
X352146Y14878D01*
X352205Y14826D01*
X352261Y14770D01*
X352315Y14713D01*
X352366Y14652D01*
X352414Y14589D01*
X352459Y14524D01*
X352501Y14457D01*
X352539Y14388D01*
X352575Y14317D01*
X352606Y14244D01*
X352634Y14170D01*
X352659Y14095D01*
X352679Y14019D01*
X352697Y13942D01*
X352710Y13864D01*
X352719Y13785D01*
X352725Y13706D01*
X352727Y13627D01*
X349453Y19118D02*
X356819Y19118D01*
X356819Y19936D02*
X356819Y18299D01*
X349453Y18299D02*
X349453Y19936D01*
X357637Y22602D02*
X357637Y25875D01*
X356819Y29035D02*
X356819Y32309D01*
X356819Y29035D02*
X349453Y29035D01*
X349453Y32309D01*
X352727Y31491D02*
X352727Y29035D01*
X349453Y35360D02*
X356819Y35360D01*
X356819Y39452D02*
X349453Y35360D01*
X349453Y39452D02*
X356819Y39452D01*
X387381Y13647D02*
X387381Y6281D01*
X387381Y13647D02*
X389427Y13647D01*
X389516Y13645D01*
X389605Y13639D01*
X389694Y13629D01*
X389782Y13616D01*
X389870Y13599D01*
X389957Y13577D01*
X390042Y13552D01*
X390127Y13524D01*
X390210Y13491D01*
X390292Y13455D01*
X390372Y13416D01*
X390450Y13373D01*
X390526Y13327D01*
X390601Y13277D01*
X390673Y13224D01*
X390742Y13168D01*
X390809Y13109D01*
X390874Y13048D01*
X390935Y12983D01*
X390994Y12916D01*
X391050Y12847D01*
X391103Y12775D01*
X391153Y12700D01*
X391199Y12624D01*
X391242Y12546D01*
X391281Y12466D01*
X391317Y12384D01*
X391350Y12301D01*
X391378Y12216D01*
X391403Y12131D01*
X391425Y12044D01*
X391442Y11956D01*
X391455Y11868D01*
X391465Y11779D01*
X391471Y11690D01*
X391473Y11601D01*
X391471Y11512D01*
X391465Y11423D01*
X391455Y11334D01*
X391442Y11246D01*
X391425Y11158D01*
X391403Y11071D01*
X391378Y10986D01*
X391350Y10901D01*
X391317Y10818D01*
X391281Y10736D01*
X391242Y10656D01*
X391199Y10578D01*
X391153Y10502D01*
X391103Y10427D01*
X391050Y10355D01*
X390994Y10286D01*
X390935Y10219D01*
X390874Y10154D01*
X390809Y10093D01*
X390742Y10034D01*
X390673Y9978D01*
X390601Y9925D01*
X390526Y9875D01*
X390450Y9829D01*
X390372Y9786D01*
X390292Y9747D01*
X390210Y9711D01*
X390127Y9678D01*
X390042Y9650D01*
X389957Y9625D01*
X389870Y9603D01*
X389782Y9586D01*
X389694Y9573D01*
X389605Y9563D01*
X389516Y9557D01*
X389427Y9555D01*
X387381Y9555D01*
X394082Y13647D02*
X395719Y6281D01*
X397356Y11192D01*
X398993Y6281D01*
X400630Y13647D01*
X403923Y13647D02*
X403923Y6281D01*
X406378Y9555D02*
X403923Y13647D01*
X406378Y9555D02*
X408834Y13647D01*
X408834Y6281D01*
X417299Y6481D02*
X417299Y13847D01*
X416481Y6481D02*
X418118Y6481D01*
X418118Y13847D02*
X416481Y13847D01*
X421106Y11801D02*
X421106Y8527D01*
X421106Y11801D02*
X421108Y11890D01*
X421114Y11979D01*
X421124Y12068D01*
X421137Y12156D01*
X421154Y12244D01*
X421176Y12331D01*
X421201Y12416D01*
X421229Y12501D01*
X421262Y12584D01*
X421298Y12666D01*
X421337Y12746D01*
X421380Y12824D01*
X421426Y12900D01*
X421476Y12975D01*
X421529Y13047D01*
X421585Y13116D01*
X421644Y13183D01*
X421705Y13248D01*
X421770Y13309D01*
X421837Y13368D01*
X421906Y13424D01*
X421978Y13477D01*
X422053Y13527D01*
X422129Y13573D01*
X422207Y13616D01*
X422287Y13655D01*
X422369Y13691D01*
X422452Y13724D01*
X422537Y13752D01*
X422622Y13777D01*
X422709Y13799D01*
X422797Y13816D01*
X422885Y13829D01*
X422974Y13839D01*
X423063Y13845D01*
X423152Y13847D01*
X423241Y13845D01*
X423330Y13839D01*
X423419Y13829D01*
X423507Y13816D01*
X423595Y13799D01*
X423682Y13777D01*
X423767Y13752D01*
X423852Y13724D01*
X423935Y13691D01*
X424017Y13655D01*
X424097Y13616D01*
X424175Y13573D01*
X424251Y13527D01*
X424326Y13477D01*
X424398Y13424D01*
X424467Y13368D01*
X424534Y13309D01*
X424599Y13248D01*
X424660Y13183D01*
X424719Y13116D01*
X424775Y13047D01*
X424828Y12975D01*
X424878Y12900D01*
X424924Y12824D01*
X424967Y12746D01*
X425006Y12666D01*
X425042Y12584D01*
X425075Y12501D01*
X425103Y12416D01*
X425128Y12331D01*
X425150Y12244D01*
X425167Y12156D01*
X425180Y12068D01*
X425190Y11979D01*
X425196Y11890D01*
X425198Y11801D01*
X425198Y8527D01*
X425196Y8438D01*
X425190Y8349D01*
X425180Y8260D01*
X425167Y8172D01*
X425150Y8084D01*
X425128Y7997D01*
X425103Y7912D01*
X425075Y7827D01*
X425042Y7744D01*
X425006Y7662D01*
X424967Y7582D01*
X424924Y7504D01*
X424878Y7428D01*
X424828Y7353D01*
X424775Y7281D01*
X424719Y7212D01*
X424660Y7145D01*
X424599Y7080D01*
X424534Y7019D01*
X424467Y6960D01*
X424398Y6904D01*
X424326Y6851D01*
X424251Y6801D01*
X424175Y6755D01*
X424097Y6712D01*
X424017Y6673D01*
X423935Y6637D01*
X423852Y6604D01*
X423767Y6576D01*
X423682Y6551D01*
X423595Y6529D01*
X423507Y6512D01*
X423419Y6499D01*
X423330Y6489D01*
X423241Y6483D01*
X423152Y6481D01*
X423063Y6483D01*
X422974Y6489D01*
X422885Y6499D01*
X422797Y6512D01*
X422709Y6529D01*
X422622Y6551D01*
X422537Y6576D01*
X422452Y6604D01*
X422369Y6637D01*
X422287Y6673D01*
X422207Y6712D01*
X422129Y6755D01*
X422053Y6801D01*
X421978Y6851D01*
X421906Y6904D01*
X421837Y6960D01*
X421770Y7019D01*
X421705Y7080D01*
X421644Y7145D01*
X421585Y7212D01*
X421529Y7281D01*
X421476Y7353D01*
X421426Y7428D01*
X421380Y7504D01*
X421337Y7582D01*
X421298Y7662D01*
X421262Y7744D01*
X421229Y7827D01*
X421201Y7912D01*
X421176Y7997D01*
X421154Y8084D01*
X421137Y8172D01*
X421124Y8260D01*
X421114Y8349D01*
X421108Y8438D01*
X421106Y8527D01*
X428011Y13847D02*
X430467Y6481D01*
X432922Y13847D01*
X435980Y13847D02*
X435980Y6481D01*
X435980Y13847D02*
X438026Y13847D01*
X438115Y13845D01*
X438204Y13839D01*
X438293Y13829D01*
X438381Y13816D01*
X438469Y13799D01*
X438556Y13777D01*
X438641Y13752D01*
X438726Y13724D01*
X438809Y13691D01*
X438891Y13655D01*
X438971Y13616D01*
X439049Y13573D01*
X439125Y13527D01*
X439200Y13477D01*
X439272Y13424D01*
X439341Y13368D01*
X439408Y13309D01*
X439473Y13248D01*
X439534Y13183D01*
X439593Y13116D01*
X439649Y13047D01*
X439702Y12975D01*
X439752Y12900D01*
X439798Y12824D01*
X439841Y12746D01*
X439880Y12666D01*
X439916Y12584D01*
X439949Y12501D01*
X439977Y12416D01*
X440002Y12331D01*
X440024Y12244D01*
X440041Y12156D01*
X440054Y12068D01*
X440064Y11979D01*
X440070Y11890D01*
X440072Y11801D01*
X440072Y8527D01*
X440070Y8438D01*
X440064Y8349D01*
X440054Y8260D01*
X440041Y8172D01*
X440024Y8084D01*
X440002Y7997D01*
X439977Y7912D01*
X439949Y7827D01*
X439916Y7744D01*
X439880Y7662D01*
X439841Y7582D01*
X439798Y7504D01*
X439752Y7428D01*
X439702Y7353D01*
X439649Y7281D01*
X439593Y7212D01*
X439534Y7145D01*
X439473Y7080D01*
X439408Y7019D01*
X439341Y6960D01*
X439272Y6904D01*
X439200Y6851D01*
X439125Y6801D01*
X439049Y6755D01*
X438971Y6712D01*
X438891Y6673D01*
X438809Y6637D01*
X438726Y6604D01*
X438641Y6576D01*
X438556Y6551D01*
X438469Y6529D01*
X438381Y6512D01*
X438293Y6499D01*
X438204Y6489D01*
X438115Y6483D01*
X438026Y6481D01*
X435980Y6481D01*
X443783Y6481D02*
X443783Y13847D01*
X445829Y13847D01*
X445918Y13845D01*
X446007Y13839D01*
X446096Y13829D01*
X446184Y13816D01*
X446272Y13799D01*
X446359Y13777D01*
X446444Y13752D01*
X446529Y13724D01*
X446612Y13691D01*
X446694Y13655D01*
X446774Y13616D01*
X446852Y13573D01*
X446928Y13527D01*
X447003Y13477D01*
X447075Y13424D01*
X447144Y13368D01*
X447211Y13309D01*
X447276Y13248D01*
X447337Y13183D01*
X447396Y13116D01*
X447452Y13047D01*
X447505Y12975D01*
X447555Y12900D01*
X447601Y12824D01*
X447644Y12746D01*
X447683Y12666D01*
X447719Y12584D01*
X447752Y12501D01*
X447780Y12416D01*
X447805Y12331D01*
X447827Y12244D01*
X447844Y12156D01*
X447857Y12068D01*
X447867Y11979D01*
X447873Y11890D01*
X447875Y11801D01*
X447875Y8527D01*
X447873Y8438D01*
X447867Y8349D01*
X447857Y8260D01*
X447844Y8172D01*
X447827Y8084D01*
X447805Y7997D01*
X447780Y7912D01*
X447752Y7827D01*
X447719Y7744D01*
X447683Y7662D01*
X447644Y7582D01*
X447601Y7504D01*
X447555Y7428D01*
X447505Y7353D01*
X447452Y7281D01*
X447396Y7212D01*
X447337Y7145D01*
X447276Y7080D01*
X447211Y7019D01*
X447144Y6960D01*
X447075Y6904D01*
X447003Y6851D01*
X446928Y6801D01*
X446852Y6755D01*
X446774Y6712D01*
X446694Y6673D01*
X446612Y6637D01*
X446529Y6604D01*
X446444Y6576D01*
X446359Y6551D01*
X446272Y6529D01*
X446184Y6512D01*
X446096Y6499D01*
X446007Y6489D01*
X445918Y6483D01*
X445829Y6481D01*
X443783Y6481D01*
X470854Y17381D02*
X470854Y22292D01*
X468399Y19836D02*
X473310Y19836D01*
X473719Y25593D02*
X473719Y28048D01*
X473717Y28126D01*
X473712Y28204D01*
X473702Y28281D01*
X473689Y28358D01*
X473673Y28434D01*
X473653Y28509D01*
X473629Y28583D01*
X473602Y28656D01*
X473571Y28728D01*
X473537Y28798D01*
X473500Y28867D01*
X473459Y28933D01*
X473415Y28998D01*
X473369Y29060D01*
X473319Y29120D01*
X473267Y29178D01*
X473212Y29233D01*
X473154Y29285D01*
X473094Y29335D01*
X473032Y29381D01*
X472967Y29425D01*
X472901Y29466D01*
X472832Y29503D01*
X472762Y29537D01*
X472690Y29568D01*
X472617Y29595D01*
X472543Y29619D01*
X472468Y29639D01*
X472392Y29655D01*
X472315Y29668D01*
X472238Y29678D01*
X472160Y29683D01*
X472082Y29685D01*
X471264Y29685D01*
X471184Y29683D01*
X471104Y29677D01*
X471024Y29667D01*
X470945Y29654D01*
X470866Y29636D01*
X470789Y29615D01*
X470713Y29589D01*
X470638Y29560D01*
X470564Y29528D01*
X470492Y29492D01*
X470422Y29452D01*
X470355Y29409D01*
X470289Y29363D01*
X470226Y29313D01*
X470165Y29261D01*
X470106Y29206D01*
X470051Y29147D01*
X469999Y29087D01*
X469949Y29023D01*
X469903Y28957D01*
X469860Y28890D01*
X469820Y28820D01*
X469784Y28748D01*
X469752Y28674D01*
X469723Y28600D01*
X469697Y28523D01*
X469676Y28446D01*
X469658Y28367D01*
X469645Y28288D01*
X469635Y28208D01*
X469629Y28128D01*
X469627Y28048D01*
X469627Y25593D01*
X466353Y25593D01*
X466353Y29685D01*
X466353Y32499D02*
X473719Y34954D01*
X466353Y37410D01*
X491527Y192146D02*
X491527Y193373D01*
X495619Y193373D01*
X495619Y190918D01*
X495617Y190840D01*
X495612Y190762D01*
X495602Y190685D01*
X495589Y190608D01*
X495573Y190532D01*
X495553Y190457D01*
X495529Y190383D01*
X495502Y190310D01*
X495471Y190238D01*
X495437Y190168D01*
X495400Y190100D01*
X495359Y190033D01*
X495315Y189968D01*
X495269Y189906D01*
X495219Y189846D01*
X495167Y189788D01*
X495112Y189733D01*
X495054Y189681D01*
X494994Y189631D01*
X494932Y189585D01*
X494867Y189541D01*
X494801Y189500D01*
X494732Y189463D01*
X494662Y189429D01*
X494590Y189398D01*
X494517Y189371D01*
X494443Y189347D01*
X494368Y189327D01*
X494292Y189311D01*
X494215Y189298D01*
X494138Y189288D01*
X494060Y189283D01*
X493982Y189281D01*
X489890Y189281D01*
X489810Y189283D01*
X489730Y189289D01*
X489650Y189299D01*
X489571Y189312D01*
X489492Y189330D01*
X489415Y189351D01*
X489339Y189377D01*
X489264Y189406D01*
X489190Y189438D01*
X489118Y189474D01*
X489048Y189514D01*
X488981Y189557D01*
X488915Y189603D01*
X488852Y189653D01*
X488791Y189705D01*
X488732Y189760D01*
X488677Y189819D01*
X488625Y189879D01*
X488575Y189943D01*
X488529Y190008D01*
X488486Y190076D01*
X488446Y190146D01*
X488410Y190218D01*
X488378Y190292D01*
X488349Y190366D01*
X488324Y190443D01*
X488302Y190520D01*
X488284Y190599D01*
X488271Y190678D01*
X488261Y190757D01*
X488255Y190838D01*
X488253Y190918D01*
X488253Y193373D01*
X488253Y197084D02*
X495619Y197084D01*
X495619Y201176D02*
X488253Y197084D01*
X488253Y201176D02*
X495619Y201176D01*
X495619Y204887D02*
X488253Y204887D01*
X488253Y206933D01*
X488255Y207022D01*
X488261Y207111D01*
X488271Y207200D01*
X488284Y207288D01*
X488301Y207376D01*
X488323Y207463D01*
X488348Y207548D01*
X488376Y207633D01*
X488409Y207716D01*
X488445Y207798D01*
X488484Y207878D01*
X488527Y207956D01*
X488573Y208032D01*
X488623Y208107D01*
X488676Y208179D01*
X488732Y208248D01*
X488791Y208315D01*
X488852Y208380D01*
X488917Y208441D01*
X488984Y208500D01*
X489053Y208556D01*
X489125Y208609D01*
X489200Y208659D01*
X489276Y208705D01*
X489354Y208748D01*
X489434Y208787D01*
X489516Y208823D01*
X489599Y208856D01*
X489684Y208884D01*
X489769Y208909D01*
X489856Y208931D01*
X489944Y208948D01*
X490032Y208961D01*
X490121Y208971D01*
X490210Y208977D01*
X490299Y208979D01*
X493573Y208979D01*
X493662Y208977D01*
X493751Y208971D01*
X493840Y208961D01*
X493928Y208948D01*
X494016Y208931D01*
X494103Y208909D01*
X494188Y208884D01*
X494273Y208856D01*
X494356Y208823D01*
X494438Y208787D01*
X494518Y208748D01*
X494596Y208705D01*
X494672Y208659D01*
X494747Y208609D01*
X494819Y208556D01*
X494888Y208500D01*
X494955Y208441D01*
X495020Y208380D01*
X495081Y208315D01*
X495140Y208248D01*
X495196Y208179D01*
X495249Y208107D01*
X495299Y208032D01*
X495345Y207956D01*
X495388Y207878D01*
X495427Y207798D01*
X495463Y207716D01*
X495496Y207633D01*
X495524Y207548D01*
X495549Y207463D01*
X495571Y207376D01*
X495588Y207288D01*
X495601Y207200D01*
X495611Y207111D01*
X495617Y207022D01*
X495619Y206933D01*
X495619Y204887D01*
X485219Y205881D02*
X477853Y205881D01*
X485219Y205881D02*
X485219Y209155D01*
X485219Y212221D02*
X485219Y215495D01*
X485219Y212221D02*
X477853Y212221D01*
X477853Y215495D01*
X481127Y214676D02*
X481127Y212221D01*
X477853Y218545D02*
X485219Y218545D01*
X477853Y218545D02*
X477853Y220591D01*
X477855Y220680D01*
X477861Y220769D01*
X477871Y220858D01*
X477884Y220946D01*
X477901Y221034D01*
X477923Y221121D01*
X477948Y221206D01*
X477976Y221291D01*
X478009Y221374D01*
X478045Y221456D01*
X478084Y221536D01*
X478127Y221614D01*
X478173Y221690D01*
X478223Y221765D01*
X478276Y221837D01*
X478332Y221906D01*
X478391Y221973D01*
X478452Y222038D01*
X478517Y222099D01*
X478584Y222158D01*
X478653Y222214D01*
X478725Y222267D01*
X478800Y222317D01*
X478876Y222363D01*
X478954Y222406D01*
X479034Y222445D01*
X479116Y222481D01*
X479199Y222514D01*
X479284Y222542D01*
X479369Y222567D01*
X479456Y222589D01*
X479544Y222606D01*
X479632Y222619D01*
X479721Y222629D01*
X479810Y222635D01*
X479899Y222637D01*
X483173Y222637D01*
X483262Y222635D01*
X483351Y222629D01*
X483440Y222619D01*
X483528Y222606D01*
X483616Y222589D01*
X483703Y222567D01*
X483788Y222542D01*
X483873Y222514D01*
X483956Y222481D01*
X484038Y222445D01*
X484118Y222406D01*
X484196Y222363D01*
X484272Y222317D01*
X484347Y222267D01*
X484419Y222214D01*
X484488Y222158D01*
X484555Y222099D01*
X484620Y222038D01*
X484681Y221973D01*
X484740Y221906D01*
X484796Y221837D01*
X484849Y221765D01*
X484899Y221690D01*
X484945Y221614D01*
X484988Y221536D01*
X485027Y221456D01*
X485063Y221374D01*
X485096Y221291D01*
X485124Y221206D01*
X485149Y221121D01*
X485171Y221034D01*
X485188Y220946D01*
X485201Y220858D01*
X485211Y220769D01*
X485217Y220680D01*
X485219Y220591D01*
X485219Y218545D01*
X485219Y226465D02*
X477853Y226465D01*
X477853Y228512D01*
X477855Y228601D01*
X477861Y228690D01*
X477871Y228779D01*
X477884Y228867D01*
X477901Y228955D01*
X477923Y229042D01*
X477948Y229127D01*
X477976Y229212D01*
X478009Y229295D01*
X478045Y229377D01*
X478084Y229457D01*
X478127Y229535D01*
X478173Y229611D01*
X478223Y229686D01*
X478276Y229758D01*
X478332Y229827D01*
X478391Y229894D01*
X478452Y229959D01*
X478517Y230020D01*
X478584Y230079D01*
X478653Y230135D01*
X478725Y230188D01*
X478800Y230238D01*
X478876Y230284D01*
X478954Y230327D01*
X479034Y230366D01*
X479116Y230402D01*
X479199Y230435D01*
X479284Y230463D01*
X479369Y230488D01*
X479456Y230510D01*
X479544Y230527D01*
X479632Y230540D01*
X479721Y230550D01*
X479810Y230556D01*
X479899Y230558D01*
X479988Y230556D01*
X480077Y230550D01*
X480166Y230540D01*
X480254Y230527D01*
X480342Y230510D01*
X480429Y230488D01*
X480514Y230463D01*
X480599Y230435D01*
X480682Y230402D01*
X480764Y230366D01*
X480844Y230327D01*
X480922Y230284D01*
X480998Y230238D01*
X481073Y230188D01*
X481145Y230135D01*
X481214Y230079D01*
X481281Y230020D01*
X481346Y229959D01*
X481407Y229894D01*
X481466Y229827D01*
X481522Y229758D01*
X481575Y229686D01*
X481625Y229611D01*
X481671Y229535D01*
X481714Y229457D01*
X481753Y229377D01*
X481789Y229295D01*
X481822Y229212D01*
X481850Y229127D01*
X481875Y229042D01*
X481897Y228955D01*
X481914Y228867D01*
X481927Y228779D01*
X481937Y228690D01*
X481943Y228601D01*
X481945Y228512D01*
X481945Y226465D01*
X477853Y233167D02*
X485219Y234804D01*
X480308Y236441D01*
X485219Y238077D01*
X477853Y239714D01*
X477853Y243007D02*
X485219Y243007D01*
X481945Y245463D02*
X477853Y243007D01*
X481945Y245463D02*
X477853Y247918D01*
X485219Y247918D01*
X489253Y237227D02*
X496619Y237227D01*
X489253Y235181D02*
X489253Y239273D01*
X496619Y242268D02*
X496619Y245542D01*
X496619Y242268D02*
X489253Y242268D01*
X489253Y245542D01*
X492527Y244723D02*
X492527Y242268D01*
X496619Y247939D02*
X489253Y250394D01*
X496619Y252850D01*
X494778Y252236D02*
X494778Y248553D01*
X496619Y255959D02*
X489253Y255959D01*
X489253Y258005D01*
X489255Y258094D01*
X489261Y258183D01*
X489271Y258272D01*
X489284Y258360D01*
X489301Y258448D01*
X489323Y258535D01*
X489348Y258620D01*
X489376Y258705D01*
X489409Y258788D01*
X489445Y258870D01*
X489484Y258950D01*
X489527Y259028D01*
X489573Y259104D01*
X489623Y259179D01*
X489676Y259251D01*
X489732Y259320D01*
X489791Y259387D01*
X489852Y259452D01*
X489917Y259513D01*
X489984Y259572D01*
X490053Y259628D01*
X490125Y259681D01*
X490200Y259731D01*
X490276Y259777D01*
X490354Y259820D01*
X490434Y259859D01*
X490516Y259895D01*
X490599Y259928D01*
X490684Y259956D01*
X490769Y259981D01*
X490856Y260003D01*
X490944Y260020D01*
X491032Y260033D01*
X491121Y260043D01*
X491210Y260049D01*
X491299Y260051D01*
X491388Y260049D01*
X491477Y260043D01*
X491566Y260033D01*
X491654Y260020D01*
X491742Y260003D01*
X491829Y259981D01*
X491914Y259956D01*
X491999Y259928D01*
X492082Y259895D01*
X492164Y259859D01*
X492244Y259820D01*
X492322Y259777D01*
X492398Y259731D01*
X492473Y259681D01*
X492545Y259628D01*
X492614Y259572D01*
X492681Y259513D01*
X492746Y259452D01*
X492807Y259387D01*
X492866Y259320D01*
X492922Y259251D01*
X492975Y259179D01*
X493025Y259104D01*
X493071Y259028D01*
X493114Y258950D01*
X493153Y258870D01*
X493189Y258788D01*
X493222Y258705D01*
X493250Y258620D01*
X493275Y258535D01*
X493297Y258448D01*
X493314Y258360D01*
X493327Y258272D01*
X493337Y258183D01*
X493343Y258094D01*
X493345Y258005D01*
X493345Y255959D01*
X493345Y258414D02*
X496619Y260051D01*
X484919Y264181D02*
X477553Y264181D01*
X477553Y266227D01*
X477555Y266316D01*
X477561Y266405D01*
X477571Y266494D01*
X477584Y266582D01*
X477601Y266670D01*
X477623Y266757D01*
X477648Y266842D01*
X477676Y266927D01*
X477709Y267010D01*
X477745Y267092D01*
X477784Y267172D01*
X477827Y267250D01*
X477873Y267326D01*
X477923Y267401D01*
X477976Y267473D01*
X478032Y267542D01*
X478091Y267609D01*
X478152Y267674D01*
X478217Y267735D01*
X478284Y267794D01*
X478353Y267850D01*
X478425Y267903D01*
X478500Y267953D01*
X478576Y267999D01*
X478654Y268042D01*
X478734Y268081D01*
X478816Y268117D01*
X478899Y268150D01*
X478984Y268178D01*
X479069Y268203D01*
X479156Y268225D01*
X479244Y268242D01*
X479332Y268255D01*
X479421Y268265D01*
X479510Y268271D01*
X479599Y268273D01*
X479688Y268271D01*
X479777Y268265D01*
X479866Y268255D01*
X479954Y268242D01*
X480042Y268225D01*
X480129Y268203D01*
X480214Y268178D01*
X480299Y268150D01*
X480382Y268117D01*
X480464Y268081D01*
X480544Y268042D01*
X480622Y267999D01*
X480698Y267953D01*
X480773Y267903D01*
X480845Y267850D01*
X480914Y267794D01*
X480981Y267735D01*
X481046Y267674D01*
X481107Y267609D01*
X481166Y267542D01*
X481222Y267473D01*
X481275Y267401D01*
X481325Y267326D01*
X481371Y267250D01*
X481414Y267172D01*
X481453Y267092D01*
X481489Y267010D01*
X481522Y266927D01*
X481550Y266842D01*
X481575Y266757D01*
X481597Y266670D01*
X481614Y266582D01*
X481627Y266494D01*
X481637Y266405D01*
X481643Y266316D01*
X481645Y266227D01*
X481645Y264181D01*
X481645Y266636D02*
X484919Y268273D01*
X484919Y273657D02*
X484917Y273735D01*
X484912Y273813D01*
X484902Y273890D01*
X484889Y273967D01*
X484873Y274043D01*
X484853Y274118D01*
X484829Y274192D01*
X484802Y274265D01*
X484771Y274337D01*
X484737Y274407D01*
X484700Y274476D01*
X484659Y274542D01*
X484615Y274607D01*
X484569Y274669D01*
X484519Y274729D01*
X484467Y274787D01*
X484412Y274842D01*
X484354Y274894D01*
X484294Y274944D01*
X484232Y274990D01*
X484167Y275034D01*
X484101Y275075D01*
X484032Y275112D01*
X483962Y275146D01*
X483890Y275177D01*
X483817Y275204D01*
X483743Y275228D01*
X483668Y275248D01*
X483592Y275264D01*
X483515Y275277D01*
X483438Y275287D01*
X483360Y275292D01*
X483282Y275294D01*
X484919Y273657D02*
X484917Y273543D01*
X484912Y273430D01*
X484902Y273316D01*
X484889Y273203D01*
X484872Y273091D01*
X484852Y272979D01*
X484828Y272868D01*
X484800Y272757D01*
X484769Y272648D01*
X484734Y272540D01*
X484695Y272433D01*
X484653Y272327D01*
X484608Y272223D01*
X484559Y272120D01*
X484506Y272019D01*
X484451Y271920D01*
X484392Y271822D01*
X484330Y271727D01*
X484265Y271634D01*
X484197Y271542D01*
X484126Y271454D01*
X484052Y271367D01*
X483975Y271283D01*
X483896Y271202D01*
X479190Y271406D02*
X479112Y271408D01*
X479034Y271413D01*
X478957Y271423D01*
X478880Y271436D01*
X478804Y271452D01*
X478729Y271472D01*
X478655Y271496D01*
X478582Y271523D01*
X478510Y271554D01*
X478440Y271588D01*
X478372Y271625D01*
X478305Y271666D01*
X478240Y271710D01*
X478178Y271756D01*
X478118Y271806D01*
X478060Y271858D01*
X478005Y271913D01*
X477953Y271971D01*
X477903Y272031D01*
X477857Y272093D01*
X477813Y272158D01*
X477772Y272225D01*
X477735Y272293D01*
X477701Y272363D01*
X477670Y272435D01*
X477643Y272508D01*
X477619Y272582D01*
X477599Y272657D01*
X477583Y272733D01*
X477570Y272810D01*
X477560Y272887D01*
X477555Y272965D01*
X477553Y273043D01*
X477555Y273153D01*
X477561Y273262D01*
X477571Y273372D01*
X477584Y273480D01*
X477602Y273589D01*
X477623Y273696D01*
X477649Y273803D01*
X477678Y273909D01*
X477710Y274014D01*
X477747Y274117D01*
X477787Y274219D01*
X477831Y274320D01*
X477879Y274419D01*
X477929Y274516D01*
X477984Y274611D01*
X478042Y274704D01*
X478103Y274795D01*
X478167Y274884D01*
X480622Y272224D02*
X480580Y272158D01*
X480536Y272093D01*
X480488Y272031D01*
X480438Y271971D01*
X480385Y271913D01*
X480329Y271858D01*
X480271Y271805D01*
X480210Y271756D01*
X480147Y271709D01*
X480082Y271665D01*
X480015Y271625D01*
X479946Y271588D01*
X479875Y271554D01*
X479803Y271523D01*
X479729Y271496D01*
X479654Y271472D01*
X479579Y271452D01*
X479502Y271436D01*
X479425Y271423D01*
X479347Y271413D01*
X479268Y271408D01*
X479190Y271406D01*
X481849Y274475D02*
X481891Y274542D01*
X481935Y274607D01*
X481983Y274669D01*
X482033Y274729D01*
X482086Y274787D01*
X482142Y274842D01*
X482201Y274894D01*
X482261Y274944D01*
X482325Y274991D01*
X482390Y275034D01*
X482457Y275075D01*
X482526Y275112D01*
X482597Y275146D01*
X482669Y275177D01*
X482743Y275204D01*
X482817Y275228D01*
X482893Y275248D01*
X482970Y275264D01*
X483047Y275277D01*
X483125Y275287D01*
X483204Y275292D01*
X483282Y275294D01*
X481850Y274475D02*
X480622Y272224D01*
X477553Y279831D02*
X484919Y279831D01*
X477553Y277785D02*
X477553Y281877D01*
D11*
X57550Y189500D02*
X57552Y189570D01*
X57558Y189640D01*
X57568Y189709D01*
X57581Y189778D01*
X57599Y189846D01*
X57620Y189913D01*
X57645Y189978D01*
X57674Y190042D01*
X57706Y190105D01*
X57742Y190165D01*
X57781Y190223D01*
X57823Y190279D01*
X57868Y190333D01*
X57916Y190384D01*
X57967Y190432D01*
X58021Y190477D01*
X58077Y190519D01*
X58135Y190558D01*
X58195Y190594D01*
X58258Y190626D01*
X58322Y190655D01*
X58387Y190680D01*
X58454Y190701D01*
X58522Y190719D01*
X58591Y190732D01*
X58660Y190742D01*
X58730Y190748D01*
X58800Y190750D01*
X58870Y190748D01*
X58940Y190742D01*
X59009Y190732D01*
X59078Y190719D01*
X59146Y190701D01*
X59213Y190680D01*
X59278Y190655D01*
X59342Y190626D01*
X59405Y190594D01*
X59465Y190558D01*
X59523Y190519D01*
X59579Y190477D01*
X59633Y190432D01*
X59684Y190384D01*
X59732Y190333D01*
X59777Y190279D01*
X59819Y190223D01*
X59858Y190165D01*
X59894Y190105D01*
X59926Y190042D01*
X59955Y189978D01*
X59980Y189913D01*
X60001Y189846D01*
X60019Y189778D01*
X60032Y189709D01*
X60042Y189640D01*
X60048Y189570D01*
X60050Y189500D01*
X60048Y189430D01*
X60042Y189360D01*
X60032Y189291D01*
X60019Y189222D01*
X60001Y189154D01*
X59980Y189087D01*
X59955Y189022D01*
X59926Y188958D01*
X59894Y188895D01*
X59858Y188835D01*
X59819Y188777D01*
X59777Y188721D01*
X59732Y188667D01*
X59684Y188616D01*
X59633Y188568D01*
X59579Y188523D01*
X59523Y188481D01*
X59465Y188442D01*
X59405Y188406D01*
X59342Y188374D01*
X59278Y188345D01*
X59213Y188320D01*
X59146Y188299D01*
X59078Y188281D01*
X59009Y188268D01*
X58940Y188258D01*
X58870Y188252D01*
X58800Y188250D01*
X58730Y188252D01*
X58660Y188258D01*
X58591Y188268D01*
X58522Y188281D01*
X58454Y188299D01*
X58387Y188320D01*
X58322Y188345D01*
X58258Y188374D01*
X58195Y188406D01*
X58135Y188442D01*
X58077Y188481D01*
X58021Y188523D01*
X57967Y188568D01*
X57916Y188616D01*
X57868Y188667D01*
X57823Y188721D01*
X57781Y188777D01*
X57742Y188835D01*
X57706Y188895D01*
X57674Y188958D01*
X57645Y189022D01*
X57620Y189087D01*
X57599Y189154D01*
X57581Y189222D01*
X57568Y189291D01*
X57558Y189360D01*
X57552Y189430D01*
X57550Y189500D01*
D12*
X72092Y175442D02*
X72092Y163758D01*
X70794Y163758D02*
X73390Y163758D01*
X73390Y175442D02*
X70794Y175442D01*
X80554Y163758D02*
X83150Y163758D01*
X80554Y163758D02*
X80455Y163760D01*
X80355Y163766D01*
X80256Y163775D01*
X80158Y163788D01*
X80060Y163805D01*
X79962Y163826D01*
X79866Y163851D01*
X79771Y163879D01*
X79677Y163911D01*
X79584Y163946D01*
X79492Y163985D01*
X79402Y164028D01*
X79314Y164073D01*
X79227Y164123D01*
X79143Y164175D01*
X79060Y164231D01*
X78980Y164289D01*
X78902Y164351D01*
X78827Y164416D01*
X78754Y164484D01*
X78684Y164554D01*
X78616Y164627D01*
X78551Y164702D01*
X78489Y164780D01*
X78431Y164860D01*
X78375Y164943D01*
X78323Y165027D01*
X78273Y165114D01*
X78228Y165202D01*
X78185Y165292D01*
X78146Y165384D01*
X78111Y165477D01*
X78079Y165571D01*
X78051Y165666D01*
X78026Y165762D01*
X78005Y165860D01*
X77988Y165958D01*
X77975Y166056D01*
X77966Y166155D01*
X77960Y166255D01*
X77958Y166354D01*
X77957Y166354D02*
X77957Y172846D01*
X77958Y172846D02*
X77960Y172945D01*
X77966Y173045D01*
X77975Y173144D01*
X77988Y173242D01*
X78005Y173340D01*
X78026Y173438D01*
X78051Y173534D01*
X78079Y173629D01*
X78111Y173723D01*
X78146Y173816D01*
X78185Y173908D01*
X78228Y173998D01*
X78273Y174086D01*
X78323Y174173D01*
X78375Y174257D01*
X78431Y174340D01*
X78489Y174420D01*
X78551Y174498D01*
X78616Y174573D01*
X78684Y174646D01*
X78754Y174716D01*
X78827Y174784D01*
X78902Y174849D01*
X78980Y174911D01*
X79060Y174969D01*
X79143Y175025D01*
X79227Y175077D01*
X79314Y175127D01*
X79402Y175172D01*
X79492Y175215D01*
X79584Y175254D01*
X79676Y175289D01*
X79771Y175321D01*
X79866Y175349D01*
X79962Y175374D01*
X80060Y175395D01*
X80158Y175412D01*
X80256Y175425D01*
X80355Y175434D01*
X80455Y175440D01*
X80554Y175442D01*
X83150Y175442D01*
X87515Y172846D02*
X90761Y175442D01*
X90761Y163758D01*
X94006Y163758D02*
X87515Y163758D01*
D13*
X390350Y199000D02*
X405100Y199000D01*
D10*
X419812Y141783D02*
X419812Y134417D01*
X418994Y134417D02*
X420631Y134417D01*
X420631Y141783D02*
X418994Y141783D01*
X425232Y134417D02*
X426869Y134417D01*
X425232Y134417D02*
X425154Y134419D01*
X425076Y134424D01*
X424999Y134434D01*
X424922Y134447D01*
X424846Y134463D01*
X424771Y134483D01*
X424697Y134507D01*
X424624Y134534D01*
X424552Y134565D01*
X424482Y134599D01*
X424414Y134636D01*
X424347Y134677D01*
X424282Y134721D01*
X424220Y134767D01*
X424160Y134817D01*
X424102Y134869D01*
X424047Y134924D01*
X423995Y134982D01*
X423945Y135042D01*
X423899Y135104D01*
X423855Y135169D01*
X423814Y135236D01*
X423777Y135304D01*
X423743Y135374D01*
X423712Y135446D01*
X423685Y135519D01*
X423661Y135593D01*
X423641Y135668D01*
X423625Y135744D01*
X423612Y135821D01*
X423602Y135898D01*
X423597Y135976D01*
X423595Y136054D01*
X423595Y140146D01*
X423597Y140226D01*
X423603Y140306D01*
X423613Y140386D01*
X423626Y140465D01*
X423644Y140544D01*
X423665Y140621D01*
X423691Y140697D01*
X423720Y140772D01*
X423752Y140846D01*
X423788Y140918D01*
X423828Y140988D01*
X423871Y141055D01*
X423917Y141121D01*
X423967Y141184D01*
X424019Y141245D01*
X424074Y141304D01*
X424133Y141359D01*
X424193Y141411D01*
X424257Y141461D01*
X424323Y141507D01*
X424390Y141550D01*
X424460Y141590D01*
X424532Y141626D01*
X424606Y141658D01*
X424680Y141687D01*
X424757Y141713D01*
X424834Y141734D01*
X424913Y141752D01*
X424992Y141765D01*
X425072Y141775D01*
X425152Y141781D01*
X425232Y141783D01*
X426869Y141783D01*
X431965Y141784D02*
X432050Y141782D01*
X432135Y141776D01*
X432219Y141766D01*
X432303Y141753D01*
X432387Y141735D01*
X432469Y141714D01*
X432550Y141689D01*
X432630Y141660D01*
X432709Y141627D01*
X432786Y141591D01*
X432861Y141551D01*
X432935Y141508D01*
X433006Y141462D01*
X433075Y141412D01*
X433142Y141359D01*
X433206Y141303D01*
X433267Y141244D01*
X433326Y141183D01*
X433382Y141119D01*
X433435Y141052D01*
X433485Y140983D01*
X433531Y140912D01*
X433574Y140838D01*
X433614Y140763D01*
X433650Y140686D01*
X433683Y140607D01*
X433712Y140527D01*
X433737Y140446D01*
X433758Y140364D01*
X433776Y140280D01*
X433789Y140196D01*
X433799Y140112D01*
X433805Y140027D01*
X433807Y139942D01*
X431965Y141783D02*
X431869Y141781D01*
X431773Y141775D01*
X431678Y141765D01*
X431583Y141752D01*
X431488Y141734D01*
X431395Y141713D01*
X431302Y141688D01*
X431211Y141659D01*
X431120Y141627D01*
X431031Y141591D01*
X430944Y141551D01*
X430858Y141508D01*
X430774Y141462D01*
X430692Y141412D01*
X430612Y141358D01*
X430535Y141302D01*
X430460Y141242D01*
X430387Y141180D01*
X430317Y141114D01*
X430249Y141046D01*
X430184Y140975D01*
X430123Y140902D01*
X430064Y140826D01*
X430008Y140747D01*
X429956Y140667D01*
X429907Y140584D01*
X429861Y140500D01*
X429819Y140414D01*
X429781Y140326D01*
X429746Y140237D01*
X429714Y140146D01*
X433192Y138510D02*
X433252Y138569D01*
X433309Y138631D01*
X433364Y138695D01*
X433415Y138762D01*
X433464Y138831D01*
X433510Y138901D01*
X433553Y138974D01*
X433593Y139048D01*
X433629Y139124D01*
X433662Y139202D01*
X433692Y139281D01*
X433719Y139361D01*
X433742Y139442D01*
X433761Y139524D01*
X433777Y139606D01*
X433790Y139690D01*
X433799Y139774D01*
X433804Y139858D01*
X433806Y139942D01*
X433193Y138509D02*
X429714Y134417D01*
X433806Y134417D01*
D14*
X217600Y270300D02*
X217600Y275300D01*
X217600Y257300D02*
X217600Y253260D01*
X217600Y253950D02*
X217600Y252300D01*
X328600Y270300D02*
X328600Y275300D01*
X328600Y257300D02*
X328600Y253260D01*
X328600Y252300D01*
X165400Y34900D02*
X165400Y14800D01*
X327400Y14800D01*
X327400Y34900D01*
X186400Y60300D02*
X165400Y60300D01*
X306400Y60300D02*
X327400Y60300D01*
D15*
X193400Y70300D03*
D14*
X193402Y70344D01*
X193408Y70387D01*
X193417Y70429D01*
X193430Y70471D01*
X193447Y70511D01*
X193467Y70550D01*
X193490Y70587D01*
X193517Y70621D01*
X193546Y70654D01*
X193579Y70683D01*
X193613Y70710D01*
X193650Y70733D01*
X193689Y70753D01*
X193729Y70770D01*
X193771Y70783D01*
X193813Y70792D01*
X193856Y70798D01*
X193900Y70800D01*
X193944Y70798D01*
X193987Y70792D01*
X194029Y70783D01*
X194071Y70770D01*
X194111Y70753D01*
X194150Y70733D01*
X194187Y70710D01*
X194221Y70683D01*
X194254Y70654D01*
X194283Y70621D01*
X194310Y70587D01*
X194333Y70550D01*
X194353Y70511D01*
X194370Y70471D01*
X194383Y70429D01*
X194392Y70387D01*
X194398Y70344D01*
X194400Y70300D01*
D15*
X194400Y70300D03*
D14*
X194398Y70256D01*
X194392Y70213D01*
X194383Y70171D01*
X194370Y70129D01*
X194353Y70089D01*
X194333Y70050D01*
X194310Y70013D01*
X194283Y69979D01*
X194254Y69946D01*
X194221Y69917D01*
X194187Y69890D01*
X194150Y69867D01*
X194111Y69847D01*
X194071Y69830D01*
X194029Y69817D01*
X193987Y69808D01*
X193944Y69802D01*
X193900Y69800D01*
X193856Y69802D01*
X193813Y69808D01*
X193771Y69817D01*
X193729Y69830D01*
X193689Y69847D01*
X193650Y69867D01*
X193613Y69890D01*
X193579Y69917D01*
X193546Y69946D01*
X193517Y69979D01*
X193490Y70013D01*
X193467Y70050D01*
X193447Y70089D01*
X193430Y70129D01*
X193417Y70171D01*
X193408Y70213D01*
X193402Y70256D01*
X193400Y70300D01*
D11*
X71550Y63400D02*
X71552Y63470D01*
X71558Y63540D01*
X71568Y63609D01*
X71581Y63678D01*
X71599Y63746D01*
X71620Y63813D01*
X71645Y63878D01*
X71674Y63942D01*
X71706Y64005D01*
X71742Y64065D01*
X71781Y64123D01*
X71823Y64179D01*
X71868Y64233D01*
X71916Y64284D01*
X71967Y64332D01*
X72021Y64377D01*
X72077Y64419D01*
X72135Y64458D01*
X72195Y64494D01*
X72258Y64526D01*
X72322Y64555D01*
X72387Y64580D01*
X72454Y64601D01*
X72522Y64619D01*
X72591Y64632D01*
X72660Y64642D01*
X72730Y64648D01*
X72800Y64650D01*
X72870Y64648D01*
X72940Y64642D01*
X73009Y64632D01*
X73078Y64619D01*
X73146Y64601D01*
X73213Y64580D01*
X73278Y64555D01*
X73342Y64526D01*
X73405Y64494D01*
X73465Y64458D01*
X73523Y64419D01*
X73579Y64377D01*
X73633Y64332D01*
X73684Y64284D01*
X73732Y64233D01*
X73777Y64179D01*
X73819Y64123D01*
X73858Y64065D01*
X73894Y64005D01*
X73926Y63942D01*
X73955Y63878D01*
X73980Y63813D01*
X74001Y63746D01*
X74019Y63678D01*
X74032Y63609D01*
X74042Y63540D01*
X74048Y63470D01*
X74050Y63400D01*
X74048Y63330D01*
X74042Y63260D01*
X74032Y63191D01*
X74019Y63122D01*
X74001Y63054D01*
X73980Y62987D01*
X73955Y62922D01*
X73926Y62858D01*
X73894Y62795D01*
X73858Y62735D01*
X73819Y62677D01*
X73777Y62621D01*
X73732Y62567D01*
X73684Y62516D01*
X73633Y62468D01*
X73579Y62423D01*
X73523Y62381D01*
X73465Y62342D01*
X73405Y62306D01*
X73342Y62274D01*
X73278Y62245D01*
X73213Y62220D01*
X73146Y62199D01*
X73078Y62181D01*
X73009Y62168D01*
X72940Y62158D01*
X72870Y62152D01*
X72800Y62150D01*
X72730Y62152D01*
X72660Y62158D01*
X72591Y62168D01*
X72522Y62181D01*
X72454Y62199D01*
X72387Y62220D01*
X72322Y62245D01*
X72258Y62274D01*
X72195Y62306D01*
X72135Y62342D01*
X72077Y62381D01*
X72021Y62423D01*
X71967Y62468D01*
X71916Y62516D01*
X71868Y62567D01*
X71823Y62621D01*
X71781Y62677D01*
X71742Y62735D01*
X71706Y62795D01*
X71674Y62858D01*
X71645Y62922D01*
X71620Y62987D01*
X71599Y63054D01*
X71581Y63122D01*
X71568Y63191D01*
X71558Y63260D01*
X71552Y63330D01*
X71550Y63400D01*
D10*
X80774Y38683D02*
X80774Y33363D01*
X80776Y33274D01*
X80782Y33185D01*
X80792Y33096D01*
X80805Y33008D01*
X80822Y32920D01*
X80844Y32833D01*
X80869Y32748D01*
X80897Y32663D01*
X80930Y32580D01*
X80966Y32498D01*
X81005Y32418D01*
X81048Y32340D01*
X81094Y32264D01*
X81144Y32189D01*
X81197Y32117D01*
X81253Y32048D01*
X81312Y31981D01*
X81373Y31916D01*
X81438Y31855D01*
X81505Y31796D01*
X81574Y31740D01*
X81646Y31687D01*
X81721Y31637D01*
X81797Y31591D01*
X81875Y31548D01*
X81955Y31509D01*
X82037Y31473D01*
X82120Y31440D01*
X82205Y31412D01*
X82290Y31387D01*
X82377Y31365D01*
X82465Y31348D01*
X82553Y31335D01*
X82642Y31325D01*
X82731Y31319D01*
X82820Y31317D01*
X82909Y31319D01*
X82998Y31325D01*
X83087Y31335D01*
X83175Y31348D01*
X83263Y31365D01*
X83350Y31387D01*
X83435Y31412D01*
X83520Y31440D01*
X83603Y31473D01*
X83685Y31509D01*
X83765Y31548D01*
X83843Y31591D01*
X83919Y31637D01*
X83994Y31687D01*
X84066Y31740D01*
X84135Y31796D01*
X84202Y31855D01*
X84267Y31916D01*
X84328Y31981D01*
X84387Y32048D01*
X84443Y32117D01*
X84496Y32189D01*
X84546Y32264D01*
X84592Y32340D01*
X84635Y32418D01*
X84674Y32498D01*
X84710Y32580D01*
X84743Y32663D01*
X84771Y32748D01*
X84796Y32833D01*
X84818Y32920D01*
X84835Y33008D01*
X84848Y33096D01*
X84858Y33185D01*
X84864Y33274D01*
X84866Y33363D01*
X84867Y33363D02*
X84867Y38683D01*
X88333Y37046D02*
X90380Y38683D01*
X90380Y31317D01*
X92426Y31317D02*
X88333Y31317D01*
D12*
X79142Y73754D02*
X79142Y76351D01*
X79142Y73754D02*
X79140Y73655D01*
X79134Y73555D01*
X79125Y73456D01*
X79112Y73358D01*
X79095Y73260D01*
X79074Y73162D01*
X79049Y73066D01*
X79021Y72971D01*
X78989Y72877D01*
X78954Y72784D01*
X78915Y72692D01*
X78872Y72602D01*
X78827Y72514D01*
X78777Y72427D01*
X78725Y72343D01*
X78669Y72260D01*
X78611Y72180D01*
X78549Y72102D01*
X78484Y72027D01*
X78416Y71954D01*
X78346Y71884D01*
X78273Y71816D01*
X78198Y71751D01*
X78120Y71689D01*
X78040Y71631D01*
X77957Y71575D01*
X77873Y71523D01*
X77786Y71473D01*
X77698Y71428D01*
X77608Y71385D01*
X77516Y71346D01*
X77423Y71311D01*
X77329Y71279D01*
X77234Y71251D01*
X77138Y71226D01*
X77040Y71205D01*
X76942Y71188D01*
X76844Y71175D01*
X76745Y71166D01*
X76645Y71160D01*
X76546Y71158D01*
X70054Y71158D01*
X69955Y71160D01*
X69855Y71166D01*
X69756Y71175D01*
X69658Y71188D01*
X69560Y71206D01*
X69462Y71226D01*
X69366Y71251D01*
X69270Y71279D01*
X69176Y71311D01*
X69083Y71346D01*
X68992Y71385D01*
X68902Y71428D01*
X68813Y71473D01*
X68727Y71523D01*
X68642Y71575D01*
X68560Y71631D01*
X68480Y71690D01*
X68402Y71751D01*
X68326Y71816D01*
X68253Y71884D01*
X68183Y71954D01*
X68115Y72027D01*
X68050Y72103D01*
X67989Y72181D01*
X67930Y72261D01*
X67874Y72343D01*
X67822Y72428D01*
X67773Y72514D01*
X67727Y72603D01*
X67684Y72693D01*
X67645Y72784D01*
X67610Y72877D01*
X67578Y72971D01*
X67550Y73067D01*
X67525Y73163D01*
X67505Y73261D01*
X67487Y73359D01*
X67474Y73457D01*
X67465Y73556D01*
X67459Y73655D01*
X67457Y73755D01*
X67458Y73754D02*
X67458Y76351D01*
X70054Y80716D02*
X67458Y83962D01*
X79142Y83962D01*
X79142Y87207D02*
X79142Y80716D01*
D10*
X68569Y18231D02*
X61203Y18231D01*
X61203Y20277D01*
X61205Y20366D01*
X61211Y20455D01*
X61221Y20544D01*
X61234Y20632D01*
X61251Y20720D01*
X61273Y20807D01*
X61298Y20892D01*
X61326Y20977D01*
X61359Y21060D01*
X61395Y21142D01*
X61434Y21222D01*
X61477Y21300D01*
X61523Y21376D01*
X61573Y21451D01*
X61626Y21523D01*
X61682Y21592D01*
X61741Y21659D01*
X61802Y21724D01*
X61867Y21785D01*
X61934Y21844D01*
X62003Y21900D01*
X62075Y21953D01*
X62150Y22003D01*
X62226Y22049D01*
X62304Y22092D01*
X62384Y22131D01*
X62466Y22167D01*
X62549Y22200D01*
X62634Y22228D01*
X62719Y22253D01*
X62806Y22275D01*
X62894Y22292D01*
X62982Y22305D01*
X63071Y22315D01*
X63160Y22321D01*
X63249Y22323D01*
X63338Y22321D01*
X63427Y22315D01*
X63516Y22305D01*
X63604Y22292D01*
X63692Y22275D01*
X63779Y22253D01*
X63864Y22228D01*
X63949Y22200D01*
X64032Y22167D01*
X64114Y22131D01*
X64194Y22092D01*
X64272Y22049D01*
X64348Y22003D01*
X64423Y21953D01*
X64495Y21900D01*
X64564Y21844D01*
X64631Y21785D01*
X64696Y21724D01*
X64757Y21659D01*
X64816Y21592D01*
X64872Y21523D01*
X64925Y21451D01*
X64975Y21376D01*
X65021Y21300D01*
X65064Y21222D01*
X65103Y21142D01*
X65139Y21060D01*
X65172Y20977D01*
X65200Y20892D01*
X65225Y20807D01*
X65247Y20720D01*
X65264Y20632D01*
X65277Y20544D01*
X65287Y20455D01*
X65293Y20366D01*
X65295Y20277D01*
X65295Y18231D01*
X65295Y20686D02*
X68569Y22323D01*
X62840Y25495D02*
X61203Y27541D01*
X68569Y27541D01*
X68569Y25495D02*
X68569Y29587D01*
X45497Y60113D02*
X38131Y60113D01*
X38131Y62159D01*
X38133Y62248D01*
X38139Y62337D01*
X38149Y62426D01*
X38162Y62514D01*
X38179Y62602D01*
X38201Y62689D01*
X38226Y62774D01*
X38254Y62859D01*
X38287Y62942D01*
X38323Y63024D01*
X38362Y63104D01*
X38405Y63182D01*
X38451Y63258D01*
X38501Y63333D01*
X38554Y63405D01*
X38610Y63474D01*
X38669Y63541D01*
X38730Y63606D01*
X38795Y63667D01*
X38862Y63726D01*
X38931Y63782D01*
X39003Y63835D01*
X39078Y63885D01*
X39154Y63931D01*
X39232Y63974D01*
X39312Y64013D01*
X39394Y64049D01*
X39477Y64082D01*
X39562Y64110D01*
X39647Y64135D01*
X39734Y64157D01*
X39822Y64174D01*
X39910Y64187D01*
X39999Y64197D01*
X40088Y64203D01*
X40177Y64205D01*
X40266Y64203D01*
X40355Y64197D01*
X40444Y64187D01*
X40532Y64174D01*
X40620Y64157D01*
X40707Y64135D01*
X40792Y64110D01*
X40877Y64082D01*
X40960Y64049D01*
X41042Y64013D01*
X41122Y63974D01*
X41200Y63931D01*
X41276Y63885D01*
X41351Y63835D01*
X41423Y63782D01*
X41492Y63726D01*
X41559Y63667D01*
X41624Y63606D01*
X41685Y63541D01*
X41744Y63474D01*
X41800Y63405D01*
X41853Y63333D01*
X41903Y63258D01*
X41949Y63182D01*
X41992Y63104D01*
X42031Y63024D01*
X42067Y62942D01*
X42100Y62859D01*
X42128Y62774D01*
X42153Y62689D01*
X42175Y62602D01*
X42192Y62514D01*
X42205Y62426D01*
X42215Y62337D01*
X42221Y62248D01*
X42223Y62159D01*
X42223Y60113D01*
X42223Y62568D02*
X45497Y64205D01*
X39973Y71470D02*
X39888Y71468D01*
X39803Y71462D01*
X39719Y71452D01*
X39635Y71439D01*
X39551Y71421D01*
X39469Y71400D01*
X39388Y71375D01*
X39308Y71346D01*
X39229Y71313D01*
X39152Y71277D01*
X39077Y71237D01*
X39003Y71194D01*
X38932Y71148D01*
X38863Y71098D01*
X38796Y71045D01*
X38732Y70989D01*
X38671Y70930D01*
X38612Y70869D01*
X38556Y70805D01*
X38503Y70738D01*
X38453Y70669D01*
X38407Y70598D01*
X38364Y70524D01*
X38324Y70449D01*
X38288Y70372D01*
X38255Y70293D01*
X38226Y70213D01*
X38201Y70132D01*
X38180Y70050D01*
X38162Y69966D01*
X38149Y69882D01*
X38139Y69798D01*
X38133Y69713D01*
X38131Y69628D01*
X38133Y69532D01*
X38139Y69436D01*
X38149Y69341D01*
X38162Y69246D01*
X38180Y69151D01*
X38201Y69058D01*
X38226Y68965D01*
X38255Y68874D01*
X38287Y68783D01*
X38323Y68694D01*
X38363Y68607D01*
X38406Y68521D01*
X38452Y68437D01*
X38502Y68355D01*
X38556Y68275D01*
X38612Y68198D01*
X38672Y68123D01*
X38734Y68050D01*
X38800Y67980D01*
X38868Y67912D01*
X38939Y67847D01*
X39012Y67786D01*
X39088Y67727D01*
X39167Y67671D01*
X39247Y67619D01*
X39330Y67570D01*
X39414Y67524D01*
X39500Y67482D01*
X39588Y67444D01*
X39677Y67409D01*
X39768Y67377D01*
X41405Y70855D02*
X41346Y70915D01*
X41284Y70972D01*
X41220Y71027D01*
X41153Y71078D01*
X41084Y71127D01*
X41014Y71173D01*
X40941Y71216D01*
X40867Y71256D01*
X40791Y71292D01*
X40713Y71325D01*
X40634Y71355D01*
X40554Y71382D01*
X40473Y71405D01*
X40391Y71424D01*
X40309Y71440D01*
X40225Y71453D01*
X40141Y71462D01*
X40057Y71467D01*
X39973Y71469D01*
X41405Y70855D02*
X45497Y67377D01*
X45497Y71469D01*
X143969Y263768D02*
X143969Y265405D01*
X143969Y263768D02*
X143967Y263690D01*
X143962Y263612D01*
X143952Y263535D01*
X143939Y263458D01*
X143923Y263382D01*
X143903Y263307D01*
X143879Y263233D01*
X143852Y263160D01*
X143821Y263088D01*
X143787Y263018D01*
X143750Y262950D01*
X143709Y262883D01*
X143665Y262818D01*
X143619Y262756D01*
X143569Y262696D01*
X143517Y262638D01*
X143462Y262583D01*
X143404Y262531D01*
X143344Y262481D01*
X143282Y262435D01*
X143217Y262391D01*
X143151Y262350D01*
X143082Y262313D01*
X143012Y262279D01*
X142940Y262248D01*
X142867Y262221D01*
X142793Y262197D01*
X142718Y262177D01*
X142642Y262161D01*
X142565Y262148D01*
X142488Y262138D01*
X142410Y262133D01*
X142332Y262131D01*
X138240Y262131D01*
X138160Y262133D01*
X138080Y262139D01*
X138000Y262149D01*
X137921Y262162D01*
X137842Y262180D01*
X137765Y262201D01*
X137689Y262227D01*
X137614Y262256D01*
X137540Y262288D01*
X137468Y262324D01*
X137398Y262364D01*
X137331Y262407D01*
X137265Y262453D01*
X137202Y262503D01*
X137141Y262555D01*
X137082Y262610D01*
X137027Y262669D01*
X136975Y262729D01*
X136925Y262793D01*
X136879Y262858D01*
X136836Y262926D01*
X136796Y262996D01*
X136760Y263068D01*
X136728Y263142D01*
X136699Y263216D01*
X136674Y263293D01*
X136652Y263370D01*
X136634Y263449D01*
X136621Y263528D01*
X136611Y263607D01*
X136605Y263688D01*
X136603Y263768D01*
X136603Y265405D01*
X136603Y270501D02*
X136605Y270586D01*
X136611Y270671D01*
X136621Y270755D01*
X136634Y270839D01*
X136652Y270923D01*
X136673Y271005D01*
X136698Y271086D01*
X136727Y271166D01*
X136760Y271245D01*
X136796Y271322D01*
X136836Y271397D01*
X136879Y271471D01*
X136925Y271542D01*
X136975Y271611D01*
X137028Y271678D01*
X137084Y271742D01*
X137143Y271803D01*
X137204Y271862D01*
X137268Y271918D01*
X137335Y271971D01*
X137404Y272021D01*
X137475Y272067D01*
X137549Y272110D01*
X137624Y272150D01*
X137701Y272186D01*
X137780Y272219D01*
X137860Y272248D01*
X137941Y272273D01*
X138023Y272294D01*
X138107Y272312D01*
X138191Y272325D01*
X138275Y272335D01*
X138360Y272341D01*
X138445Y272343D01*
X136603Y270501D02*
X136605Y270405D01*
X136611Y270309D01*
X136621Y270214D01*
X136634Y270119D01*
X136652Y270024D01*
X136673Y269931D01*
X136698Y269838D01*
X136727Y269747D01*
X136759Y269656D01*
X136795Y269567D01*
X136835Y269480D01*
X136878Y269394D01*
X136924Y269310D01*
X136974Y269228D01*
X137028Y269148D01*
X137084Y269071D01*
X137144Y268996D01*
X137206Y268923D01*
X137272Y268853D01*
X137340Y268785D01*
X137411Y268720D01*
X137484Y268659D01*
X137560Y268600D01*
X137639Y268544D01*
X137719Y268492D01*
X137802Y268443D01*
X137886Y268397D01*
X137972Y268355D01*
X138060Y268317D01*
X138149Y268282D01*
X138240Y268250D01*
X139877Y271728D02*
X139818Y271788D01*
X139756Y271845D01*
X139692Y271900D01*
X139625Y271951D01*
X139556Y272000D01*
X139486Y272046D01*
X139413Y272089D01*
X139339Y272129D01*
X139263Y272165D01*
X139185Y272198D01*
X139106Y272228D01*
X139026Y272255D01*
X138945Y272278D01*
X138863Y272297D01*
X138781Y272313D01*
X138697Y272326D01*
X138613Y272335D01*
X138529Y272340D01*
X138445Y272342D01*
X139877Y271728D02*
X143969Y268250D01*
X143969Y272342D01*
X166069Y264905D02*
X166069Y263268D01*
X166067Y263190D01*
X166062Y263112D01*
X166052Y263035D01*
X166039Y262958D01*
X166023Y262882D01*
X166003Y262807D01*
X165979Y262733D01*
X165952Y262660D01*
X165921Y262588D01*
X165887Y262518D01*
X165850Y262450D01*
X165809Y262383D01*
X165765Y262318D01*
X165719Y262256D01*
X165669Y262196D01*
X165617Y262138D01*
X165562Y262083D01*
X165504Y262031D01*
X165444Y261981D01*
X165382Y261935D01*
X165317Y261891D01*
X165251Y261850D01*
X165182Y261813D01*
X165112Y261779D01*
X165040Y261748D01*
X164967Y261721D01*
X164893Y261697D01*
X164818Y261677D01*
X164742Y261661D01*
X164665Y261648D01*
X164588Y261638D01*
X164510Y261633D01*
X164432Y261631D01*
X160340Y261631D01*
X160260Y261633D01*
X160180Y261639D01*
X160100Y261649D01*
X160021Y261662D01*
X159942Y261680D01*
X159865Y261701D01*
X159789Y261727D01*
X159714Y261756D01*
X159640Y261788D01*
X159568Y261824D01*
X159498Y261864D01*
X159431Y261907D01*
X159365Y261953D01*
X159302Y262003D01*
X159241Y262055D01*
X159182Y262110D01*
X159127Y262169D01*
X159075Y262229D01*
X159025Y262293D01*
X158979Y262358D01*
X158936Y262426D01*
X158896Y262496D01*
X158860Y262568D01*
X158828Y262642D01*
X158799Y262716D01*
X158774Y262793D01*
X158752Y262870D01*
X158734Y262949D01*
X158721Y263028D01*
X158711Y263107D01*
X158705Y263188D01*
X158703Y263268D01*
X158703Y264905D01*
X166069Y267750D02*
X166069Y269796D01*
X166067Y269885D01*
X166061Y269974D01*
X166051Y270063D01*
X166038Y270151D01*
X166021Y270239D01*
X165999Y270326D01*
X165974Y270411D01*
X165946Y270496D01*
X165913Y270579D01*
X165877Y270661D01*
X165838Y270741D01*
X165795Y270819D01*
X165749Y270895D01*
X165699Y270970D01*
X165646Y271042D01*
X165590Y271111D01*
X165531Y271178D01*
X165470Y271243D01*
X165405Y271304D01*
X165338Y271363D01*
X165269Y271419D01*
X165197Y271472D01*
X165122Y271522D01*
X165046Y271568D01*
X164968Y271611D01*
X164888Y271650D01*
X164806Y271686D01*
X164723Y271719D01*
X164638Y271747D01*
X164553Y271772D01*
X164466Y271794D01*
X164378Y271811D01*
X164290Y271824D01*
X164201Y271834D01*
X164112Y271840D01*
X164023Y271842D01*
X163934Y271840D01*
X163845Y271834D01*
X163756Y271824D01*
X163668Y271811D01*
X163580Y271794D01*
X163493Y271772D01*
X163408Y271747D01*
X163323Y271719D01*
X163240Y271686D01*
X163158Y271650D01*
X163078Y271611D01*
X163000Y271568D01*
X162924Y271522D01*
X162849Y271472D01*
X162777Y271419D01*
X162708Y271363D01*
X162641Y271304D01*
X162576Y271243D01*
X162515Y271178D01*
X162456Y271111D01*
X162400Y271042D01*
X162347Y270970D01*
X162297Y270895D01*
X162251Y270819D01*
X162208Y270741D01*
X162169Y270661D01*
X162133Y270579D01*
X162100Y270496D01*
X162072Y270411D01*
X162047Y270326D01*
X162025Y270239D01*
X162008Y270151D01*
X161995Y270063D01*
X161985Y269974D01*
X161979Y269885D01*
X161977Y269796D01*
X158703Y270205D02*
X158703Y267750D01*
X158703Y270205D02*
X158705Y270284D01*
X158711Y270363D01*
X158720Y270442D01*
X158733Y270520D01*
X158751Y270597D01*
X158771Y270673D01*
X158796Y270748D01*
X158824Y270822D01*
X158855Y270895D01*
X158891Y270966D01*
X158929Y271035D01*
X158971Y271102D01*
X159016Y271167D01*
X159064Y271230D01*
X159115Y271291D01*
X159169Y271348D01*
X159225Y271404D01*
X159284Y271456D01*
X159346Y271506D01*
X159410Y271552D01*
X159476Y271596D01*
X159544Y271636D01*
X159614Y271672D01*
X159686Y271706D01*
X159760Y271736D01*
X159834Y271762D01*
X159910Y271785D01*
X159987Y271803D01*
X160064Y271819D01*
X160143Y271830D01*
X160221Y271838D01*
X160300Y271842D01*
X160380Y271842D01*
X160459Y271838D01*
X160537Y271830D01*
X160616Y271819D01*
X160693Y271803D01*
X160770Y271785D01*
X160846Y271762D01*
X160920Y271736D01*
X160994Y271706D01*
X161066Y271672D01*
X161136Y271636D01*
X161204Y271596D01*
X161270Y271552D01*
X161334Y271506D01*
X161396Y271456D01*
X161455Y271404D01*
X161511Y271348D01*
X161565Y271291D01*
X161616Y271230D01*
X161664Y271167D01*
X161709Y271102D01*
X161751Y271035D01*
X161789Y270966D01*
X161825Y270895D01*
X161856Y270822D01*
X161884Y270748D01*
X161909Y270673D01*
X161929Y270597D01*
X161947Y270520D01*
X161960Y270442D01*
X161969Y270363D01*
X161975Y270284D01*
X161977Y270205D01*
X161977Y268569D01*
X187413Y283503D02*
X187413Y290869D01*
X189459Y290869D01*
X189548Y290867D01*
X189637Y290861D01*
X189726Y290851D01*
X189814Y290838D01*
X189902Y290821D01*
X189989Y290799D01*
X190074Y290774D01*
X190159Y290746D01*
X190242Y290713D01*
X190324Y290677D01*
X190404Y290638D01*
X190482Y290595D01*
X190558Y290549D01*
X190633Y290499D01*
X190705Y290446D01*
X190774Y290390D01*
X190841Y290331D01*
X190906Y290270D01*
X190967Y290205D01*
X191026Y290138D01*
X191082Y290069D01*
X191135Y289997D01*
X191185Y289922D01*
X191231Y289846D01*
X191274Y289768D01*
X191313Y289688D01*
X191349Y289606D01*
X191382Y289523D01*
X191410Y289438D01*
X191435Y289353D01*
X191457Y289266D01*
X191474Y289178D01*
X191487Y289090D01*
X191497Y289001D01*
X191503Y288912D01*
X191505Y288823D01*
X191503Y288734D01*
X191497Y288645D01*
X191487Y288556D01*
X191474Y288468D01*
X191457Y288380D01*
X191435Y288293D01*
X191410Y288208D01*
X191382Y288123D01*
X191349Y288040D01*
X191313Y287958D01*
X191274Y287878D01*
X191231Y287800D01*
X191185Y287724D01*
X191135Y287649D01*
X191082Y287577D01*
X191026Y287508D01*
X190967Y287441D01*
X190906Y287376D01*
X190841Y287315D01*
X190774Y287256D01*
X190705Y287200D01*
X190633Y287147D01*
X190558Y287097D01*
X190482Y287051D01*
X190404Y287008D01*
X190324Y286969D01*
X190242Y286933D01*
X190159Y286900D01*
X190074Y286872D01*
X189989Y286847D01*
X189902Y286825D01*
X189814Y286808D01*
X189726Y286795D01*
X189637Y286785D01*
X189548Y286779D01*
X189459Y286777D01*
X187413Y286777D01*
X189868Y286777D02*
X191505Y283503D01*
X194677Y283503D02*
X196723Y283503D01*
X196812Y283505D01*
X196901Y283511D01*
X196990Y283521D01*
X197078Y283534D01*
X197166Y283551D01*
X197253Y283573D01*
X197338Y283598D01*
X197423Y283626D01*
X197506Y283659D01*
X197588Y283695D01*
X197668Y283734D01*
X197746Y283777D01*
X197822Y283823D01*
X197897Y283873D01*
X197969Y283926D01*
X198038Y283982D01*
X198105Y284041D01*
X198170Y284102D01*
X198231Y284167D01*
X198290Y284234D01*
X198346Y284303D01*
X198399Y284375D01*
X198449Y284450D01*
X198495Y284526D01*
X198538Y284604D01*
X198577Y284684D01*
X198613Y284766D01*
X198646Y284849D01*
X198674Y284934D01*
X198699Y285019D01*
X198721Y285106D01*
X198738Y285194D01*
X198751Y285282D01*
X198761Y285371D01*
X198767Y285460D01*
X198769Y285549D01*
X198767Y285638D01*
X198761Y285727D01*
X198751Y285816D01*
X198738Y285904D01*
X198721Y285992D01*
X198699Y286079D01*
X198674Y286164D01*
X198646Y286249D01*
X198613Y286332D01*
X198577Y286414D01*
X198538Y286494D01*
X198495Y286572D01*
X198449Y286648D01*
X198399Y286723D01*
X198346Y286795D01*
X198290Y286864D01*
X198231Y286931D01*
X198170Y286996D01*
X198105Y287057D01*
X198038Y287116D01*
X197969Y287172D01*
X197897Y287225D01*
X197822Y287275D01*
X197746Y287321D01*
X197668Y287364D01*
X197588Y287403D01*
X197506Y287439D01*
X197423Y287472D01*
X197338Y287500D01*
X197253Y287525D01*
X197166Y287547D01*
X197078Y287564D01*
X196990Y287577D01*
X196901Y287587D01*
X196812Y287593D01*
X196723Y287595D01*
X197132Y290869D02*
X194677Y290869D01*
X197132Y290869D02*
X197211Y290867D01*
X197290Y290861D01*
X197369Y290852D01*
X197447Y290839D01*
X197524Y290821D01*
X197600Y290801D01*
X197675Y290776D01*
X197749Y290748D01*
X197822Y290717D01*
X197893Y290681D01*
X197962Y290643D01*
X198029Y290601D01*
X198094Y290556D01*
X198157Y290508D01*
X198218Y290457D01*
X198275Y290403D01*
X198331Y290347D01*
X198383Y290288D01*
X198433Y290226D01*
X198479Y290162D01*
X198523Y290096D01*
X198563Y290028D01*
X198599Y289958D01*
X198633Y289886D01*
X198663Y289812D01*
X198689Y289738D01*
X198712Y289662D01*
X198730Y289585D01*
X198746Y289508D01*
X198757Y289429D01*
X198765Y289351D01*
X198769Y289272D01*
X198769Y289192D01*
X198765Y289113D01*
X198757Y289035D01*
X198746Y288956D01*
X198730Y288879D01*
X198712Y288802D01*
X198689Y288726D01*
X198663Y288652D01*
X198633Y288578D01*
X198599Y288506D01*
X198563Y288436D01*
X198523Y288368D01*
X198479Y288302D01*
X198433Y288238D01*
X198383Y288176D01*
X198331Y288117D01*
X198275Y288061D01*
X198218Y288007D01*
X198157Y287956D01*
X198094Y287908D01*
X198029Y287863D01*
X197962Y287821D01*
X197893Y287783D01*
X197822Y287747D01*
X197749Y287716D01*
X197675Y287688D01*
X197600Y287663D01*
X197524Y287643D01*
X197447Y287625D01*
X197369Y287612D01*
X197290Y287603D01*
X197211Y287597D01*
X197132Y287595D01*
X195495Y287595D01*
D14*
X123600Y69600D02*
X123600Y49600D01*
D10*
X129414Y45883D02*
X129414Y38517D01*
X132688Y38517D01*
X139587Y44042D02*
X139585Y44127D01*
X139579Y44212D01*
X139569Y44296D01*
X139556Y44380D01*
X139538Y44464D01*
X139517Y44546D01*
X139492Y44627D01*
X139463Y44707D01*
X139430Y44786D01*
X139394Y44863D01*
X139354Y44938D01*
X139311Y45012D01*
X139265Y45083D01*
X139215Y45152D01*
X139162Y45219D01*
X139106Y45283D01*
X139047Y45344D01*
X138986Y45403D01*
X138922Y45459D01*
X138855Y45512D01*
X138786Y45562D01*
X138715Y45608D01*
X138641Y45651D01*
X138566Y45691D01*
X138489Y45727D01*
X138410Y45760D01*
X138330Y45789D01*
X138249Y45814D01*
X138167Y45835D01*
X138083Y45853D01*
X137999Y45866D01*
X137915Y45876D01*
X137830Y45882D01*
X137745Y45884D01*
X137745Y45883D02*
X137649Y45881D01*
X137553Y45875D01*
X137458Y45865D01*
X137363Y45852D01*
X137268Y45834D01*
X137175Y45813D01*
X137082Y45788D01*
X136991Y45759D01*
X136900Y45727D01*
X136811Y45691D01*
X136724Y45651D01*
X136638Y45608D01*
X136554Y45562D01*
X136472Y45512D01*
X136392Y45458D01*
X136315Y45402D01*
X136240Y45342D01*
X136167Y45280D01*
X136097Y45214D01*
X136029Y45146D01*
X135964Y45075D01*
X135903Y45002D01*
X135844Y44926D01*
X135788Y44847D01*
X135736Y44767D01*
X135687Y44684D01*
X135641Y44600D01*
X135599Y44514D01*
X135561Y44426D01*
X135526Y44337D01*
X135494Y44246D01*
X138972Y42610D02*
X139032Y42669D01*
X139089Y42731D01*
X139144Y42795D01*
X139195Y42862D01*
X139244Y42931D01*
X139290Y43001D01*
X139333Y43074D01*
X139373Y43148D01*
X139409Y43224D01*
X139442Y43302D01*
X139472Y43381D01*
X139499Y43461D01*
X139522Y43542D01*
X139541Y43624D01*
X139557Y43706D01*
X139570Y43790D01*
X139579Y43874D01*
X139584Y43958D01*
X139586Y44042D01*
X138972Y42609D02*
X135494Y38517D01*
X139586Y38517D01*
D13*
X34000Y178000D02*
X34000Y198000D01*
D10*
X12583Y183614D02*
X5217Y183614D01*
X12583Y183614D02*
X12583Y186888D01*
X6854Y189694D02*
X5217Y191740D01*
X12583Y191740D01*
X12583Y189694D02*
X12583Y193786D01*
X51831Y153497D02*
X51831Y146131D01*
X51831Y153497D02*
X53877Y153497D01*
X53966Y153495D01*
X54055Y153489D01*
X54144Y153479D01*
X54232Y153466D01*
X54320Y153449D01*
X54407Y153427D01*
X54492Y153402D01*
X54577Y153374D01*
X54660Y153341D01*
X54742Y153305D01*
X54822Y153266D01*
X54900Y153223D01*
X54976Y153177D01*
X55051Y153127D01*
X55123Y153074D01*
X55192Y153018D01*
X55259Y152959D01*
X55324Y152898D01*
X55385Y152833D01*
X55444Y152766D01*
X55500Y152697D01*
X55553Y152625D01*
X55603Y152550D01*
X55649Y152474D01*
X55692Y152396D01*
X55731Y152316D01*
X55767Y152234D01*
X55800Y152151D01*
X55828Y152066D01*
X55853Y151981D01*
X55875Y151894D01*
X55892Y151806D01*
X55905Y151718D01*
X55915Y151629D01*
X55921Y151540D01*
X55923Y151451D01*
X55921Y151362D01*
X55915Y151273D01*
X55905Y151184D01*
X55892Y151096D01*
X55875Y151008D01*
X55853Y150921D01*
X55828Y150836D01*
X55800Y150751D01*
X55767Y150668D01*
X55731Y150586D01*
X55692Y150506D01*
X55649Y150428D01*
X55603Y150352D01*
X55553Y150277D01*
X55500Y150205D01*
X55444Y150136D01*
X55385Y150069D01*
X55324Y150004D01*
X55259Y149943D01*
X55192Y149884D01*
X55123Y149828D01*
X55051Y149775D01*
X54976Y149725D01*
X54900Y149679D01*
X54822Y149636D01*
X54742Y149597D01*
X54660Y149561D01*
X54577Y149528D01*
X54492Y149500D01*
X54407Y149475D01*
X54320Y149453D01*
X54232Y149436D01*
X54144Y149423D01*
X54055Y149413D01*
X53966Y149407D01*
X53877Y149405D01*
X51831Y149405D01*
X54286Y149405D02*
X55923Y146131D01*
X59095Y147768D02*
X60732Y153497D01*
X59095Y147768D02*
X63187Y147768D01*
X61960Y149405D02*
X61960Y146131D01*
X12297Y160795D02*
X12297Y162431D01*
X12297Y160795D02*
X12295Y160717D01*
X12290Y160639D01*
X12280Y160562D01*
X12267Y160485D01*
X12251Y160409D01*
X12231Y160334D01*
X12207Y160260D01*
X12180Y160187D01*
X12149Y160115D01*
X12115Y160045D01*
X12078Y159977D01*
X12037Y159910D01*
X11993Y159845D01*
X11947Y159783D01*
X11897Y159723D01*
X11845Y159665D01*
X11790Y159610D01*
X11732Y159558D01*
X11672Y159508D01*
X11610Y159462D01*
X11545Y159418D01*
X11479Y159377D01*
X11410Y159340D01*
X11340Y159306D01*
X11268Y159275D01*
X11195Y159248D01*
X11121Y159224D01*
X11046Y159204D01*
X10970Y159188D01*
X10893Y159175D01*
X10816Y159165D01*
X10738Y159160D01*
X10660Y159158D01*
X6568Y159158D01*
X6488Y159160D01*
X6408Y159166D01*
X6328Y159176D01*
X6249Y159189D01*
X6170Y159207D01*
X6093Y159228D01*
X6017Y159254D01*
X5942Y159283D01*
X5868Y159315D01*
X5796Y159351D01*
X5726Y159391D01*
X5659Y159434D01*
X5593Y159480D01*
X5530Y159530D01*
X5469Y159582D01*
X5410Y159637D01*
X5355Y159696D01*
X5303Y159756D01*
X5253Y159820D01*
X5207Y159885D01*
X5164Y159953D01*
X5124Y160023D01*
X5088Y160095D01*
X5056Y160169D01*
X5027Y160243D01*
X5002Y160320D01*
X4980Y160397D01*
X4962Y160476D01*
X4949Y160555D01*
X4939Y160634D01*
X4933Y160715D01*
X4931Y160795D01*
X4931Y162431D01*
X4931Y166914D02*
X10660Y165277D01*
X10660Y169369D01*
X9023Y168141D02*
X12297Y168141D01*
X19795Y118603D02*
X21431Y118603D01*
X19795Y118603D02*
X19717Y118605D01*
X19639Y118610D01*
X19562Y118620D01*
X19485Y118633D01*
X19409Y118649D01*
X19334Y118669D01*
X19260Y118693D01*
X19187Y118720D01*
X19115Y118751D01*
X19045Y118785D01*
X18976Y118822D01*
X18910Y118863D01*
X18845Y118907D01*
X18783Y118953D01*
X18723Y119003D01*
X18665Y119055D01*
X18610Y119110D01*
X18558Y119168D01*
X18508Y119228D01*
X18462Y119290D01*
X18418Y119355D01*
X18377Y119422D01*
X18340Y119490D01*
X18306Y119560D01*
X18275Y119632D01*
X18248Y119705D01*
X18224Y119779D01*
X18204Y119854D01*
X18188Y119930D01*
X18175Y120007D01*
X18165Y120084D01*
X18160Y120162D01*
X18158Y120240D01*
X18158Y124332D01*
X18160Y124412D01*
X18166Y124492D01*
X18176Y124572D01*
X18189Y124651D01*
X18207Y124730D01*
X18228Y124807D01*
X18254Y124883D01*
X18283Y124958D01*
X18315Y125032D01*
X18351Y125104D01*
X18391Y125174D01*
X18434Y125241D01*
X18480Y125307D01*
X18530Y125370D01*
X18582Y125431D01*
X18637Y125490D01*
X18696Y125545D01*
X18756Y125597D01*
X18820Y125647D01*
X18886Y125693D01*
X18953Y125736D01*
X19023Y125776D01*
X19095Y125812D01*
X19169Y125844D01*
X19243Y125873D01*
X19320Y125899D01*
X19397Y125920D01*
X19476Y125938D01*
X19555Y125951D01*
X19635Y125961D01*
X19715Y125967D01*
X19795Y125969D01*
X21431Y125969D01*
X24277Y118603D02*
X26732Y118603D01*
X26810Y118605D01*
X26888Y118610D01*
X26965Y118620D01*
X27042Y118633D01*
X27118Y118649D01*
X27193Y118669D01*
X27267Y118693D01*
X27340Y118720D01*
X27412Y118751D01*
X27482Y118785D01*
X27551Y118822D01*
X27617Y118863D01*
X27682Y118907D01*
X27744Y118953D01*
X27804Y119003D01*
X27862Y119055D01*
X27917Y119110D01*
X27969Y119168D01*
X28019Y119228D01*
X28065Y119290D01*
X28109Y119355D01*
X28150Y119422D01*
X28187Y119490D01*
X28221Y119560D01*
X28252Y119632D01*
X28279Y119705D01*
X28303Y119779D01*
X28323Y119854D01*
X28339Y119930D01*
X28352Y120007D01*
X28362Y120084D01*
X28367Y120162D01*
X28369Y120240D01*
X28369Y121058D01*
X28367Y121136D01*
X28362Y121214D01*
X28352Y121291D01*
X28339Y121368D01*
X28323Y121444D01*
X28303Y121519D01*
X28279Y121593D01*
X28252Y121666D01*
X28221Y121738D01*
X28187Y121808D01*
X28150Y121877D01*
X28109Y121943D01*
X28065Y122008D01*
X28019Y122070D01*
X27969Y122130D01*
X27917Y122188D01*
X27862Y122243D01*
X27804Y122295D01*
X27744Y122345D01*
X27682Y122391D01*
X27617Y122435D01*
X27551Y122476D01*
X27482Y122513D01*
X27412Y122547D01*
X27340Y122578D01*
X27267Y122605D01*
X27193Y122629D01*
X27118Y122649D01*
X27042Y122665D01*
X26965Y122678D01*
X26888Y122688D01*
X26810Y122693D01*
X26732Y122695D01*
X24277Y122695D01*
X24277Y125969D01*
X28369Y125969D01*
X210731Y234331D02*
X210731Y241697D01*
X212777Y241697D01*
X212866Y241695D01*
X212955Y241689D01*
X213044Y241679D01*
X213132Y241666D01*
X213220Y241649D01*
X213307Y241627D01*
X213392Y241602D01*
X213477Y241574D01*
X213560Y241541D01*
X213642Y241505D01*
X213722Y241466D01*
X213800Y241423D01*
X213876Y241377D01*
X213951Y241327D01*
X214023Y241274D01*
X214092Y241218D01*
X214159Y241159D01*
X214224Y241098D01*
X214285Y241033D01*
X214344Y240966D01*
X214400Y240897D01*
X214453Y240825D01*
X214503Y240750D01*
X214549Y240674D01*
X214592Y240596D01*
X214631Y240516D01*
X214667Y240434D01*
X214700Y240351D01*
X214728Y240266D01*
X214753Y240181D01*
X214775Y240094D01*
X214792Y240006D01*
X214805Y239918D01*
X214815Y239829D01*
X214821Y239740D01*
X214823Y239651D01*
X214821Y239562D01*
X214815Y239473D01*
X214805Y239384D01*
X214792Y239296D01*
X214775Y239208D01*
X214753Y239121D01*
X214728Y239036D01*
X214700Y238951D01*
X214667Y238868D01*
X214631Y238786D01*
X214592Y238706D01*
X214549Y238628D01*
X214503Y238552D01*
X214453Y238477D01*
X214400Y238405D01*
X214344Y238336D01*
X214285Y238269D01*
X214224Y238204D01*
X214159Y238143D01*
X214092Y238084D01*
X214023Y238028D01*
X213951Y237975D01*
X213876Y237925D01*
X213800Y237879D01*
X213722Y237836D01*
X213642Y237797D01*
X213560Y237761D01*
X213477Y237728D01*
X213392Y237700D01*
X213307Y237675D01*
X213220Y237653D01*
X213132Y237636D01*
X213044Y237623D01*
X212955Y237613D01*
X212866Y237607D01*
X212777Y237605D01*
X210731Y237605D01*
X213186Y237605D02*
X214823Y234331D01*
X217995Y234331D02*
X220450Y234331D01*
X220528Y234333D01*
X220606Y234338D01*
X220683Y234348D01*
X220760Y234361D01*
X220836Y234377D01*
X220911Y234397D01*
X220985Y234421D01*
X221058Y234448D01*
X221130Y234479D01*
X221200Y234513D01*
X221269Y234550D01*
X221335Y234591D01*
X221400Y234635D01*
X221462Y234681D01*
X221522Y234731D01*
X221580Y234783D01*
X221635Y234838D01*
X221687Y234896D01*
X221737Y234956D01*
X221783Y235018D01*
X221827Y235083D01*
X221868Y235150D01*
X221905Y235218D01*
X221939Y235288D01*
X221970Y235360D01*
X221997Y235433D01*
X222021Y235507D01*
X222041Y235582D01*
X222057Y235658D01*
X222070Y235735D01*
X222080Y235812D01*
X222085Y235890D01*
X222087Y235968D01*
X222087Y236786D01*
X222085Y236864D01*
X222080Y236942D01*
X222070Y237019D01*
X222057Y237096D01*
X222041Y237172D01*
X222021Y237247D01*
X221997Y237321D01*
X221970Y237394D01*
X221939Y237466D01*
X221905Y237536D01*
X221868Y237605D01*
X221827Y237671D01*
X221783Y237736D01*
X221737Y237798D01*
X221687Y237858D01*
X221635Y237916D01*
X221580Y237971D01*
X221522Y238023D01*
X221462Y238073D01*
X221400Y238119D01*
X221335Y238163D01*
X221269Y238204D01*
X221200Y238241D01*
X221130Y238275D01*
X221058Y238306D01*
X220985Y238333D01*
X220911Y238357D01*
X220836Y238377D01*
X220760Y238393D01*
X220683Y238406D01*
X220606Y238416D01*
X220528Y238421D01*
X220450Y238423D01*
X217995Y238423D01*
X217995Y241697D01*
X222087Y241697D01*
X157997Y223231D02*
X157997Y221595D01*
X157995Y221517D01*
X157990Y221439D01*
X157980Y221362D01*
X157967Y221285D01*
X157951Y221209D01*
X157931Y221134D01*
X157907Y221060D01*
X157880Y220987D01*
X157849Y220915D01*
X157815Y220845D01*
X157778Y220777D01*
X157737Y220710D01*
X157693Y220645D01*
X157647Y220583D01*
X157597Y220523D01*
X157545Y220465D01*
X157490Y220410D01*
X157432Y220358D01*
X157372Y220308D01*
X157310Y220262D01*
X157245Y220218D01*
X157179Y220177D01*
X157110Y220140D01*
X157040Y220106D01*
X156968Y220075D01*
X156895Y220048D01*
X156821Y220024D01*
X156746Y220004D01*
X156670Y219988D01*
X156593Y219975D01*
X156516Y219965D01*
X156438Y219960D01*
X156360Y219958D01*
X152268Y219958D01*
X152188Y219960D01*
X152108Y219966D01*
X152028Y219976D01*
X151949Y219989D01*
X151870Y220007D01*
X151793Y220028D01*
X151717Y220054D01*
X151642Y220083D01*
X151568Y220115D01*
X151496Y220151D01*
X151426Y220191D01*
X151359Y220234D01*
X151293Y220280D01*
X151230Y220330D01*
X151169Y220382D01*
X151110Y220437D01*
X151055Y220496D01*
X151003Y220556D01*
X150953Y220620D01*
X150907Y220685D01*
X150864Y220753D01*
X150824Y220823D01*
X150788Y220895D01*
X150756Y220969D01*
X150727Y221043D01*
X150702Y221120D01*
X150680Y221197D01*
X150662Y221276D01*
X150649Y221355D01*
X150639Y221434D01*
X150633Y221515D01*
X150631Y221595D01*
X150631Y223231D01*
X153905Y226077D02*
X153905Y228532D01*
X153907Y228610D01*
X153912Y228688D01*
X153922Y228765D01*
X153935Y228842D01*
X153951Y228918D01*
X153971Y228993D01*
X153995Y229067D01*
X154022Y229140D01*
X154053Y229212D01*
X154087Y229282D01*
X154124Y229351D01*
X154165Y229417D01*
X154209Y229482D01*
X154255Y229544D01*
X154305Y229604D01*
X154357Y229662D01*
X154412Y229717D01*
X154470Y229769D01*
X154530Y229819D01*
X154592Y229865D01*
X154657Y229909D01*
X154724Y229950D01*
X154792Y229987D01*
X154862Y230021D01*
X154934Y230052D01*
X155007Y230079D01*
X155081Y230103D01*
X155156Y230123D01*
X155232Y230139D01*
X155309Y230152D01*
X155386Y230162D01*
X155464Y230167D01*
X155542Y230169D01*
X155951Y230169D01*
X156040Y230167D01*
X156129Y230161D01*
X156218Y230151D01*
X156306Y230138D01*
X156394Y230121D01*
X156481Y230099D01*
X156566Y230074D01*
X156651Y230046D01*
X156734Y230013D01*
X156816Y229977D01*
X156896Y229938D01*
X156974Y229895D01*
X157050Y229849D01*
X157125Y229799D01*
X157197Y229746D01*
X157266Y229690D01*
X157333Y229631D01*
X157398Y229570D01*
X157459Y229505D01*
X157518Y229438D01*
X157574Y229369D01*
X157627Y229297D01*
X157677Y229222D01*
X157723Y229146D01*
X157766Y229068D01*
X157805Y228988D01*
X157841Y228906D01*
X157874Y228823D01*
X157902Y228738D01*
X157927Y228653D01*
X157949Y228566D01*
X157966Y228478D01*
X157979Y228390D01*
X157989Y228301D01*
X157995Y228212D01*
X157997Y228123D01*
X157995Y228034D01*
X157989Y227945D01*
X157979Y227856D01*
X157966Y227768D01*
X157949Y227680D01*
X157927Y227593D01*
X157902Y227508D01*
X157874Y227423D01*
X157841Y227340D01*
X157805Y227258D01*
X157766Y227178D01*
X157723Y227100D01*
X157677Y227024D01*
X157627Y226949D01*
X157574Y226877D01*
X157518Y226808D01*
X157459Y226741D01*
X157398Y226676D01*
X157333Y226615D01*
X157266Y226556D01*
X157197Y226500D01*
X157125Y226447D01*
X157050Y226397D01*
X156974Y226351D01*
X156896Y226308D01*
X156816Y226269D01*
X156734Y226233D01*
X156651Y226200D01*
X156566Y226172D01*
X156481Y226147D01*
X156394Y226125D01*
X156306Y226108D01*
X156218Y226095D01*
X156129Y226085D01*
X156040Y226079D01*
X155951Y226077D01*
X153905Y226077D01*
X153791Y226079D01*
X153677Y226085D01*
X153563Y226095D01*
X153449Y226109D01*
X153336Y226127D01*
X153224Y226149D01*
X153113Y226174D01*
X153003Y226204D01*
X152893Y226237D01*
X152785Y226274D01*
X152679Y226315D01*
X152573Y226360D01*
X152470Y226408D01*
X152368Y226460D01*
X152268Y226516D01*
X152170Y226574D01*
X152074Y226637D01*
X151981Y226702D01*
X151889Y226771D01*
X151801Y226843D01*
X151714Y226918D01*
X151631Y226996D01*
X151550Y227077D01*
X151472Y227160D01*
X151397Y227246D01*
X151325Y227335D01*
X151256Y227427D01*
X151191Y227520D01*
X151129Y227616D01*
X151070Y227714D01*
X151014Y227814D01*
X150962Y227916D01*
X150914Y228019D01*
X150869Y228124D01*
X150828Y228231D01*
X150791Y228339D01*
X150758Y228449D01*
X150728Y228559D01*
X150703Y228670D01*
X150681Y228782D01*
X150663Y228895D01*
X150649Y229009D01*
X150639Y229123D01*
X150633Y229237D01*
X150631Y229351D01*
X180697Y229295D02*
X180697Y230931D01*
X180697Y229295D02*
X180695Y229217D01*
X180690Y229139D01*
X180680Y229062D01*
X180667Y228985D01*
X180651Y228909D01*
X180631Y228834D01*
X180607Y228760D01*
X180580Y228687D01*
X180549Y228615D01*
X180515Y228545D01*
X180478Y228477D01*
X180437Y228410D01*
X180393Y228345D01*
X180347Y228283D01*
X180297Y228223D01*
X180245Y228165D01*
X180190Y228110D01*
X180132Y228058D01*
X180072Y228008D01*
X180010Y227962D01*
X179945Y227918D01*
X179879Y227877D01*
X179810Y227840D01*
X179740Y227806D01*
X179668Y227775D01*
X179595Y227748D01*
X179521Y227724D01*
X179446Y227704D01*
X179370Y227688D01*
X179293Y227675D01*
X179216Y227665D01*
X179138Y227660D01*
X179060Y227658D01*
X174968Y227658D01*
X174888Y227660D01*
X174808Y227666D01*
X174728Y227676D01*
X174649Y227689D01*
X174570Y227707D01*
X174493Y227728D01*
X174417Y227754D01*
X174342Y227783D01*
X174268Y227815D01*
X174196Y227851D01*
X174126Y227891D01*
X174059Y227934D01*
X173993Y227980D01*
X173930Y228030D01*
X173869Y228082D01*
X173810Y228137D01*
X173755Y228196D01*
X173703Y228256D01*
X173653Y228320D01*
X173607Y228385D01*
X173564Y228453D01*
X173524Y228523D01*
X173488Y228595D01*
X173456Y228669D01*
X173427Y228743D01*
X173402Y228820D01*
X173380Y228897D01*
X173362Y228976D01*
X173349Y229055D01*
X173339Y229134D01*
X173333Y229215D01*
X173331Y229295D01*
X173331Y230931D01*
X173331Y233777D02*
X174149Y233777D01*
X173331Y233777D02*
X173331Y237869D01*
X180697Y235823D01*
X51905Y230431D02*
X50268Y230431D01*
X50190Y230433D01*
X50112Y230438D01*
X50035Y230448D01*
X49958Y230461D01*
X49882Y230477D01*
X49807Y230497D01*
X49733Y230521D01*
X49660Y230548D01*
X49588Y230579D01*
X49518Y230613D01*
X49450Y230650D01*
X49383Y230691D01*
X49318Y230735D01*
X49256Y230781D01*
X49196Y230831D01*
X49138Y230883D01*
X49083Y230938D01*
X49031Y230996D01*
X48981Y231056D01*
X48935Y231118D01*
X48891Y231183D01*
X48850Y231250D01*
X48813Y231318D01*
X48779Y231388D01*
X48748Y231460D01*
X48721Y231533D01*
X48697Y231607D01*
X48677Y231682D01*
X48661Y231758D01*
X48648Y231835D01*
X48638Y231912D01*
X48633Y231990D01*
X48631Y232068D01*
X48631Y236160D01*
X48633Y236240D01*
X48639Y236320D01*
X48649Y236400D01*
X48662Y236479D01*
X48680Y236558D01*
X48701Y236635D01*
X48727Y236711D01*
X48756Y236786D01*
X48788Y236860D01*
X48824Y236932D01*
X48864Y237002D01*
X48907Y237069D01*
X48953Y237135D01*
X49003Y237198D01*
X49055Y237259D01*
X49110Y237318D01*
X49169Y237373D01*
X49229Y237425D01*
X49293Y237475D01*
X49359Y237521D01*
X49426Y237564D01*
X49496Y237604D01*
X49568Y237640D01*
X49642Y237672D01*
X49716Y237701D01*
X49793Y237727D01*
X49870Y237748D01*
X49949Y237766D01*
X50028Y237779D01*
X50108Y237789D01*
X50188Y237795D01*
X50268Y237797D01*
X51905Y237797D01*
X54750Y232477D02*
X54752Y232566D01*
X54758Y232655D01*
X54768Y232744D01*
X54781Y232832D01*
X54798Y232920D01*
X54820Y233007D01*
X54845Y233092D01*
X54873Y233177D01*
X54906Y233260D01*
X54942Y233342D01*
X54981Y233422D01*
X55024Y233500D01*
X55070Y233576D01*
X55120Y233651D01*
X55173Y233723D01*
X55229Y233792D01*
X55288Y233859D01*
X55349Y233924D01*
X55414Y233985D01*
X55481Y234044D01*
X55550Y234100D01*
X55622Y234153D01*
X55697Y234203D01*
X55773Y234249D01*
X55851Y234292D01*
X55931Y234331D01*
X56013Y234367D01*
X56096Y234400D01*
X56181Y234428D01*
X56266Y234453D01*
X56353Y234475D01*
X56441Y234492D01*
X56529Y234505D01*
X56618Y234515D01*
X56707Y234521D01*
X56796Y234523D01*
X56885Y234521D01*
X56974Y234515D01*
X57063Y234505D01*
X57151Y234492D01*
X57239Y234475D01*
X57326Y234453D01*
X57411Y234428D01*
X57496Y234400D01*
X57579Y234367D01*
X57661Y234331D01*
X57741Y234292D01*
X57819Y234249D01*
X57895Y234203D01*
X57970Y234153D01*
X58042Y234100D01*
X58111Y234044D01*
X58178Y233985D01*
X58243Y233924D01*
X58304Y233859D01*
X58363Y233792D01*
X58419Y233723D01*
X58472Y233651D01*
X58522Y233576D01*
X58568Y233500D01*
X58611Y233422D01*
X58650Y233342D01*
X58686Y233260D01*
X58719Y233177D01*
X58747Y233092D01*
X58772Y233007D01*
X58794Y232920D01*
X58811Y232832D01*
X58824Y232744D01*
X58834Y232655D01*
X58840Y232566D01*
X58842Y232477D01*
X58840Y232388D01*
X58834Y232299D01*
X58824Y232210D01*
X58811Y232122D01*
X58794Y232034D01*
X58772Y231947D01*
X58747Y231862D01*
X58719Y231777D01*
X58686Y231694D01*
X58650Y231612D01*
X58611Y231532D01*
X58568Y231454D01*
X58522Y231378D01*
X58472Y231303D01*
X58419Y231231D01*
X58363Y231162D01*
X58304Y231095D01*
X58243Y231030D01*
X58178Y230969D01*
X58111Y230910D01*
X58042Y230854D01*
X57970Y230801D01*
X57895Y230751D01*
X57819Y230705D01*
X57741Y230662D01*
X57661Y230623D01*
X57579Y230587D01*
X57496Y230554D01*
X57411Y230526D01*
X57326Y230501D01*
X57239Y230479D01*
X57151Y230462D01*
X57063Y230449D01*
X56974Y230439D01*
X56885Y230433D01*
X56796Y230431D01*
X56707Y230433D01*
X56618Y230439D01*
X56529Y230449D01*
X56441Y230462D01*
X56353Y230479D01*
X56266Y230501D01*
X56181Y230526D01*
X56096Y230554D01*
X56013Y230587D01*
X55931Y230623D01*
X55851Y230662D01*
X55773Y230705D01*
X55697Y230751D01*
X55622Y230801D01*
X55550Y230854D01*
X55481Y230910D01*
X55414Y230969D01*
X55349Y231030D01*
X55288Y231095D01*
X55229Y231162D01*
X55173Y231231D01*
X55120Y231303D01*
X55070Y231378D01*
X55024Y231454D01*
X54981Y231532D01*
X54942Y231612D01*
X54906Y231694D01*
X54873Y231777D01*
X54845Y231862D01*
X54820Y231947D01*
X54798Y232034D01*
X54781Y232122D01*
X54768Y232210D01*
X54758Y232299D01*
X54752Y232388D01*
X54750Y232477D01*
X55159Y236160D02*
X55161Y236239D01*
X55167Y236318D01*
X55176Y236397D01*
X55189Y236475D01*
X55207Y236552D01*
X55227Y236628D01*
X55252Y236703D01*
X55280Y236777D01*
X55311Y236850D01*
X55347Y236921D01*
X55385Y236990D01*
X55427Y237057D01*
X55472Y237122D01*
X55520Y237185D01*
X55571Y237246D01*
X55625Y237303D01*
X55681Y237359D01*
X55740Y237411D01*
X55802Y237461D01*
X55866Y237507D01*
X55932Y237551D01*
X56000Y237591D01*
X56070Y237627D01*
X56142Y237661D01*
X56216Y237691D01*
X56290Y237717D01*
X56366Y237740D01*
X56443Y237758D01*
X56520Y237774D01*
X56599Y237785D01*
X56677Y237793D01*
X56756Y237797D01*
X56836Y237797D01*
X56915Y237793D01*
X56993Y237785D01*
X57072Y237774D01*
X57149Y237758D01*
X57226Y237740D01*
X57302Y237717D01*
X57376Y237691D01*
X57450Y237661D01*
X57522Y237627D01*
X57592Y237591D01*
X57660Y237551D01*
X57726Y237507D01*
X57790Y237461D01*
X57852Y237411D01*
X57911Y237359D01*
X57967Y237303D01*
X58021Y237246D01*
X58072Y237185D01*
X58120Y237122D01*
X58165Y237057D01*
X58207Y236990D01*
X58245Y236921D01*
X58281Y236850D01*
X58312Y236777D01*
X58340Y236703D01*
X58365Y236628D01*
X58385Y236552D01*
X58403Y236475D01*
X58416Y236397D01*
X58425Y236318D01*
X58431Y236239D01*
X58433Y236160D01*
X58431Y236081D01*
X58425Y236002D01*
X58416Y235923D01*
X58403Y235845D01*
X58385Y235768D01*
X58365Y235692D01*
X58340Y235617D01*
X58312Y235543D01*
X58281Y235470D01*
X58245Y235399D01*
X58207Y235330D01*
X58165Y235263D01*
X58120Y235198D01*
X58072Y235135D01*
X58021Y235074D01*
X57967Y235017D01*
X57911Y234961D01*
X57852Y234909D01*
X57790Y234859D01*
X57726Y234813D01*
X57660Y234769D01*
X57592Y234729D01*
X57522Y234693D01*
X57450Y234659D01*
X57376Y234629D01*
X57302Y234603D01*
X57226Y234580D01*
X57149Y234562D01*
X57072Y234546D01*
X56993Y234535D01*
X56915Y234527D01*
X56836Y234523D01*
X56756Y234523D01*
X56677Y234527D01*
X56599Y234535D01*
X56520Y234546D01*
X56443Y234562D01*
X56366Y234580D01*
X56290Y234603D01*
X56216Y234629D01*
X56142Y234659D01*
X56070Y234693D01*
X56000Y234729D01*
X55932Y234769D01*
X55866Y234813D01*
X55802Y234859D01*
X55740Y234909D01*
X55681Y234961D01*
X55625Y235017D01*
X55571Y235074D01*
X55520Y235135D01*
X55472Y235198D01*
X55427Y235263D01*
X55385Y235330D01*
X55347Y235399D01*
X55311Y235470D01*
X55280Y235543D01*
X55252Y235617D01*
X55227Y235692D01*
X55207Y235768D01*
X55189Y235845D01*
X55176Y235923D01*
X55167Y236002D01*
X55161Y236081D01*
X55159Y236160D01*
X96495Y240303D02*
X98131Y240303D01*
X96495Y240303D02*
X96417Y240305D01*
X96339Y240310D01*
X96262Y240320D01*
X96185Y240333D01*
X96109Y240349D01*
X96034Y240369D01*
X95960Y240393D01*
X95887Y240420D01*
X95815Y240451D01*
X95745Y240485D01*
X95677Y240522D01*
X95610Y240563D01*
X95545Y240607D01*
X95483Y240653D01*
X95423Y240703D01*
X95365Y240755D01*
X95310Y240810D01*
X95258Y240868D01*
X95208Y240928D01*
X95162Y240990D01*
X95118Y241055D01*
X95077Y241122D01*
X95040Y241190D01*
X95006Y241260D01*
X94975Y241332D01*
X94948Y241405D01*
X94924Y241479D01*
X94904Y241554D01*
X94888Y241630D01*
X94875Y241707D01*
X94865Y241784D01*
X94860Y241862D01*
X94858Y241940D01*
X94858Y246032D01*
X94860Y246112D01*
X94866Y246192D01*
X94876Y246272D01*
X94889Y246351D01*
X94907Y246430D01*
X94928Y246507D01*
X94954Y246583D01*
X94983Y246658D01*
X95015Y246732D01*
X95051Y246804D01*
X95091Y246874D01*
X95134Y246941D01*
X95180Y247007D01*
X95230Y247070D01*
X95282Y247131D01*
X95337Y247190D01*
X95396Y247245D01*
X95456Y247297D01*
X95520Y247347D01*
X95586Y247393D01*
X95653Y247436D01*
X95723Y247476D01*
X95795Y247512D01*
X95869Y247544D01*
X95943Y247573D01*
X96020Y247599D01*
X96097Y247620D01*
X96176Y247638D01*
X96255Y247651D01*
X96335Y247661D01*
X96415Y247667D01*
X96495Y247669D01*
X98131Y247669D01*
X102614Y243577D02*
X105069Y243577D01*
X102614Y243577D02*
X102536Y243579D01*
X102458Y243584D01*
X102381Y243594D01*
X102304Y243607D01*
X102228Y243623D01*
X102153Y243643D01*
X102079Y243667D01*
X102006Y243694D01*
X101934Y243725D01*
X101864Y243759D01*
X101795Y243796D01*
X101729Y243837D01*
X101664Y243881D01*
X101602Y243927D01*
X101542Y243977D01*
X101484Y244029D01*
X101429Y244084D01*
X101377Y244142D01*
X101327Y244202D01*
X101281Y244264D01*
X101237Y244329D01*
X101196Y244396D01*
X101159Y244464D01*
X101125Y244534D01*
X101094Y244606D01*
X101067Y244679D01*
X101043Y244753D01*
X101023Y244828D01*
X101007Y244904D01*
X100994Y244981D01*
X100984Y245058D01*
X100979Y245136D01*
X100977Y245214D01*
X100977Y245623D01*
X100979Y245712D01*
X100985Y245801D01*
X100995Y245890D01*
X101008Y245978D01*
X101025Y246066D01*
X101047Y246153D01*
X101072Y246238D01*
X101100Y246323D01*
X101133Y246406D01*
X101169Y246488D01*
X101208Y246568D01*
X101251Y246646D01*
X101297Y246722D01*
X101347Y246797D01*
X101400Y246869D01*
X101456Y246938D01*
X101515Y247005D01*
X101576Y247070D01*
X101641Y247131D01*
X101708Y247190D01*
X101777Y247246D01*
X101849Y247299D01*
X101924Y247349D01*
X102000Y247395D01*
X102078Y247438D01*
X102158Y247477D01*
X102240Y247513D01*
X102323Y247546D01*
X102408Y247574D01*
X102493Y247599D01*
X102580Y247621D01*
X102668Y247638D01*
X102756Y247651D01*
X102845Y247661D01*
X102934Y247667D01*
X103023Y247669D01*
X103112Y247667D01*
X103201Y247661D01*
X103290Y247651D01*
X103378Y247638D01*
X103466Y247621D01*
X103553Y247599D01*
X103638Y247574D01*
X103723Y247546D01*
X103806Y247513D01*
X103888Y247477D01*
X103968Y247438D01*
X104046Y247395D01*
X104122Y247349D01*
X104197Y247299D01*
X104269Y247246D01*
X104338Y247190D01*
X104405Y247131D01*
X104470Y247070D01*
X104531Y247005D01*
X104590Y246938D01*
X104646Y246869D01*
X104699Y246797D01*
X104749Y246722D01*
X104795Y246646D01*
X104838Y246568D01*
X104877Y246488D01*
X104913Y246406D01*
X104946Y246323D01*
X104974Y246238D01*
X104999Y246153D01*
X105021Y246066D01*
X105038Y245978D01*
X105051Y245890D01*
X105061Y245801D01*
X105067Y245712D01*
X105069Y245623D01*
X105069Y243577D01*
X105067Y243465D01*
X105061Y243354D01*
X105052Y243242D01*
X105039Y243131D01*
X105021Y243021D01*
X105001Y242911D01*
X104976Y242802D01*
X104948Y242694D01*
X104916Y242587D01*
X104880Y242481D01*
X104841Y242376D01*
X104798Y242273D01*
X104752Y242171D01*
X104702Y242071D01*
X104649Y241972D01*
X104592Y241876D01*
X104533Y241781D01*
X104470Y241689D01*
X104404Y241599D01*
X104335Y241511D01*
X104263Y241425D01*
X104188Y241342D01*
X104110Y241262D01*
X104030Y241184D01*
X103947Y241109D01*
X103861Y241037D01*
X103773Y240968D01*
X103683Y240902D01*
X103591Y240839D01*
X103496Y240780D01*
X103400Y240723D01*
X103301Y240670D01*
X103201Y240620D01*
X103099Y240574D01*
X102996Y240531D01*
X102891Y240492D01*
X102785Y240456D01*
X102678Y240424D01*
X102570Y240396D01*
X102461Y240371D01*
X102351Y240351D01*
X102241Y240333D01*
X102130Y240320D01*
X102018Y240311D01*
X101907Y240305D01*
X101795Y240303D01*
X70631Y240897D02*
X70631Y233531D01*
X70631Y240897D02*
X72677Y240897D01*
X72766Y240895D01*
X72855Y240889D01*
X72944Y240879D01*
X73032Y240866D01*
X73120Y240849D01*
X73207Y240827D01*
X73292Y240802D01*
X73377Y240774D01*
X73460Y240741D01*
X73542Y240705D01*
X73622Y240666D01*
X73700Y240623D01*
X73776Y240577D01*
X73851Y240527D01*
X73923Y240474D01*
X73992Y240418D01*
X74059Y240359D01*
X74124Y240298D01*
X74185Y240233D01*
X74244Y240166D01*
X74300Y240097D01*
X74353Y240025D01*
X74403Y239950D01*
X74449Y239874D01*
X74492Y239796D01*
X74531Y239716D01*
X74567Y239634D01*
X74600Y239551D01*
X74628Y239466D01*
X74653Y239381D01*
X74675Y239294D01*
X74692Y239206D01*
X74705Y239118D01*
X74715Y239029D01*
X74721Y238940D01*
X74723Y238851D01*
X74721Y238762D01*
X74715Y238673D01*
X74705Y238584D01*
X74692Y238496D01*
X74675Y238408D01*
X74653Y238321D01*
X74628Y238236D01*
X74600Y238151D01*
X74567Y238068D01*
X74531Y237986D01*
X74492Y237906D01*
X74449Y237828D01*
X74403Y237752D01*
X74353Y237677D01*
X74300Y237605D01*
X74244Y237536D01*
X74185Y237469D01*
X74124Y237404D01*
X74059Y237343D01*
X73992Y237284D01*
X73923Y237228D01*
X73851Y237175D01*
X73776Y237125D01*
X73700Y237079D01*
X73622Y237036D01*
X73542Y236997D01*
X73460Y236961D01*
X73377Y236928D01*
X73292Y236900D01*
X73207Y236875D01*
X73120Y236853D01*
X73032Y236836D01*
X72944Y236823D01*
X72855Y236813D01*
X72766Y236807D01*
X72677Y236805D01*
X70631Y236805D01*
X73086Y236805D02*
X74723Y233531D01*
X77895Y237623D02*
X80350Y237623D01*
X80428Y237621D01*
X80506Y237616D01*
X80583Y237606D01*
X80660Y237593D01*
X80736Y237577D01*
X80811Y237557D01*
X80885Y237533D01*
X80958Y237506D01*
X81030Y237475D01*
X81100Y237441D01*
X81169Y237404D01*
X81235Y237363D01*
X81300Y237319D01*
X81362Y237273D01*
X81422Y237223D01*
X81480Y237171D01*
X81535Y237116D01*
X81587Y237058D01*
X81637Y236998D01*
X81683Y236936D01*
X81727Y236871D01*
X81768Y236805D01*
X81805Y236736D01*
X81839Y236666D01*
X81870Y236594D01*
X81897Y236521D01*
X81921Y236447D01*
X81941Y236372D01*
X81957Y236296D01*
X81970Y236219D01*
X81980Y236142D01*
X81985Y236064D01*
X81987Y235986D01*
X81987Y235577D01*
X81985Y235488D01*
X81979Y235399D01*
X81969Y235310D01*
X81956Y235222D01*
X81939Y235134D01*
X81917Y235047D01*
X81892Y234962D01*
X81864Y234877D01*
X81831Y234794D01*
X81795Y234712D01*
X81756Y234632D01*
X81713Y234554D01*
X81667Y234478D01*
X81617Y234403D01*
X81564Y234331D01*
X81508Y234262D01*
X81449Y234195D01*
X81388Y234130D01*
X81323Y234069D01*
X81256Y234010D01*
X81187Y233954D01*
X81115Y233901D01*
X81040Y233851D01*
X80964Y233805D01*
X80886Y233762D01*
X80806Y233723D01*
X80724Y233687D01*
X80641Y233654D01*
X80556Y233626D01*
X80471Y233601D01*
X80384Y233579D01*
X80296Y233562D01*
X80208Y233549D01*
X80119Y233539D01*
X80030Y233533D01*
X79941Y233531D01*
X79852Y233533D01*
X79763Y233539D01*
X79674Y233549D01*
X79586Y233562D01*
X79498Y233579D01*
X79411Y233601D01*
X79326Y233626D01*
X79241Y233654D01*
X79158Y233687D01*
X79076Y233723D01*
X78996Y233762D01*
X78918Y233805D01*
X78842Y233851D01*
X78767Y233901D01*
X78695Y233954D01*
X78626Y234010D01*
X78559Y234069D01*
X78494Y234130D01*
X78433Y234195D01*
X78374Y234262D01*
X78318Y234331D01*
X78265Y234403D01*
X78215Y234478D01*
X78169Y234554D01*
X78126Y234632D01*
X78087Y234712D01*
X78051Y234794D01*
X78018Y234877D01*
X77990Y234962D01*
X77965Y235047D01*
X77943Y235134D01*
X77926Y235222D01*
X77913Y235310D01*
X77903Y235399D01*
X77897Y235488D01*
X77895Y235577D01*
X77895Y237623D01*
X77897Y237737D01*
X77903Y237851D01*
X77913Y237965D01*
X77927Y238079D01*
X77945Y238192D01*
X77967Y238304D01*
X77992Y238415D01*
X78022Y238525D01*
X78055Y238635D01*
X78092Y238743D01*
X78133Y238849D01*
X78178Y238955D01*
X78226Y239058D01*
X78278Y239160D01*
X78334Y239260D01*
X78392Y239358D01*
X78455Y239454D01*
X78520Y239547D01*
X78589Y239639D01*
X78661Y239727D01*
X78736Y239814D01*
X78814Y239897D01*
X78895Y239978D01*
X78978Y240056D01*
X79065Y240131D01*
X79153Y240203D01*
X79245Y240272D01*
X79338Y240337D01*
X79434Y240399D01*
X79532Y240458D01*
X79632Y240514D01*
X79734Y240566D01*
X79837Y240614D01*
X79943Y240659D01*
X80049Y240700D01*
X80157Y240737D01*
X80267Y240770D01*
X80377Y240800D01*
X80488Y240825D01*
X80600Y240847D01*
X80713Y240865D01*
X80827Y240879D01*
X80941Y240889D01*
X81055Y240895D01*
X81169Y240897D01*
X129213Y241003D02*
X129213Y248369D01*
X131259Y248369D01*
X131348Y248367D01*
X131437Y248361D01*
X131526Y248351D01*
X131614Y248338D01*
X131702Y248321D01*
X131789Y248299D01*
X131874Y248274D01*
X131959Y248246D01*
X132042Y248213D01*
X132124Y248177D01*
X132204Y248138D01*
X132282Y248095D01*
X132358Y248049D01*
X132433Y247999D01*
X132505Y247946D01*
X132574Y247890D01*
X132641Y247831D01*
X132706Y247770D01*
X132767Y247705D01*
X132826Y247638D01*
X132882Y247569D01*
X132935Y247497D01*
X132985Y247422D01*
X133031Y247346D01*
X133074Y247268D01*
X133113Y247188D01*
X133149Y247106D01*
X133182Y247023D01*
X133210Y246938D01*
X133235Y246853D01*
X133257Y246766D01*
X133274Y246678D01*
X133287Y246590D01*
X133297Y246501D01*
X133303Y246412D01*
X133305Y246323D01*
X133303Y246234D01*
X133297Y246145D01*
X133287Y246056D01*
X133274Y245968D01*
X133257Y245880D01*
X133235Y245793D01*
X133210Y245708D01*
X133182Y245623D01*
X133149Y245540D01*
X133113Y245458D01*
X133074Y245378D01*
X133031Y245300D01*
X132985Y245224D01*
X132935Y245149D01*
X132882Y245077D01*
X132826Y245008D01*
X132767Y244941D01*
X132706Y244876D01*
X132641Y244815D01*
X132574Y244756D01*
X132505Y244700D01*
X132433Y244647D01*
X132358Y244597D01*
X132282Y244551D01*
X132204Y244508D01*
X132124Y244469D01*
X132042Y244433D01*
X131959Y244400D01*
X131874Y244372D01*
X131789Y244347D01*
X131702Y244325D01*
X131614Y244308D01*
X131526Y244295D01*
X131437Y244285D01*
X131348Y244279D01*
X131259Y244277D01*
X129213Y244277D01*
X131668Y244277D02*
X133305Y241003D01*
X136477Y247551D02*
X136477Y248369D01*
X140569Y248369D01*
X138523Y241003D01*
X137916Y207203D02*
X136279Y207203D01*
X136201Y207205D01*
X136123Y207210D01*
X136046Y207220D01*
X135969Y207233D01*
X135893Y207249D01*
X135818Y207269D01*
X135744Y207293D01*
X135671Y207320D01*
X135599Y207351D01*
X135529Y207385D01*
X135461Y207422D01*
X135394Y207463D01*
X135329Y207507D01*
X135267Y207553D01*
X135207Y207603D01*
X135149Y207655D01*
X135094Y207710D01*
X135042Y207768D01*
X134992Y207828D01*
X134946Y207890D01*
X134902Y207955D01*
X134861Y208022D01*
X134824Y208090D01*
X134790Y208160D01*
X134759Y208232D01*
X134732Y208305D01*
X134708Y208379D01*
X134688Y208454D01*
X134672Y208530D01*
X134659Y208607D01*
X134649Y208684D01*
X134644Y208762D01*
X134642Y208840D01*
X134643Y208840D02*
X134643Y212932D01*
X134642Y212932D02*
X134644Y213012D01*
X134650Y213092D01*
X134660Y213172D01*
X134673Y213251D01*
X134691Y213330D01*
X134712Y213407D01*
X134738Y213483D01*
X134767Y213558D01*
X134799Y213632D01*
X134835Y213704D01*
X134875Y213774D01*
X134918Y213841D01*
X134964Y213907D01*
X135014Y213970D01*
X135066Y214031D01*
X135121Y214090D01*
X135180Y214145D01*
X135240Y214197D01*
X135304Y214247D01*
X135370Y214293D01*
X135437Y214336D01*
X135507Y214376D01*
X135579Y214412D01*
X135653Y214444D01*
X135727Y214473D01*
X135804Y214499D01*
X135881Y214520D01*
X135960Y214538D01*
X136039Y214551D01*
X136119Y214561D01*
X136199Y214567D01*
X136279Y214569D01*
X137916Y214569D01*
X140762Y212932D02*
X142808Y214569D01*
X142808Y207203D01*
X140762Y207203D02*
X144854Y207203D01*
X148077Y210886D02*
X148079Y211039D01*
X148085Y211192D01*
X148094Y211344D01*
X148108Y211497D01*
X148125Y211649D01*
X148146Y211800D01*
X148171Y211951D01*
X148200Y212101D01*
X148232Y212251D01*
X148269Y212399D01*
X148309Y212547D01*
X148352Y212694D01*
X148400Y212839D01*
X148451Y212983D01*
X148505Y213126D01*
X148564Y213268D01*
X148625Y213407D01*
X148691Y213546D01*
X148717Y213616D01*
X148747Y213686D01*
X148780Y213753D01*
X148816Y213819D01*
X148855Y213883D01*
X148898Y213945D01*
X148944Y214004D01*
X148992Y214062D01*
X149043Y214116D01*
X149097Y214169D01*
X149154Y214218D01*
X149213Y214265D01*
X149274Y214308D01*
X149337Y214349D01*
X149402Y214386D01*
X149469Y214421D01*
X149538Y214451D01*
X149608Y214479D01*
X149679Y214502D01*
X149751Y214523D01*
X149824Y214539D01*
X149898Y214552D01*
X149973Y214562D01*
X150048Y214567D01*
X150123Y214569D01*
X150198Y214567D01*
X150273Y214562D01*
X150348Y214552D01*
X150422Y214539D01*
X150495Y214523D01*
X150567Y214502D01*
X150638Y214479D01*
X150708Y214451D01*
X150777Y214421D01*
X150844Y214386D01*
X150909Y214349D01*
X150972Y214308D01*
X151033Y214265D01*
X151092Y214218D01*
X151149Y214169D01*
X151203Y214116D01*
X151254Y214062D01*
X151303Y214004D01*
X151348Y213945D01*
X151391Y213883D01*
X151430Y213819D01*
X151467Y213753D01*
X151499Y213685D01*
X151529Y213616D01*
X151555Y213546D01*
X151620Y213408D01*
X151682Y213268D01*
X151740Y213126D01*
X151795Y212983D01*
X151846Y212839D01*
X151894Y212694D01*
X151937Y212547D01*
X151977Y212400D01*
X152014Y212251D01*
X152046Y212101D01*
X152075Y211951D01*
X152100Y211800D01*
X152121Y211649D01*
X152138Y211497D01*
X152152Y211344D01*
X152161Y211192D01*
X152167Y211039D01*
X152169Y210886D01*
X148076Y210886D02*
X148078Y210733D01*
X148084Y210580D01*
X148093Y210427D01*
X148107Y210275D01*
X148124Y210123D01*
X148145Y209972D01*
X148170Y209821D01*
X148199Y209670D01*
X148231Y209521D01*
X148268Y209372D01*
X148308Y209225D01*
X148351Y209078D01*
X148399Y208933D01*
X148450Y208788D01*
X148505Y208646D01*
X148563Y208504D01*
X148625Y208364D01*
X148690Y208226D01*
X148691Y208226D02*
X148717Y208155D01*
X148747Y208086D01*
X148780Y208019D01*
X148816Y207953D01*
X148855Y207889D01*
X148898Y207827D01*
X148944Y207768D01*
X148992Y207710D01*
X149043Y207656D01*
X149097Y207603D01*
X149154Y207554D01*
X149213Y207507D01*
X149274Y207464D01*
X149337Y207423D01*
X149402Y207386D01*
X149469Y207351D01*
X149538Y207321D01*
X149608Y207293D01*
X149679Y207270D01*
X149751Y207249D01*
X149824Y207233D01*
X149898Y207220D01*
X149973Y207210D01*
X150048Y207205D01*
X150123Y207203D01*
X151555Y208226D02*
X151620Y208364D01*
X151682Y208504D01*
X151740Y208646D01*
X151795Y208789D01*
X151846Y208933D01*
X151894Y209078D01*
X151937Y209225D01*
X151977Y209373D01*
X152014Y209521D01*
X152046Y209671D01*
X152075Y209821D01*
X152100Y209972D01*
X152121Y210123D01*
X152138Y210275D01*
X152152Y210428D01*
X152161Y210580D01*
X152167Y210733D01*
X152169Y210886D01*
X151555Y208226D02*
X151529Y208156D01*
X151499Y208086D01*
X151467Y208019D01*
X151430Y207953D01*
X151391Y207889D01*
X151348Y207827D01*
X151302Y207768D01*
X151254Y207710D01*
X151203Y207656D01*
X151149Y207603D01*
X151092Y207554D01*
X151033Y207507D01*
X150972Y207464D01*
X150909Y207423D01*
X150844Y207386D01*
X150777Y207351D01*
X150708Y207321D01*
X150638Y207293D01*
X150567Y207270D01*
X150495Y207249D01*
X150422Y207233D01*
X150348Y207220D01*
X150273Y207210D01*
X150198Y207205D01*
X150123Y207203D01*
X148486Y208840D02*
X151760Y212932D01*
X172469Y160505D02*
X172469Y158868D01*
X172467Y158790D01*
X172462Y158712D01*
X172452Y158635D01*
X172439Y158558D01*
X172423Y158482D01*
X172403Y158407D01*
X172379Y158333D01*
X172352Y158260D01*
X172321Y158188D01*
X172287Y158118D01*
X172250Y158050D01*
X172209Y157983D01*
X172165Y157918D01*
X172119Y157856D01*
X172069Y157796D01*
X172017Y157738D01*
X171962Y157683D01*
X171904Y157631D01*
X171844Y157581D01*
X171782Y157535D01*
X171717Y157491D01*
X171651Y157450D01*
X171582Y157413D01*
X171512Y157379D01*
X171440Y157348D01*
X171367Y157321D01*
X171293Y157297D01*
X171218Y157277D01*
X171142Y157261D01*
X171065Y157248D01*
X170988Y157238D01*
X170910Y157233D01*
X170832Y157231D01*
X166740Y157231D01*
X166660Y157233D01*
X166580Y157239D01*
X166500Y157249D01*
X166421Y157262D01*
X166342Y157280D01*
X166265Y157301D01*
X166189Y157327D01*
X166114Y157356D01*
X166040Y157388D01*
X165968Y157424D01*
X165898Y157464D01*
X165831Y157507D01*
X165765Y157553D01*
X165702Y157603D01*
X165641Y157655D01*
X165582Y157710D01*
X165527Y157769D01*
X165475Y157829D01*
X165425Y157893D01*
X165379Y157958D01*
X165336Y158026D01*
X165296Y158096D01*
X165260Y158168D01*
X165228Y158242D01*
X165199Y158316D01*
X165174Y158393D01*
X165152Y158470D01*
X165134Y158549D01*
X165121Y158628D01*
X165111Y158707D01*
X165105Y158788D01*
X165103Y158868D01*
X165103Y160505D01*
X166740Y163350D02*
X165103Y165396D01*
X172469Y165396D01*
X172469Y163350D02*
X172469Y167442D01*
X166740Y170665D02*
X165103Y172711D01*
X172469Y172711D01*
X172469Y170665D02*
X172469Y174758D01*
D13*
X76300Y121400D02*
X56300Y121400D01*
D10*
X41314Y124583D02*
X41314Y117217D01*
X44588Y117217D01*
X47394Y117217D02*
X49440Y117217D01*
X49529Y117219D01*
X49618Y117225D01*
X49707Y117235D01*
X49795Y117248D01*
X49883Y117265D01*
X49970Y117287D01*
X50055Y117312D01*
X50140Y117340D01*
X50223Y117373D01*
X50305Y117409D01*
X50385Y117448D01*
X50463Y117491D01*
X50539Y117537D01*
X50614Y117587D01*
X50686Y117640D01*
X50755Y117696D01*
X50822Y117755D01*
X50887Y117816D01*
X50948Y117881D01*
X51007Y117948D01*
X51063Y118017D01*
X51116Y118089D01*
X51166Y118164D01*
X51212Y118240D01*
X51255Y118318D01*
X51294Y118398D01*
X51330Y118480D01*
X51363Y118563D01*
X51391Y118648D01*
X51416Y118733D01*
X51438Y118820D01*
X51455Y118908D01*
X51468Y118996D01*
X51478Y119085D01*
X51484Y119174D01*
X51486Y119263D01*
X51484Y119352D01*
X51478Y119441D01*
X51468Y119530D01*
X51455Y119618D01*
X51438Y119706D01*
X51416Y119793D01*
X51391Y119878D01*
X51363Y119963D01*
X51330Y120046D01*
X51294Y120128D01*
X51255Y120208D01*
X51212Y120286D01*
X51166Y120362D01*
X51116Y120437D01*
X51063Y120509D01*
X51007Y120578D01*
X50948Y120645D01*
X50887Y120710D01*
X50822Y120771D01*
X50755Y120830D01*
X50686Y120886D01*
X50614Y120939D01*
X50539Y120989D01*
X50463Y121035D01*
X50385Y121078D01*
X50305Y121117D01*
X50223Y121153D01*
X50140Y121186D01*
X50055Y121214D01*
X49970Y121239D01*
X49883Y121261D01*
X49795Y121278D01*
X49707Y121291D01*
X49618Y121301D01*
X49529Y121307D01*
X49440Y121309D01*
X49849Y124583D02*
X47394Y124583D01*
X49849Y124583D02*
X49928Y124581D01*
X50007Y124575D01*
X50086Y124566D01*
X50164Y124553D01*
X50241Y124535D01*
X50317Y124515D01*
X50392Y124490D01*
X50466Y124462D01*
X50539Y124431D01*
X50610Y124395D01*
X50679Y124357D01*
X50746Y124315D01*
X50811Y124270D01*
X50874Y124222D01*
X50935Y124171D01*
X50992Y124117D01*
X51048Y124061D01*
X51100Y124002D01*
X51150Y123940D01*
X51196Y123876D01*
X51240Y123810D01*
X51280Y123742D01*
X51316Y123672D01*
X51350Y123600D01*
X51380Y123526D01*
X51406Y123452D01*
X51429Y123376D01*
X51447Y123299D01*
X51463Y123222D01*
X51474Y123143D01*
X51482Y123065D01*
X51486Y122986D01*
X51486Y122906D01*
X51482Y122827D01*
X51474Y122749D01*
X51463Y122670D01*
X51447Y122593D01*
X51429Y122516D01*
X51406Y122440D01*
X51380Y122366D01*
X51350Y122292D01*
X51316Y122220D01*
X51280Y122150D01*
X51240Y122082D01*
X51196Y122016D01*
X51150Y121952D01*
X51100Y121890D01*
X51048Y121831D01*
X50992Y121775D01*
X50935Y121721D01*
X50874Y121670D01*
X50811Y121622D01*
X50746Y121577D01*
X50679Y121535D01*
X50610Y121497D01*
X50539Y121461D01*
X50466Y121430D01*
X50392Y121402D01*
X50317Y121377D01*
X50241Y121357D01*
X50164Y121339D01*
X50086Y121326D01*
X50007Y121317D01*
X49928Y121311D01*
X49849Y121309D01*
X48212Y121309D01*
X228031Y209631D02*
X228031Y216997D01*
X230077Y216997D01*
X230166Y216995D01*
X230255Y216989D01*
X230344Y216979D01*
X230432Y216966D01*
X230520Y216949D01*
X230607Y216927D01*
X230692Y216902D01*
X230777Y216874D01*
X230860Y216841D01*
X230942Y216805D01*
X231022Y216766D01*
X231100Y216723D01*
X231176Y216677D01*
X231251Y216627D01*
X231323Y216574D01*
X231392Y216518D01*
X231459Y216459D01*
X231524Y216398D01*
X231585Y216333D01*
X231644Y216266D01*
X231700Y216197D01*
X231753Y216125D01*
X231803Y216050D01*
X231849Y215974D01*
X231892Y215896D01*
X231931Y215816D01*
X231967Y215734D01*
X232000Y215651D01*
X232028Y215566D01*
X232053Y215481D01*
X232075Y215394D01*
X232092Y215306D01*
X232105Y215218D01*
X232115Y215129D01*
X232121Y215040D01*
X232123Y214951D01*
X232121Y214862D01*
X232115Y214773D01*
X232105Y214684D01*
X232092Y214596D01*
X232075Y214508D01*
X232053Y214421D01*
X232028Y214336D01*
X232000Y214251D01*
X231967Y214168D01*
X231931Y214086D01*
X231892Y214006D01*
X231849Y213928D01*
X231803Y213852D01*
X231753Y213777D01*
X231700Y213705D01*
X231644Y213636D01*
X231585Y213569D01*
X231524Y213504D01*
X231459Y213443D01*
X231392Y213384D01*
X231323Y213328D01*
X231251Y213275D01*
X231176Y213225D01*
X231100Y213179D01*
X231022Y213136D01*
X230942Y213097D01*
X230860Y213061D01*
X230777Y213028D01*
X230692Y213000D01*
X230607Y212975D01*
X230520Y212953D01*
X230432Y212936D01*
X230344Y212923D01*
X230255Y212913D01*
X230166Y212907D01*
X230077Y212905D01*
X228031Y212905D01*
X230486Y212905D02*
X232123Y209631D01*
X235295Y211677D02*
X235297Y211766D01*
X235303Y211855D01*
X235313Y211944D01*
X235326Y212032D01*
X235343Y212120D01*
X235365Y212207D01*
X235390Y212292D01*
X235418Y212377D01*
X235451Y212460D01*
X235487Y212542D01*
X235526Y212622D01*
X235569Y212700D01*
X235615Y212776D01*
X235665Y212851D01*
X235718Y212923D01*
X235774Y212992D01*
X235833Y213059D01*
X235894Y213124D01*
X235959Y213185D01*
X236026Y213244D01*
X236095Y213300D01*
X236167Y213353D01*
X236242Y213403D01*
X236318Y213449D01*
X236396Y213492D01*
X236476Y213531D01*
X236558Y213567D01*
X236641Y213600D01*
X236726Y213628D01*
X236811Y213653D01*
X236898Y213675D01*
X236986Y213692D01*
X237074Y213705D01*
X237163Y213715D01*
X237252Y213721D01*
X237341Y213723D01*
X237430Y213721D01*
X237519Y213715D01*
X237608Y213705D01*
X237696Y213692D01*
X237784Y213675D01*
X237871Y213653D01*
X237956Y213628D01*
X238041Y213600D01*
X238124Y213567D01*
X238206Y213531D01*
X238286Y213492D01*
X238364Y213449D01*
X238440Y213403D01*
X238515Y213353D01*
X238587Y213300D01*
X238656Y213244D01*
X238723Y213185D01*
X238788Y213124D01*
X238849Y213059D01*
X238908Y212992D01*
X238964Y212923D01*
X239017Y212851D01*
X239067Y212776D01*
X239113Y212700D01*
X239156Y212622D01*
X239195Y212542D01*
X239231Y212460D01*
X239264Y212377D01*
X239292Y212292D01*
X239317Y212207D01*
X239339Y212120D01*
X239356Y212032D01*
X239369Y211944D01*
X239379Y211855D01*
X239385Y211766D01*
X239387Y211677D01*
X239385Y211588D01*
X239379Y211499D01*
X239369Y211410D01*
X239356Y211322D01*
X239339Y211234D01*
X239317Y211147D01*
X239292Y211062D01*
X239264Y210977D01*
X239231Y210894D01*
X239195Y210812D01*
X239156Y210732D01*
X239113Y210654D01*
X239067Y210578D01*
X239017Y210503D01*
X238964Y210431D01*
X238908Y210362D01*
X238849Y210295D01*
X238788Y210230D01*
X238723Y210169D01*
X238656Y210110D01*
X238587Y210054D01*
X238515Y210001D01*
X238440Y209951D01*
X238364Y209905D01*
X238286Y209862D01*
X238206Y209823D01*
X238124Y209787D01*
X238041Y209754D01*
X237956Y209726D01*
X237871Y209701D01*
X237784Y209679D01*
X237696Y209662D01*
X237608Y209649D01*
X237519Y209639D01*
X237430Y209633D01*
X237341Y209631D01*
X237252Y209633D01*
X237163Y209639D01*
X237074Y209649D01*
X236986Y209662D01*
X236898Y209679D01*
X236811Y209701D01*
X236726Y209726D01*
X236641Y209754D01*
X236558Y209787D01*
X236476Y209823D01*
X236396Y209862D01*
X236318Y209905D01*
X236242Y209951D01*
X236167Y210001D01*
X236095Y210054D01*
X236026Y210110D01*
X235959Y210169D01*
X235894Y210230D01*
X235833Y210295D01*
X235774Y210362D01*
X235718Y210431D01*
X235665Y210503D01*
X235615Y210578D01*
X235569Y210654D01*
X235526Y210732D01*
X235487Y210812D01*
X235451Y210894D01*
X235418Y210977D01*
X235390Y211062D01*
X235365Y211147D01*
X235343Y211234D01*
X235326Y211322D01*
X235313Y211410D01*
X235303Y211499D01*
X235297Y211588D01*
X235295Y211677D01*
X235704Y215360D02*
X235706Y215439D01*
X235712Y215518D01*
X235721Y215597D01*
X235734Y215675D01*
X235752Y215752D01*
X235772Y215828D01*
X235797Y215903D01*
X235825Y215977D01*
X235856Y216050D01*
X235892Y216121D01*
X235930Y216190D01*
X235972Y216257D01*
X236017Y216322D01*
X236065Y216385D01*
X236116Y216446D01*
X236170Y216503D01*
X236226Y216559D01*
X236285Y216611D01*
X236347Y216661D01*
X236411Y216707D01*
X236477Y216751D01*
X236545Y216791D01*
X236615Y216827D01*
X236687Y216861D01*
X236761Y216891D01*
X236835Y216917D01*
X236911Y216940D01*
X236988Y216958D01*
X237065Y216974D01*
X237144Y216985D01*
X237222Y216993D01*
X237301Y216997D01*
X237381Y216997D01*
X237460Y216993D01*
X237538Y216985D01*
X237617Y216974D01*
X237694Y216958D01*
X237771Y216940D01*
X237847Y216917D01*
X237921Y216891D01*
X237995Y216861D01*
X238067Y216827D01*
X238137Y216791D01*
X238205Y216751D01*
X238271Y216707D01*
X238335Y216661D01*
X238397Y216611D01*
X238456Y216559D01*
X238512Y216503D01*
X238566Y216446D01*
X238617Y216385D01*
X238665Y216322D01*
X238710Y216257D01*
X238752Y216190D01*
X238790Y216121D01*
X238826Y216050D01*
X238857Y215977D01*
X238885Y215903D01*
X238910Y215828D01*
X238930Y215752D01*
X238948Y215675D01*
X238961Y215597D01*
X238970Y215518D01*
X238976Y215439D01*
X238978Y215360D01*
X238976Y215281D01*
X238970Y215202D01*
X238961Y215123D01*
X238948Y215045D01*
X238930Y214968D01*
X238910Y214892D01*
X238885Y214817D01*
X238857Y214743D01*
X238826Y214670D01*
X238790Y214599D01*
X238752Y214530D01*
X238710Y214463D01*
X238665Y214398D01*
X238617Y214335D01*
X238566Y214274D01*
X238512Y214217D01*
X238456Y214161D01*
X238397Y214109D01*
X238335Y214059D01*
X238271Y214013D01*
X238205Y213969D01*
X238137Y213929D01*
X238067Y213893D01*
X237995Y213859D01*
X237921Y213829D01*
X237847Y213803D01*
X237771Y213780D01*
X237694Y213762D01*
X237617Y213746D01*
X237538Y213735D01*
X237460Y213727D01*
X237381Y213723D01*
X237301Y213723D01*
X237222Y213727D01*
X237144Y213735D01*
X237065Y213746D01*
X236988Y213762D01*
X236911Y213780D01*
X236835Y213803D01*
X236761Y213829D01*
X236687Y213859D01*
X236615Y213893D01*
X236545Y213929D01*
X236477Y213969D01*
X236411Y214013D01*
X236347Y214059D01*
X236285Y214109D01*
X236226Y214161D01*
X236170Y214217D01*
X236116Y214274D01*
X236065Y214335D01*
X236017Y214398D01*
X235972Y214463D01*
X235930Y214530D01*
X235892Y214599D01*
X235856Y214670D01*
X235825Y214743D01*
X235797Y214817D01*
X235772Y214892D01*
X235752Y214968D01*
X235734Y215045D01*
X235721Y215123D01*
X235712Y215202D01*
X235706Y215281D01*
X235704Y215360D01*
X160569Y159631D02*
X153203Y159631D01*
X153203Y161677D01*
X153205Y161766D01*
X153211Y161855D01*
X153221Y161944D01*
X153234Y162032D01*
X153251Y162120D01*
X153273Y162207D01*
X153298Y162292D01*
X153326Y162377D01*
X153359Y162460D01*
X153395Y162542D01*
X153434Y162622D01*
X153477Y162700D01*
X153523Y162776D01*
X153573Y162851D01*
X153626Y162923D01*
X153682Y162992D01*
X153741Y163059D01*
X153802Y163124D01*
X153867Y163185D01*
X153934Y163244D01*
X154003Y163300D01*
X154075Y163353D01*
X154150Y163403D01*
X154226Y163449D01*
X154304Y163492D01*
X154384Y163531D01*
X154466Y163567D01*
X154549Y163600D01*
X154634Y163628D01*
X154719Y163653D01*
X154806Y163675D01*
X154894Y163692D01*
X154982Y163705D01*
X155071Y163715D01*
X155160Y163721D01*
X155249Y163723D01*
X155338Y163721D01*
X155427Y163715D01*
X155516Y163705D01*
X155604Y163692D01*
X155692Y163675D01*
X155779Y163653D01*
X155864Y163628D01*
X155949Y163600D01*
X156032Y163567D01*
X156114Y163531D01*
X156194Y163492D01*
X156272Y163449D01*
X156348Y163403D01*
X156423Y163353D01*
X156495Y163300D01*
X156564Y163244D01*
X156631Y163185D01*
X156696Y163124D01*
X156757Y163059D01*
X156816Y162992D01*
X156872Y162923D01*
X156925Y162851D01*
X156975Y162776D01*
X157021Y162700D01*
X157064Y162622D01*
X157103Y162542D01*
X157139Y162460D01*
X157172Y162377D01*
X157200Y162292D01*
X157225Y162207D01*
X157247Y162120D01*
X157264Y162032D01*
X157277Y161944D01*
X157287Y161855D01*
X157293Y161766D01*
X157295Y161677D01*
X157295Y159631D01*
X157295Y162086D02*
X160569Y163723D01*
X157295Y168532D02*
X157295Y170987D01*
X157295Y168532D02*
X157293Y168454D01*
X157288Y168376D01*
X157278Y168299D01*
X157265Y168222D01*
X157249Y168146D01*
X157229Y168071D01*
X157205Y167997D01*
X157178Y167924D01*
X157147Y167852D01*
X157113Y167782D01*
X157076Y167714D01*
X157035Y167647D01*
X156991Y167582D01*
X156945Y167520D01*
X156895Y167460D01*
X156843Y167402D01*
X156788Y167347D01*
X156730Y167295D01*
X156670Y167245D01*
X156608Y167199D01*
X156543Y167155D01*
X156477Y167114D01*
X156408Y167077D01*
X156338Y167043D01*
X156266Y167012D01*
X156193Y166985D01*
X156119Y166961D01*
X156044Y166941D01*
X155968Y166925D01*
X155891Y166912D01*
X155814Y166902D01*
X155736Y166897D01*
X155658Y166895D01*
X155249Y166895D01*
X155160Y166897D01*
X155071Y166903D01*
X154982Y166913D01*
X154894Y166926D01*
X154806Y166943D01*
X154719Y166965D01*
X154634Y166990D01*
X154549Y167018D01*
X154466Y167051D01*
X154384Y167087D01*
X154304Y167126D01*
X154226Y167169D01*
X154150Y167215D01*
X154075Y167265D01*
X154003Y167318D01*
X153934Y167374D01*
X153867Y167433D01*
X153802Y167494D01*
X153741Y167559D01*
X153682Y167626D01*
X153626Y167695D01*
X153573Y167767D01*
X153523Y167842D01*
X153477Y167918D01*
X153434Y167996D01*
X153395Y168076D01*
X153359Y168158D01*
X153326Y168241D01*
X153298Y168326D01*
X153273Y168411D01*
X153251Y168498D01*
X153234Y168586D01*
X153221Y168674D01*
X153211Y168763D01*
X153205Y168852D01*
X153203Y168941D01*
X153205Y169030D01*
X153211Y169119D01*
X153221Y169208D01*
X153234Y169296D01*
X153251Y169384D01*
X153273Y169471D01*
X153298Y169556D01*
X153326Y169641D01*
X153359Y169724D01*
X153395Y169806D01*
X153434Y169886D01*
X153477Y169964D01*
X153523Y170040D01*
X153573Y170115D01*
X153626Y170187D01*
X153682Y170256D01*
X153741Y170323D01*
X153802Y170388D01*
X153867Y170449D01*
X153934Y170508D01*
X154003Y170564D01*
X154075Y170617D01*
X154150Y170667D01*
X154226Y170713D01*
X154304Y170756D01*
X154384Y170795D01*
X154466Y170831D01*
X154549Y170864D01*
X154634Y170892D01*
X154719Y170917D01*
X154806Y170939D01*
X154894Y170956D01*
X154982Y170969D01*
X155071Y170979D01*
X155160Y170985D01*
X155249Y170987D01*
X157295Y170987D01*
X157407Y170985D01*
X157518Y170979D01*
X157630Y170970D01*
X157741Y170957D01*
X157851Y170939D01*
X157961Y170919D01*
X158070Y170894D01*
X158178Y170866D01*
X158285Y170834D01*
X158391Y170798D01*
X158496Y170759D01*
X158599Y170716D01*
X158701Y170670D01*
X158801Y170620D01*
X158900Y170567D01*
X158996Y170510D01*
X159091Y170451D01*
X159183Y170388D01*
X159273Y170322D01*
X159361Y170253D01*
X159447Y170181D01*
X159530Y170106D01*
X159610Y170028D01*
X159688Y169948D01*
X159763Y169865D01*
X159835Y169779D01*
X159904Y169691D01*
X159970Y169601D01*
X160033Y169509D01*
X160092Y169414D01*
X160149Y169318D01*
X160202Y169219D01*
X160252Y169119D01*
X160298Y169017D01*
X160341Y168914D01*
X160380Y168809D01*
X160416Y168703D01*
X160448Y168596D01*
X160476Y168488D01*
X160501Y168379D01*
X160521Y168269D01*
X160539Y168159D01*
X160552Y168048D01*
X160561Y167936D01*
X160567Y167825D01*
X160569Y167713D01*
X161569Y135005D02*
X161569Y133368D01*
X161567Y133290D01*
X161562Y133212D01*
X161552Y133135D01*
X161539Y133058D01*
X161523Y132982D01*
X161503Y132907D01*
X161479Y132833D01*
X161452Y132760D01*
X161421Y132688D01*
X161387Y132618D01*
X161350Y132550D01*
X161309Y132483D01*
X161265Y132418D01*
X161219Y132356D01*
X161169Y132296D01*
X161117Y132238D01*
X161062Y132183D01*
X161004Y132131D01*
X160944Y132081D01*
X160882Y132035D01*
X160817Y131991D01*
X160751Y131950D01*
X160682Y131913D01*
X160612Y131879D01*
X160540Y131848D01*
X160467Y131821D01*
X160393Y131797D01*
X160318Y131777D01*
X160242Y131761D01*
X160165Y131748D01*
X160088Y131738D01*
X160010Y131733D01*
X159932Y131731D01*
X155840Y131731D01*
X155760Y131733D01*
X155680Y131739D01*
X155600Y131749D01*
X155521Y131762D01*
X155442Y131780D01*
X155365Y131801D01*
X155289Y131827D01*
X155214Y131856D01*
X155140Y131888D01*
X155068Y131924D01*
X154998Y131964D01*
X154931Y132007D01*
X154865Y132053D01*
X154802Y132103D01*
X154741Y132155D01*
X154682Y132210D01*
X154627Y132269D01*
X154575Y132329D01*
X154525Y132393D01*
X154479Y132458D01*
X154436Y132526D01*
X154396Y132596D01*
X154360Y132668D01*
X154328Y132742D01*
X154299Y132816D01*
X154274Y132893D01*
X154252Y132970D01*
X154234Y133049D01*
X154221Y133128D01*
X154211Y133207D01*
X154205Y133288D01*
X154203Y133368D01*
X154203Y135005D01*
X155840Y137850D02*
X154203Y139896D01*
X161569Y139896D01*
X161569Y137850D02*
X161569Y141942D01*
X156045Y149258D02*
X155960Y149256D01*
X155875Y149250D01*
X155791Y149240D01*
X155707Y149227D01*
X155623Y149209D01*
X155541Y149188D01*
X155460Y149163D01*
X155380Y149134D01*
X155301Y149101D01*
X155224Y149065D01*
X155149Y149025D01*
X155075Y148982D01*
X155004Y148936D01*
X154935Y148886D01*
X154868Y148833D01*
X154804Y148777D01*
X154743Y148718D01*
X154684Y148657D01*
X154628Y148593D01*
X154575Y148526D01*
X154525Y148457D01*
X154479Y148386D01*
X154436Y148312D01*
X154396Y148237D01*
X154360Y148160D01*
X154327Y148081D01*
X154298Y148001D01*
X154273Y147920D01*
X154252Y147838D01*
X154234Y147754D01*
X154221Y147670D01*
X154211Y147586D01*
X154205Y147501D01*
X154203Y147416D01*
X154205Y147320D01*
X154211Y147224D01*
X154221Y147129D01*
X154234Y147034D01*
X154252Y146939D01*
X154273Y146846D01*
X154298Y146753D01*
X154327Y146662D01*
X154359Y146571D01*
X154395Y146482D01*
X154435Y146395D01*
X154478Y146309D01*
X154524Y146225D01*
X154574Y146143D01*
X154628Y146063D01*
X154684Y145986D01*
X154744Y145911D01*
X154806Y145838D01*
X154872Y145768D01*
X154940Y145700D01*
X155011Y145635D01*
X155084Y145574D01*
X155160Y145515D01*
X155239Y145459D01*
X155319Y145407D01*
X155402Y145358D01*
X155486Y145312D01*
X155572Y145270D01*
X155660Y145232D01*
X155749Y145197D01*
X155840Y145165D01*
X157477Y148644D02*
X157418Y148704D01*
X157356Y148761D01*
X157292Y148816D01*
X157225Y148867D01*
X157156Y148916D01*
X157086Y148962D01*
X157013Y149005D01*
X156939Y149045D01*
X156863Y149081D01*
X156785Y149114D01*
X156706Y149144D01*
X156626Y149171D01*
X156545Y149194D01*
X156463Y149213D01*
X156381Y149229D01*
X156297Y149242D01*
X156213Y149251D01*
X156129Y149256D01*
X156045Y149258D01*
X157477Y148644D02*
X161569Y145165D01*
X161569Y149258D01*
X166303Y132131D02*
X173669Y132131D01*
X166303Y132131D02*
X166303Y134177D01*
X166305Y134266D01*
X166311Y134355D01*
X166321Y134444D01*
X166334Y134532D01*
X166351Y134620D01*
X166373Y134707D01*
X166398Y134792D01*
X166426Y134877D01*
X166459Y134960D01*
X166495Y135042D01*
X166534Y135122D01*
X166577Y135200D01*
X166623Y135276D01*
X166673Y135351D01*
X166726Y135423D01*
X166782Y135492D01*
X166841Y135559D01*
X166902Y135624D01*
X166967Y135685D01*
X167034Y135744D01*
X167103Y135800D01*
X167175Y135853D01*
X167250Y135903D01*
X167326Y135949D01*
X167404Y135992D01*
X167484Y136031D01*
X167566Y136067D01*
X167649Y136100D01*
X167734Y136128D01*
X167819Y136153D01*
X167906Y136175D01*
X167994Y136192D01*
X168082Y136205D01*
X168171Y136215D01*
X168260Y136221D01*
X168349Y136223D01*
X168438Y136221D01*
X168527Y136215D01*
X168616Y136205D01*
X168704Y136192D01*
X168792Y136175D01*
X168879Y136153D01*
X168964Y136128D01*
X169049Y136100D01*
X169132Y136067D01*
X169214Y136031D01*
X169294Y135992D01*
X169372Y135949D01*
X169448Y135903D01*
X169523Y135853D01*
X169595Y135800D01*
X169664Y135744D01*
X169731Y135685D01*
X169796Y135624D01*
X169857Y135559D01*
X169916Y135492D01*
X169972Y135423D01*
X170025Y135351D01*
X170075Y135276D01*
X170121Y135200D01*
X170164Y135122D01*
X170203Y135042D01*
X170239Y134960D01*
X170272Y134877D01*
X170300Y134792D01*
X170325Y134707D01*
X170347Y134620D01*
X170364Y134532D01*
X170377Y134444D01*
X170387Y134355D01*
X170393Y134266D01*
X170395Y134177D01*
X170395Y132131D01*
X170395Y134586D02*
X173669Y136223D01*
X167940Y139395D02*
X166303Y141441D01*
X173669Y141441D01*
X173669Y139395D02*
X173669Y143487D01*
X169986Y146711D02*
X169833Y146713D01*
X169680Y146719D01*
X169528Y146728D01*
X169375Y146742D01*
X169223Y146759D01*
X169072Y146780D01*
X168921Y146805D01*
X168771Y146834D01*
X168621Y146866D01*
X168473Y146903D01*
X168325Y146943D01*
X168178Y146986D01*
X168033Y147034D01*
X167889Y147085D01*
X167746Y147139D01*
X167604Y147198D01*
X167465Y147259D01*
X167326Y147325D01*
X167326Y147324D02*
X167256Y147350D01*
X167186Y147380D01*
X167119Y147413D01*
X167053Y147449D01*
X166989Y147488D01*
X166927Y147531D01*
X166868Y147577D01*
X166810Y147625D01*
X166756Y147676D01*
X166703Y147730D01*
X166654Y147787D01*
X166607Y147846D01*
X166564Y147907D01*
X166523Y147970D01*
X166486Y148035D01*
X166451Y148102D01*
X166421Y148171D01*
X166393Y148241D01*
X166370Y148312D01*
X166349Y148384D01*
X166333Y148457D01*
X166320Y148531D01*
X166310Y148606D01*
X166305Y148681D01*
X166303Y148756D01*
X166305Y148831D01*
X166310Y148906D01*
X166320Y148981D01*
X166333Y149055D01*
X166349Y149128D01*
X166370Y149200D01*
X166393Y149271D01*
X166421Y149341D01*
X166451Y149410D01*
X166486Y149477D01*
X166523Y149542D01*
X166564Y149605D01*
X166607Y149666D01*
X166654Y149725D01*
X166703Y149782D01*
X166756Y149836D01*
X166810Y149887D01*
X166868Y149936D01*
X166927Y149981D01*
X166989Y150024D01*
X167053Y150063D01*
X167119Y150100D01*
X167187Y150132D01*
X167256Y150162D01*
X167326Y150188D01*
X167464Y150253D01*
X167604Y150315D01*
X167746Y150373D01*
X167889Y150428D01*
X168033Y150479D01*
X168178Y150527D01*
X168325Y150570D01*
X168472Y150610D01*
X168621Y150647D01*
X168771Y150679D01*
X168921Y150708D01*
X169072Y150733D01*
X169223Y150754D01*
X169375Y150771D01*
X169528Y150785D01*
X169680Y150794D01*
X169833Y150800D01*
X169986Y150802D01*
X169986Y146711D02*
X170139Y146713D01*
X170292Y146719D01*
X170444Y146728D01*
X170597Y146742D01*
X170749Y146759D01*
X170900Y146780D01*
X171051Y146805D01*
X171201Y146834D01*
X171351Y146866D01*
X171499Y146903D01*
X171647Y146943D01*
X171794Y146986D01*
X171939Y147034D01*
X172083Y147085D01*
X172226Y147139D01*
X172368Y147198D01*
X172507Y147259D01*
X172646Y147325D01*
X172646Y147324D02*
X172717Y147350D01*
X172786Y147380D01*
X172853Y147413D01*
X172919Y147449D01*
X172983Y147488D01*
X173045Y147531D01*
X173104Y147577D01*
X173162Y147625D01*
X173216Y147676D01*
X173269Y147730D01*
X173318Y147787D01*
X173365Y147846D01*
X173408Y147907D01*
X173449Y147970D01*
X173486Y148035D01*
X173521Y148102D01*
X173551Y148171D01*
X173579Y148241D01*
X173602Y148312D01*
X173623Y148384D01*
X173639Y148457D01*
X173652Y148531D01*
X173662Y148606D01*
X173667Y148681D01*
X173669Y148756D01*
X172646Y150188D02*
X172508Y150253D01*
X172368Y150315D01*
X172226Y150373D01*
X172083Y150428D01*
X171939Y150479D01*
X171794Y150527D01*
X171647Y150570D01*
X171500Y150610D01*
X171351Y150647D01*
X171201Y150679D01*
X171051Y150708D01*
X170900Y150733D01*
X170749Y150754D01*
X170597Y150771D01*
X170444Y150785D01*
X170292Y150794D01*
X170139Y150800D01*
X169986Y150802D01*
X172646Y150188D02*
X172716Y150162D01*
X172786Y150132D01*
X172853Y150099D01*
X172919Y150063D01*
X172983Y150024D01*
X173045Y149981D01*
X173104Y149935D01*
X173162Y149887D01*
X173216Y149836D01*
X173269Y149782D01*
X173318Y149725D01*
X173365Y149666D01*
X173408Y149605D01*
X173449Y149542D01*
X173486Y149477D01*
X173521Y149410D01*
X173551Y149341D01*
X173579Y149271D01*
X173602Y149200D01*
X173623Y149128D01*
X173639Y149055D01*
X173652Y148981D01*
X173662Y148906D01*
X173667Y148831D01*
X173669Y148756D01*
X172032Y147119D02*
X167940Y150393D01*
X216997Y172779D02*
X216997Y174416D01*
X216997Y172779D02*
X216995Y172701D01*
X216990Y172623D01*
X216980Y172546D01*
X216967Y172469D01*
X216951Y172393D01*
X216931Y172318D01*
X216907Y172244D01*
X216880Y172171D01*
X216849Y172099D01*
X216815Y172029D01*
X216778Y171961D01*
X216737Y171894D01*
X216693Y171829D01*
X216647Y171767D01*
X216597Y171707D01*
X216545Y171649D01*
X216490Y171594D01*
X216432Y171542D01*
X216372Y171492D01*
X216310Y171446D01*
X216245Y171402D01*
X216179Y171361D01*
X216110Y171324D01*
X216040Y171290D01*
X215968Y171259D01*
X215895Y171232D01*
X215821Y171208D01*
X215746Y171188D01*
X215670Y171172D01*
X215593Y171159D01*
X215516Y171149D01*
X215438Y171144D01*
X215360Y171142D01*
X215360Y171143D02*
X211268Y171143D01*
X211268Y171142D02*
X211188Y171144D01*
X211108Y171150D01*
X211028Y171160D01*
X210949Y171173D01*
X210870Y171191D01*
X210793Y171212D01*
X210717Y171238D01*
X210642Y171267D01*
X210568Y171299D01*
X210496Y171335D01*
X210426Y171375D01*
X210359Y171418D01*
X210293Y171464D01*
X210230Y171514D01*
X210169Y171566D01*
X210110Y171621D01*
X210055Y171680D01*
X210003Y171740D01*
X209953Y171804D01*
X209907Y171869D01*
X209864Y171937D01*
X209824Y172007D01*
X209788Y172079D01*
X209756Y172153D01*
X209727Y172227D01*
X209702Y172304D01*
X209680Y172381D01*
X209662Y172460D01*
X209649Y172539D01*
X209639Y172618D01*
X209633Y172699D01*
X209631Y172779D01*
X209631Y174416D01*
X211268Y177262D02*
X209631Y179308D01*
X216997Y179308D01*
X216997Y177262D02*
X216997Y181354D01*
X216997Y184577D02*
X216997Y186623D01*
X216995Y186712D01*
X216989Y186801D01*
X216979Y186890D01*
X216966Y186978D01*
X216949Y187066D01*
X216927Y187153D01*
X216902Y187238D01*
X216874Y187323D01*
X216841Y187406D01*
X216805Y187488D01*
X216766Y187568D01*
X216723Y187646D01*
X216677Y187722D01*
X216627Y187797D01*
X216574Y187869D01*
X216518Y187938D01*
X216459Y188005D01*
X216398Y188070D01*
X216333Y188131D01*
X216266Y188190D01*
X216197Y188246D01*
X216125Y188299D01*
X216050Y188349D01*
X215974Y188395D01*
X215896Y188438D01*
X215816Y188477D01*
X215734Y188513D01*
X215651Y188546D01*
X215566Y188574D01*
X215481Y188599D01*
X215394Y188621D01*
X215306Y188638D01*
X215218Y188651D01*
X215129Y188661D01*
X215040Y188667D01*
X214951Y188669D01*
X214862Y188667D01*
X214773Y188661D01*
X214684Y188651D01*
X214596Y188638D01*
X214508Y188621D01*
X214421Y188599D01*
X214336Y188574D01*
X214251Y188546D01*
X214168Y188513D01*
X214086Y188477D01*
X214006Y188438D01*
X213928Y188395D01*
X213852Y188349D01*
X213777Y188299D01*
X213705Y188246D01*
X213636Y188190D01*
X213569Y188131D01*
X213504Y188070D01*
X213443Y188005D01*
X213384Y187938D01*
X213328Y187869D01*
X213275Y187797D01*
X213225Y187722D01*
X213179Y187646D01*
X213136Y187568D01*
X213097Y187488D01*
X213061Y187406D01*
X213028Y187323D01*
X213000Y187238D01*
X212975Y187153D01*
X212953Y187066D01*
X212936Y186978D01*
X212923Y186890D01*
X212913Y186801D01*
X212907Y186712D01*
X212905Y186623D01*
X209631Y187032D02*
X209631Y184577D01*
X209631Y187032D02*
X209633Y187111D01*
X209639Y187190D01*
X209648Y187269D01*
X209661Y187347D01*
X209679Y187424D01*
X209699Y187500D01*
X209724Y187575D01*
X209752Y187649D01*
X209783Y187722D01*
X209819Y187793D01*
X209857Y187862D01*
X209899Y187929D01*
X209944Y187994D01*
X209992Y188057D01*
X210043Y188118D01*
X210097Y188175D01*
X210153Y188231D01*
X210212Y188283D01*
X210274Y188333D01*
X210338Y188379D01*
X210404Y188423D01*
X210472Y188463D01*
X210542Y188499D01*
X210614Y188533D01*
X210688Y188563D01*
X210762Y188589D01*
X210838Y188612D01*
X210915Y188630D01*
X210992Y188646D01*
X211071Y188657D01*
X211149Y188665D01*
X211228Y188669D01*
X211308Y188669D01*
X211387Y188665D01*
X211465Y188657D01*
X211544Y188646D01*
X211621Y188630D01*
X211698Y188612D01*
X211774Y188589D01*
X211848Y188563D01*
X211922Y188533D01*
X211994Y188499D01*
X212064Y188463D01*
X212132Y188423D01*
X212198Y188379D01*
X212262Y188333D01*
X212324Y188283D01*
X212383Y188231D01*
X212439Y188175D01*
X212493Y188118D01*
X212544Y188057D01*
X212592Y187994D01*
X212637Y187929D01*
X212679Y187862D01*
X212717Y187793D01*
X212753Y187722D01*
X212784Y187649D01*
X212812Y187575D01*
X212837Y187500D01*
X212857Y187424D01*
X212875Y187347D01*
X212888Y187269D01*
X212897Y187190D01*
X212903Y187111D01*
X212905Y187032D01*
X212905Y185395D01*
X169269Y190068D02*
X169269Y191705D01*
X169269Y190068D02*
X169267Y189990D01*
X169262Y189912D01*
X169252Y189835D01*
X169239Y189758D01*
X169223Y189682D01*
X169203Y189607D01*
X169179Y189533D01*
X169152Y189460D01*
X169121Y189388D01*
X169087Y189318D01*
X169050Y189250D01*
X169009Y189183D01*
X168965Y189118D01*
X168919Y189056D01*
X168869Y188996D01*
X168817Y188938D01*
X168762Y188883D01*
X168704Y188831D01*
X168644Y188781D01*
X168582Y188735D01*
X168517Y188691D01*
X168451Y188650D01*
X168382Y188613D01*
X168312Y188579D01*
X168240Y188548D01*
X168167Y188521D01*
X168093Y188497D01*
X168018Y188477D01*
X167942Y188461D01*
X167865Y188448D01*
X167788Y188438D01*
X167710Y188433D01*
X167632Y188431D01*
X163540Y188431D01*
X163460Y188433D01*
X163380Y188439D01*
X163300Y188449D01*
X163221Y188462D01*
X163142Y188480D01*
X163065Y188501D01*
X162989Y188527D01*
X162914Y188556D01*
X162840Y188588D01*
X162768Y188624D01*
X162698Y188664D01*
X162631Y188707D01*
X162565Y188753D01*
X162502Y188803D01*
X162441Y188855D01*
X162382Y188910D01*
X162327Y188969D01*
X162275Y189029D01*
X162225Y189093D01*
X162179Y189158D01*
X162136Y189226D01*
X162096Y189296D01*
X162060Y189368D01*
X162028Y189442D01*
X161999Y189516D01*
X161974Y189593D01*
X161952Y189670D01*
X161934Y189749D01*
X161921Y189828D01*
X161911Y189907D01*
X161905Y189988D01*
X161903Y190068D01*
X161903Y191705D01*
X163540Y194550D02*
X161903Y196596D01*
X169269Y196596D01*
X169269Y194550D02*
X169269Y198642D01*
X167632Y201865D02*
X161903Y203502D01*
X167632Y201865D02*
X167632Y205958D01*
X165995Y204730D02*
X169269Y204730D01*
D14*
X415800Y208500D02*
X415800Y235500D01*
X455800Y238500D02*
X455800Y214500D01*
D10*
X461417Y220314D02*
X468783Y220314D01*
X468783Y223588D01*
X467146Y226394D02*
X461417Y228031D01*
X467146Y226394D02*
X467146Y230486D01*
X465509Y229259D02*
X468783Y229259D01*
X478331Y120397D02*
X478331Y113031D01*
X478331Y120397D02*
X480377Y120397D01*
X480466Y120395D01*
X480555Y120389D01*
X480644Y120379D01*
X480732Y120366D01*
X480820Y120349D01*
X480907Y120327D01*
X480992Y120302D01*
X481077Y120274D01*
X481160Y120241D01*
X481242Y120205D01*
X481322Y120166D01*
X481400Y120123D01*
X481476Y120077D01*
X481551Y120027D01*
X481623Y119974D01*
X481692Y119918D01*
X481759Y119859D01*
X481824Y119798D01*
X481885Y119733D01*
X481944Y119666D01*
X482000Y119597D01*
X482053Y119525D01*
X482103Y119450D01*
X482149Y119374D01*
X482192Y119296D01*
X482231Y119216D01*
X482267Y119134D01*
X482300Y119051D01*
X482328Y118966D01*
X482353Y118881D01*
X482375Y118794D01*
X482392Y118706D01*
X482405Y118618D01*
X482415Y118529D01*
X482421Y118440D01*
X482423Y118351D01*
X482421Y118262D01*
X482415Y118173D01*
X482405Y118084D01*
X482392Y117996D01*
X482375Y117908D01*
X482353Y117821D01*
X482328Y117736D01*
X482300Y117651D01*
X482267Y117568D01*
X482231Y117486D01*
X482192Y117406D01*
X482149Y117328D01*
X482103Y117252D01*
X482053Y117177D01*
X482000Y117105D01*
X481944Y117036D01*
X481885Y116969D01*
X481824Y116904D01*
X481759Y116843D01*
X481692Y116784D01*
X481623Y116728D01*
X481551Y116675D01*
X481476Y116625D01*
X481400Y116579D01*
X481322Y116536D01*
X481242Y116497D01*
X481160Y116461D01*
X481077Y116428D01*
X480992Y116400D01*
X480907Y116375D01*
X480820Y116353D01*
X480732Y116336D01*
X480644Y116323D01*
X480555Y116313D01*
X480466Y116307D01*
X480377Y116305D01*
X478331Y116305D01*
X480786Y116305D02*
X482423Y113031D01*
X485595Y118760D02*
X487641Y120397D01*
X487641Y113031D01*
X485595Y113031D02*
X489687Y113031D01*
X497003Y118556D02*
X497001Y118641D01*
X496995Y118726D01*
X496985Y118810D01*
X496972Y118894D01*
X496954Y118978D01*
X496933Y119060D01*
X496908Y119141D01*
X496879Y119221D01*
X496846Y119300D01*
X496810Y119377D01*
X496770Y119452D01*
X496727Y119526D01*
X496681Y119597D01*
X496631Y119666D01*
X496578Y119733D01*
X496522Y119797D01*
X496463Y119858D01*
X496402Y119917D01*
X496338Y119973D01*
X496271Y120026D01*
X496202Y120076D01*
X496131Y120122D01*
X496057Y120165D01*
X495982Y120205D01*
X495905Y120241D01*
X495826Y120274D01*
X495746Y120303D01*
X495665Y120328D01*
X495583Y120349D01*
X495499Y120367D01*
X495415Y120380D01*
X495331Y120390D01*
X495246Y120396D01*
X495161Y120398D01*
X495161Y120397D02*
X495065Y120395D01*
X494969Y120389D01*
X494874Y120379D01*
X494779Y120366D01*
X494684Y120348D01*
X494591Y120327D01*
X494498Y120302D01*
X494407Y120273D01*
X494316Y120241D01*
X494227Y120205D01*
X494140Y120165D01*
X494054Y120122D01*
X493970Y120076D01*
X493888Y120026D01*
X493808Y119972D01*
X493731Y119916D01*
X493656Y119856D01*
X493583Y119794D01*
X493513Y119728D01*
X493445Y119660D01*
X493380Y119589D01*
X493319Y119516D01*
X493260Y119440D01*
X493204Y119361D01*
X493152Y119281D01*
X493103Y119198D01*
X493057Y119114D01*
X493015Y119028D01*
X492977Y118940D01*
X492942Y118851D01*
X492910Y118760D01*
X496389Y117124D02*
X496449Y117183D01*
X496506Y117245D01*
X496561Y117309D01*
X496612Y117376D01*
X496661Y117445D01*
X496707Y117515D01*
X496750Y117588D01*
X496790Y117662D01*
X496826Y117738D01*
X496859Y117816D01*
X496889Y117895D01*
X496916Y117975D01*
X496939Y118056D01*
X496958Y118138D01*
X496974Y118220D01*
X496987Y118304D01*
X496996Y118388D01*
X497001Y118472D01*
X497003Y118556D01*
X496389Y117123D02*
X492910Y113031D01*
X497002Y113031D01*
X481569Y161668D02*
X481569Y163305D01*
X481569Y161668D02*
X481567Y161590D01*
X481562Y161512D01*
X481552Y161435D01*
X481539Y161358D01*
X481523Y161282D01*
X481503Y161207D01*
X481479Y161133D01*
X481452Y161060D01*
X481421Y160988D01*
X481387Y160918D01*
X481350Y160850D01*
X481309Y160783D01*
X481265Y160718D01*
X481219Y160656D01*
X481169Y160596D01*
X481117Y160538D01*
X481062Y160483D01*
X481004Y160431D01*
X480944Y160381D01*
X480882Y160335D01*
X480817Y160291D01*
X480751Y160250D01*
X480682Y160213D01*
X480612Y160179D01*
X480540Y160148D01*
X480467Y160121D01*
X480393Y160097D01*
X480318Y160077D01*
X480242Y160061D01*
X480165Y160048D01*
X480088Y160038D01*
X480010Y160033D01*
X479932Y160031D01*
X475840Y160031D01*
X475760Y160033D01*
X475680Y160039D01*
X475600Y160049D01*
X475521Y160062D01*
X475442Y160080D01*
X475365Y160101D01*
X475289Y160127D01*
X475214Y160156D01*
X475140Y160188D01*
X475068Y160224D01*
X474998Y160264D01*
X474931Y160307D01*
X474865Y160353D01*
X474802Y160403D01*
X474741Y160455D01*
X474682Y160510D01*
X474627Y160569D01*
X474575Y160629D01*
X474525Y160693D01*
X474479Y160758D01*
X474436Y160826D01*
X474396Y160896D01*
X474360Y160968D01*
X474328Y161042D01*
X474299Y161116D01*
X474274Y161193D01*
X474252Y161270D01*
X474234Y161349D01*
X474221Y161428D01*
X474211Y161507D01*
X474205Y161588D01*
X474203Y161668D01*
X474203Y163305D01*
X475840Y166150D02*
X474203Y168196D01*
X481569Y168196D01*
X481569Y166150D02*
X481569Y170242D01*
X475021Y173465D02*
X474203Y173465D01*
X474203Y177558D01*
X481569Y175511D01*
X524003Y150431D02*
X531369Y150431D01*
X524003Y150431D02*
X524003Y152477D01*
X524005Y152566D01*
X524011Y152655D01*
X524021Y152744D01*
X524034Y152832D01*
X524051Y152920D01*
X524073Y153007D01*
X524098Y153092D01*
X524126Y153177D01*
X524159Y153260D01*
X524195Y153342D01*
X524234Y153422D01*
X524277Y153500D01*
X524323Y153576D01*
X524373Y153651D01*
X524426Y153723D01*
X524482Y153792D01*
X524541Y153859D01*
X524602Y153924D01*
X524667Y153985D01*
X524734Y154044D01*
X524803Y154100D01*
X524875Y154153D01*
X524950Y154203D01*
X525026Y154249D01*
X525104Y154292D01*
X525184Y154331D01*
X525266Y154367D01*
X525349Y154400D01*
X525434Y154428D01*
X525519Y154453D01*
X525606Y154475D01*
X525694Y154492D01*
X525782Y154505D01*
X525871Y154515D01*
X525960Y154521D01*
X526049Y154523D01*
X526138Y154521D01*
X526227Y154515D01*
X526316Y154505D01*
X526404Y154492D01*
X526492Y154475D01*
X526579Y154453D01*
X526664Y154428D01*
X526749Y154400D01*
X526832Y154367D01*
X526914Y154331D01*
X526994Y154292D01*
X527072Y154249D01*
X527148Y154203D01*
X527223Y154153D01*
X527295Y154100D01*
X527364Y154044D01*
X527431Y153985D01*
X527496Y153924D01*
X527557Y153859D01*
X527616Y153792D01*
X527672Y153723D01*
X527725Y153651D01*
X527775Y153576D01*
X527821Y153500D01*
X527864Y153422D01*
X527903Y153342D01*
X527939Y153260D01*
X527972Y153177D01*
X528000Y153092D01*
X528025Y153007D01*
X528047Y152920D01*
X528064Y152832D01*
X528077Y152744D01*
X528087Y152655D01*
X528093Y152566D01*
X528095Y152477D01*
X528095Y150431D01*
X528095Y152886D02*
X531369Y154523D01*
X525640Y157695D02*
X524003Y159741D01*
X531369Y159741D01*
X531369Y157695D02*
X531369Y161787D01*
X525640Y165010D02*
X524003Y167056D01*
X531369Y167056D01*
X531369Y165010D02*
X531369Y169102D01*
X329616Y186003D02*
X327979Y186003D01*
X327901Y186005D01*
X327823Y186010D01*
X327746Y186020D01*
X327669Y186033D01*
X327593Y186049D01*
X327518Y186069D01*
X327444Y186093D01*
X327371Y186120D01*
X327299Y186151D01*
X327229Y186185D01*
X327161Y186222D01*
X327094Y186263D01*
X327029Y186307D01*
X326967Y186353D01*
X326907Y186403D01*
X326849Y186455D01*
X326794Y186510D01*
X326742Y186568D01*
X326692Y186628D01*
X326646Y186690D01*
X326602Y186755D01*
X326561Y186822D01*
X326524Y186890D01*
X326490Y186960D01*
X326459Y187032D01*
X326432Y187105D01*
X326408Y187179D01*
X326388Y187254D01*
X326372Y187330D01*
X326359Y187407D01*
X326349Y187484D01*
X326344Y187562D01*
X326342Y187640D01*
X326343Y187640D02*
X326343Y191732D01*
X326342Y191732D02*
X326344Y191812D01*
X326350Y191892D01*
X326360Y191972D01*
X326373Y192051D01*
X326391Y192130D01*
X326412Y192207D01*
X326438Y192283D01*
X326467Y192358D01*
X326499Y192432D01*
X326535Y192504D01*
X326575Y192574D01*
X326618Y192641D01*
X326664Y192707D01*
X326714Y192770D01*
X326766Y192831D01*
X326821Y192890D01*
X326880Y192945D01*
X326940Y192997D01*
X327004Y193047D01*
X327070Y193093D01*
X327137Y193136D01*
X327207Y193176D01*
X327279Y193212D01*
X327353Y193244D01*
X327427Y193273D01*
X327504Y193299D01*
X327581Y193320D01*
X327660Y193338D01*
X327739Y193351D01*
X327819Y193361D01*
X327899Y193367D01*
X327979Y193369D01*
X329616Y193369D01*
X332462Y191732D02*
X334508Y193369D01*
X334508Y186003D01*
X332462Y186003D02*
X336554Y186003D01*
X339777Y188049D02*
X339779Y188138D01*
X339785Y188227D01*
X339795Y188316D01*
X339808Y188404D01*
X339825Y188492D01*
X339847Y188579D01*
X339872Y188664D01*
X339900Y188749D01*
X339933Y188832D01*
X339969Y188914D01*
X340008Y188994D01*
X340051Y189072D01*
X340097Y189148D01*
X340147Y189223D01*
X340200Y189295D01*
X340256Y189364D01*
X340315Y189431D01*
X340376Y189496D01*
X340441Y189557D01*
X340508Y189616D01*
X340577Y189672D01*
X340649Y189725D01*
X340724Y189775D01*
X340800Y189821D01*
X340878Y189864D01*
X340958Y189903D01*
X341040Y189939D01*
X341123Y189972D01*
X341208Y190000D01*
X341293Y190025D01*
X341380Y190047D01*
X341468Y190064D01*
X341556Y190077D01*
X341645Y190087D01*
X341734Y190093D01*
X341823Y190095D01*
X341912Y190093D01*
X342001Y190087D01*
X342090Y190077D01*
X342178Y190064D01*
X342266Y190047D01*
X342353Y190025D01*
X342438Y190000D01*
X342523Y189972D01*
X342606Y189939D01*
X342688Y189903D01*
X342768Y189864D01*
X342846Y189821D01*
X342922Y189775D01*
X342997Y189725D01*
X343069Y189672D01*
X343138Y189616D01*
X343205Y189557D01*
X343270Y189496D01*
X343331Y189431D01*
X343390Y189364D01*
X343446Y189295D01*
X343499Y189223D01*
X343549Y189148D01*
X343595Y189072D01*
X343638Y188994D01*
X343677Y188914D01*
X343713Y188832D01*
X343746Y188749D01*
X343774Y188664D01*
X343799Y188579D01*
X343821Y188492D01*
X343838Y188404D01*
X343851Y188316D01*
X343861Y188227D01*
X343867Y188138D01*
X343869Y188049D01*
X343867Y187960D01*
X343861Y187871D01*
X343851Y187782D01*
X343838Y187694D01*
X343821Y187606D01*
X343799Y187519D01*
X343774Y187434D01*
X343746Y187349D01*
X343713Y187266D01*
X343677Y187184D01*
X343638Y187104D01*
X343595Y187026D01*
X343549Y186950D01*
X343499Y186875D01*
X343446Y186803D01*
X343390Y186734D01*
X343331Y186667D01*
X343270Y186602D01*
X343205Y186541D01*
X343138Y186482D01*
X343069Y186426D01*
X342997Y186373D01*
X342922Y186323D01*
X342846Y186277D01*
X342768Y186234D01*
X342688Y186195D01*
X342606Y186159D01*
X342523Y186126D01*
X342438Y186098D01*
X342353Y186073D01*
X342266Y186051D01*
X342178Y186034D01*
X342090Y186021D01*
X342001Y186011D01*
X341912Y186005D01*
X341823Y186003D01*
X341734Y186005D01*
X341645Y186011D01*
X341556Y186021D01*
X341468Y186034D01*
X341380Y186051D01*
X341293Y186073D01*
X341208Y186098D01*
X341123Y186126D01*
X341040Y186159D01*
X340958Y186195D01*
X340878Y186234D01*
X340800Y186277D01*
X340724Y186323D01*
X340649Y186373D01*
X340577Y186426D01*
X340508Y186482D01*
X340441Y186541D01*
X340376Y186602D01*
X340315Y186667D01*
X340256Y186734D01*
X340200Y186803D01*
X340147Y186875D01*
X340097Y186950D01*
X340051Y187026D01*
X340008Y187104D01*
X339969Y187184D01*
X339933Y187266D01*
X339900Y187349D01*
X339872Y187434D01*
X339847Y187519D01*
X339825Y187606D01*
X339808Y187694D01*
X339795Y187782D01*
X339785Y187871D01*
X339779Y187960D01*
X339777Y188049D01*
X340186Y191732D02*
X340188Y191811D01*
X340194Y191890D01*
X340203Y191969D01*
X340216Y192047D01*
X340234Y192124D01*
X340254Y192200D01*
X340279Y192275D01*
X340307Y192349D01*
X340338Y192422D01*
X340374Y192493D01*
X340412Y192562D01*
X340454Y192629D01*
X340499Y192694D01*
X340547Y192757D01*
X340598Y192818D01*
X340652Y192875D01*
X340708Y192931D01*
X340767Y192983D01*
X340829Y193033D01*
X340893Y193079D01*
X340959Y193123D01*
X341027Y193163D01*
X341097Y193199D01*
X341169Y193233D01*
X341243Y193263D01*
X341317Y193289D01*
X341393Y193312D01*
X341470Y193330D01*
X341547Y193346D01*
X341626Y193357D01*
X341704Y193365D01*
X341783Y193369D01*
X341863Y193369D01*
X341942Y193365D01*
X342020Y193357D01*
X342099Y193346D01*
X342176Y193330D01*
X342253Y193312D01*
X342329Y193289D01*
X342403Y193263D01*
X342477Y193233D01*
X342549Y193199D01*
X342619Y193163D01*
X342687Y193123D01*
X342753Y193079D01*
X342817Y193033D01*
X342879Y192983D01*
X342938Y192931D01*
X342994Y192875D01*
X343048Y192818D01*
X343099Y192757D01*
X343147Y192694D01*
X343192Y192629D01*
X343234Y192562D01*
X343272Y192493D01*
X343308Y192422D01*
X343339Y192349D01*
X343367Y192275D01*
X343392Y192200D01*
X343412Y192124D01*
X343430Y192047D01*
X343443Y191969D01*
X343452Y191890D01*
X343458Y191811D01*
X343460Y191732D01*
X343458Y191653D01*
X343452Y191574D01*
X343443Y191495D01*
X343430Y191417D01*
X343412Y191340D01*
X343392Y191264D01*
X343367Y191189D01*
X343339Y191115D01*
X343308Y191042D01*
X343272Y190971D01*
X343234Y190902D01*
X343192Y190835D01*
X343147Y190770D01*
X343099Y190707D01*
X343048Y190646D01*
X342994Y190589D01*
X342938Y190533D01*
X342879Y190481D01*
X342817Y190431D01*
X342753Y190385D01*
X342687Y190341D01*
X342619Y190301D01*
X342549Y190265D01*
X342477Y190231D01*
X342403Y190201D01*
X342329Y190175D01*
X342253Y190152D01*
X342176Y190134D01*
X342099Y190118D01*
X342020Y190107D01*
X341942Y190099D01*
X341863Y190095D01*
X341783Y190095D01*
X341704Y190099D01*
X341626Y190107D01*
X341547Y190118D01*
X341470Y190134D01*
X341393Y190152D01*
X341317Y190175D01*
X341243Y190201D01*
X341169Y190231D01*
X341097Y190265D01*
X341027Y190301D01*
X340959Y190341D01*
X340893Y190385D01*
X340829Y190431D01*
X340767Y190481D01*
X340708Y190533D01*
X340652Y190589D01*
X340598Y190646D01*
X340547Y190707D01*
X340499Y190770D01*
X340454Y190835D01*
X340412Y190902D01*
X340374Y190971D01*
X340338Y191042D01*
X340307Y191115D01*
X340279Y191189D01*
X340254Y191264D01*
X340234Y191340D01*
X340216Y191417D01*
X340203Y191495D01*
X340194Y191574D01*
X340188Y191653D01*
X340186Y191732D01*
X411003Y105231D02*
X418369Y105231D01*
X411003Y105231D02*
X411003Y107277D01*
X411005Y107366D01*
X411011Y107455D01*
X411021Y107544D01*
X411034Y107632D01*
X411051Y107720D01*
X411073Y107807D01*
X411098Y107892D01*
X411126Y107977D01*
X411159Y108060D01*
X411195Y108142D01*
X411234Y108222D01*
X411277Y108300D01*
X411323Y108376D01*
X411373Y108451D01*
X411426Y108523D01*
X411482Y108592D01*
X411541Y108659D01*
X411602Y108724D01*
X411667Y108785D01*
X411734Y108844D01*
X411803Y108900D01*
X411875Y108953D01*
X411950Y109003D01*
X412026Y109049D01*
X412104Y109092D01*
X412184Y109131D01*
X412266Y109167D01*
X412349Y109200D01*
X412434Y109228D01*
X412519Y109253D01*
X412606Y109275D01*
X412694Y109292D01*
X412782Y109305D01*
X412871Y109315D01*
X412960Y109321D01*
X413049Y109323D01*
X413138Y109321D01*
X413227Y109315D01*
X413316Y109305D01*
X413404Y109292D01*
X413492Y109275D01*
X413579Y109253D01*
X413664Y109228D01*
X413749Y109200D01*
X413832Y109167D01*
X413914Y109131D01*
X413994Y109092D01*
X414072Y109049D01*
X414148Y109003D01*
X414223Y108953D01*
X414295Y108900D01*
X414364Y108844D01*
X414431Y108785D01*
X414496Y108724D01*
X414557Y108659D01*
X414616Y108592D01*
X414672Y108523D01*
X414725Y108451D01*
X414775Y108376D01*
X414821Y108300D01*
X414864Y108222D01*
X414903Y108142D01*
X414939Y108060D01*
X414972Y107977D01*
X415000Y107892D01*
X415025Y107807D01*
X415047Y107720D01*
X415064Y107632D01*
X415077Y107544D01*
X415087Y107455D01*
X415093Y107366D01*
X415095Y107277D01*
X415095Y105231D01*
X415095Y107686D02*
X418369Y109323D01*
X412640Y112495D02*
X411003Y114541D01*
X418369Y114541D01*
X418369Y112495D02*
X418369Y116587D01*
X418369Y119810D02*
X418369Y121856D01*
X418367Y121945D01*
X418361Y122034D01*
X418351Y122123D01*
X418338Y122211D01*
X418321Y122299D01*
X418299Y122386D01*
X418274Y122471D01*
X418246Y122556D01*
X418213Y122639D01*
X418177Y122721D01*
X418138Y122801D01*
X418095Y122879D01*
X418049Y122955D01*
X417999Y123030D01*
X417946Y123102D01*
X417890Y123171D01*
X417831Y123238D01*
X417770Y123303D01*
X417705Y123364D01*
X417638Y123423D01*
X417569Y123479D01*
X417497Y123532D01*
X417422Y123582D01*
X417346Y123628D01*
X417268Y123671D01*
X417188Y123710D01*
X417106Y123746D01*
X417023Y123779D01*
X416938Y123807D01*
X416853Y123832D01*
X416766Y123854D01*
X416678Y123871D01*
X416590Y123884D01*
X416501Y123894D01*
X416412Y123900D01*
X416323Y123902D01*
X416234Y123900D01*
X416145Y123894D01*
X416056Y123884D01*
X415968Y123871D01*
X415880Y123854D01*
X415793Y123832D01*
X415708Y123807D01*
X415623Y123779D01*
X415540Y123746D01*
X415458Y123710D01*
X415378Y123671D01*
X415300Y123628D01*
X415224Y123582D01*
X415149Y123532D01*
X415077Y123479D01*
X415008Y123423D01*
X414941Y123364D01*
X414876Y123303D01*
X414815Y123238D01*
X414756Y123171D01*
X414700Y123102D01*
X414647Y123030D01*
X414597Y122955D01*
X414551Y122879D01*
X414508Y122801D01*
X414469Y122721D01*
X414433Y122639D01*
X414400Y122556D01*
X414372Y122471D01*
X414347Y122386D01*
X414325Y122299D01*
X414308Y122211D01*
X414295Y122123D01*
X414285Y122034D01*
X414279Y121945D01*
X414277Y121856D01*
X411003Y122266D02*
X411003Y119810D01*
X411003Y122266D02*
X411005Y122345D01*
X411011Y122424D01*
X411020Y122503D01*
X411033Y122581D01*
X411051Y122658D01*
X411071Y122734D01*
X411096Y122809D01*
X411124Y122883D01*
X411155Y122956D01*
X411191Y123027D01*
X411229Y123096D01*
X411271Y123163D01*
X411316Y123228D01*
X411364Y123291D01*
X411415Y123352D01*
X411469Y123409D01*
X411525Y123465D01*
X411584Y123517D01*
X411646Y123567D01*
X411710Y123613D01*
X411776Y123657D01*
X411844Y123697D01*
X411914Y123733D01*
X411986Y123767D01*
X412060Y123797D01*
X412134Y123823D01*
X412210Y123846D01*
X412287Y123864D01*
X412364Y123880D01*
X412443Y123891D01*
X412521Y123899D01*
X412600Y123903D01*
X412680Y123903D01*
X412759Y123899D01*
X412837Y123891D01*
X412916Y123880D01*
X412993Y123864D01*
X413070Y123846D01*
X413146Y123823D01*
X413220Y123797D01*
X413294Y123767D01*
X413366Y123733D01*
X413436Y123697D01*
X413504Y123657D01*
X413570Y123613D01*
X413634Y123567D01*
X413696Y123517D01*
X413755Y123465D01*
X413811Y123409D01*
X413865Y123352D01*
X413916Y123291D01*
X413964Y123228D01*
X414009Y123163D01*
X414051Y123096D01*
X414089Y123027D01*
X414125Y122956D01*
X414156Y122883D01*
X414184Y122809D01*
X414209Y122734D01*
X414229Y122658D01*
X414247Y122581D01*
X414260Y122503D01*
X414269Y122424D01*
X414275Y122345D01*
X414277Y122266D01*
X414277Y120629D01*
X346098Y149003D02*
X346098Y156369D01*
X348144Y156369D01*
X348233Y156367D01*
X348322Y156361D01*
X348411Y156351D01*
X348499Y156338D01*
X348587Y156321D01*
X348674Y156299D01*
X348759Y156274D01*
X348844Y156246D01*
X348927Y156213D01*
X349009Y156177D01*
X349089Y156138D01*
X349167Y156095D01*
X349243Y156049D01*
X349318Y155999D01*
X349390Y155946D01*
X349459Y155890D01*
X349526Y155831D01*
X349591Y155770D01*
X349652Y155705D01*
X349711Y155638D01*
X349767Y155569D01*
X349820Y155497D01*
X349870Y155422D01*
X349916Y155346D01*
X349959Y155268D01*
X349998Y155188D01*
X350034Y155106D01*
X350067Y155023D01*
X350095Y154938D01*
X350120Y154853D01*
X350142Y154766D01*
X350159Y154678D01*
X350172Y154590D01*
X350182Y154501D01*
X350188Y154412D01*
X350190Y154323D01*
X350188Y154234D01*
X350182Y154145D01*
X350172Y154056D01*
X350159Y153968D01*
X350142Y153880D01*
X350120Y153793D01*
X350095Y153708D01*
X350067Y153623D01*
X350034Y153540D01*
X349998Y153458D01*
X349959Y153378D01*
X349916Y153300D01*
X349870Y153224D01*
X349820Y153149D01*
X349767Y153077D01*
X349711Y153008D01*
X349652Y152941D01*
X349591Y152876D01*
X349526Y152815D01*
X349459Y152756D01*
X349390Y152700D01*
X349318Y152647D01*
X349243Y152597D01*
X349167Y152551D01*
X349089Y152508D01*
X349009Y152469D01*
X348927Y152433D01*
X348844Y152400D01*
X348759Y152372D01*
X348674Y152347D01*
X348587Y152325D01*
X348499Y152308D01*
X348411Y152295D01*
X348322Y152285D01*
X348233Y152279D01*
X348144Y152277D01*
X346098Y152277D01*
X348553Y152277D02*
X350190Y149003D01*
X353362Y154732D02*
X355408Y156369D01*
X355408Y149003D01*
X353362Y149003D02*
X357454Y149003D01*
X360677Y150640D02*
X362314Y156369D01*
X360677Y150640D02*
X364769Y150640D01*
X363541Y152277D02*
X363541Y149003D01*
X342569Y214368D02*
X342569Y216005D01*
X342569Y214368D02*
X342567Y214290D01*
X342562Y214212D01*
X342552Y214135D01*
X342539Y214058D01*
X342523Y213982D01*
X342503Y213907D01*
X342479Y213833D01*
X342452Y213760D01*
X342421Y213688D01*
X342387Y213618D01*
X342350Y213550D01*
X342309Y213483D01*
X342265Y213418D01*
X342219Y213356D01*
X342169Y213296D01*
X342117Y213238D01*
X342062Y213183D01*
X342004Y213131D01*
X341944Y213081D01*
X341882Y213035D01*
X341817Y212991D01*
X341751Y212950D01*
X341682Y212913D01*
X341612Y212879D01*
X341540Y212848D01*
X341467Y212821D01*
X341393Y212797D01*
X341318Y212777D01*
X341242Y212761D01*
X341165Y212748D01*
X341088Y212738D01*
X341010Y212733D01*
X340932Y212731D01*
X336840Y212731D01*
X336760Y212733D01*
X336680Y212739D01*
X336600Y212749D01*
X336521Y212762D01*
X336442Y212780D01*
X336365Y212801D01*
X336289Y212827D01*
X336214Y212856D01*
X336140Y212888D01*
X336068Y212924D01*
X335998Y212964D01*
X335931Y213007D01*
X335865Y213053D01*
X335802Y213103D01*
X335741Y213155D01*
X335682Y213210D01*
X335627Y213269D01*
X335575Y213329D01*
X335525Y213393D01*
X335479Y213458D01*
X335436Y213526D01*
X335396Y213596D01*
X335360Y213668D01*
X335328Y213742D01*
X335299Y213816D01*
X335274Y213893D01*
X335252Y213970D01*
X335234Y214049D01*
X335221Y214128D01*
X335211Y214207D01*
X335205Y214288D01*
X335203Y214368D01*
X335203Y216005D01*
X336840Y218850D02*
X335203Y220896D01*
X342569Y220896D01*
X342569Y218850D02*
X342569Y222942D01*
X339295Y227802D02*
X339295Y230258D01*
X339295Y227802D02*
X339293Y227724D01*
X339288Y227646D01*
X339278Y227569D01*
X339265Y227492D01*
X339249Y227416D01*
X339229Y227341D01*
X339205Y227267D01*
X339178Y227194D01*
X339147Y227122D01*
X339113Y227052D01*
X339076Y226984D01*
X339035Y226917D01*
X338991Y226852D01*
X338945Y226790D01*
X338895Y226730D01*
X338843Y226672D01*
X338788Y226617D01*
X338730Y226565D01*
X338670Y226515D01*
X338608Y226469D01*
X338543Y226425D01*
X338477Y226384D01*
X338408Y226347D01*
X338338Y226313D01*
X338266Y226282D01*
X338193Y226255D01*
X338119Y226231D01*
X338044Y226211D01*
X337968Y226195D01*
X337891Y226182D01*
X337814Y226172D01*
X337736Y226167D01*
X337658Y226165D01*
X337249Y226165D01*
X337160Y226167D01*
X337071Y226173D01*
X336982Y226183D01*
X336894Y226196D01*
X336806Y226213D01*
X336719Y226235D01*
X336634Y226260D01*
X336549Y226288D01*
X336466Y226321D01*
X336384Y226357D01*
X336304Y226396D01*
X336226Y226439D01*
X336150Y226485D01*
X336075Y226535D01*
X336003Y226588D01*
X335934Y226644D01*
X335867Y226703D01*
X335802Y226764D01*
X335741Y226829D01*
X335682Y226896D01*
X335626Y226965D01*
X335573Y227037D01*
X335523Y227112D01*
X335477Y227188D01*
X335434Y227266D01*
X335395Y227346D01*
X335359Y227428D01*
X335326Y227511D01*
X335298Y227596D01*
X335273Y227681D01*
X335251Y227768D01*
X335234Y227856D01*
X335221Y227944D01*
X335211Y228033D01*
X335205Y228122D01*
X335203Y228211D01*
X335205Y228300D01*
X335211Y228389D01*
X335221Y228478D01*
X335234Y228566D01*
X335251Y228654D01*
X335273Y228741D01*
X335298Y228826D01*
X335326Y228911D01*
X335359Y228994D01*
X335395Y229076D01*
X335434Y229156D01*
X335477Y229234D01*
X335523Y229310D01*
X335573Y229385D01*
X335626Y229457D01*
X335682Y229526D01*
X335741Y229593D01*
X335802Y229658D01*
X335867Y229719D01*
X335934Y229778D01*
X336003Y229834D01*
X336075Y229887D01*
X336150Y229937D01*
X336226Y229983D01*
X336304Y230026D01*
X336384Y230065D01*
X336466Y230101D01*
X336549Y230134D01*
X336634Y230162D01*
X336719Y230187D01*
X336806Y230209D01*
X336894Y230226D01*
X336982Y230239D01*
X337071Y230249D01*
X337160Y230255D01*
X337249Y230257D01*
X337249Y230258D02*
X339295Y230258D01*
X339407Y230256D01*
X339518Y230250D01*
X339630Y230241D01*
X339741Y230228D01*
X339851Y230210D01*
X339961Y230190D01*
X340070Y230165D01*
X340178Y230137D01*
X340285Y230105D01*
X340391Y230069D01*
X340496Y230030D01*
X340599Y229987D01*
X340701Y229941D01*
X340801Y229891D01*
X340900Y229838D01*
X340996Y229781D01*
X341091Y229722D01*
X341183Y229659D01*
X341273Y229593D01*
X341361Y229524D01*
X341447Y229452D01*
X341530Y229377D01*
X341610Y229299D01*
X341688Y229219D01*
X341763Y229136D01*
X341835Y229050D01*
X341904Y228962D01*
X341970Y228872D01*
X342033Y228780D01*
X342092Y228685D01*
X342149Y228589D01*
X342202Y228490D01*
X342252Y228390D01*
X342298Y228288D01*
X342341Y228185D01*
X342380Y228080D01*
X342416Y227974D01*
X342448Y227867D01*
X342476Y227759D01*
X342501Y227650D01*
X342521Y227540D01*
X342539Y227430D01*
X342552Y227319D01*
X342561Y227207D01*
X342567Y227096D01*
X342569Y226984D01*
X366569Y220005D02*
X366569Y218368D01*
X366567Y218290D01*
X366562Y218212D01*
X366552Y218135D01*
X366539Y218058D01*
X366523Y217982D01*
X366503Y217907D01*
X366479Y217833D01*
X366452Y217760D01*
X366421Y217688D01*
X366387Y217618D01*
X366350Y217550D01*
X366309Y217483D01*
X366265Y217418D01*
X366219Y217356D01*
X366169Y217296D01*
X366117Y217238D01*
X366062Y217183D01*
X366004Y217131D01*
X365944Y217081D01*
X365882Y217035D01*
X365817Y216991D01*
X365751Y216950D01*
X365682Y216913D01*
X365612Y216879D01*
X365540Y216848D01*
X365467Y216821D01*
X365393Y216797D01*
X365318Y216777D01*
X365242Y216761D01*
X365165Y216748D01*
X365088Y216738D01*
X365010Y216733D01*
X364932Y216731D01*
X360840Y216731D01*
X360760Y216733D01*
X360680Y216739D01*
X360600Y216749D01*
X360521Y216762D01*
X360442Y216780D01*
X360365Y216801D01*
X360289Y216827D01*
X360214Y216856D01*
X360140Y216888D01*
X360068Y216924D01*
X359998Y216964D01*
X359931Y217007D01*
X359865Y217053D01*
X359802Y217103D01*
X359741Y217155D01*
X359682Y217210D01*
X359627Y217269D01*
X359575Y217329D01*
X359525Y217393D01*
X359479Y217458D01*
X359436Y217526D01*
X359396Y217596D01*
X359360Y217668D01*
X359328Y217742D01*
X359299Y217816D01*
X359274Y217893D01*
X359252Y217970D01*
X359234Y218049D01*
X359221Y218128D01*
X359211Y218207D01*
X359205Y218288D01*
X359203Y218368D01*
X359203Y220005D01*
X359203Y225101D02*
X359205Y225186D01*
X359211Y225271D01*
X359221Y225355D01*
X359234Y225439D01*
X359252Y225523D01*
X359273Y225605D01*
X359298Y225686D01*
X359327Y225766D01*
X359360Y225845D01*
X359396Y225922D01*
X359436Y225997D01*
X359479Y226071D01*
X359525Y226142D01*
X359575Y226211D01*
X359628Y226278D01*
X359684Y226342D01*
X359743Y226403D01*
X359804Y226462D01*
X359868Y226518D01*
X359935Y226571D01*
X360004Y226621D01*
X360075Y226667D01*
X360149Y226710D01*
X360224Y226750D01*
X360301Y226786D01*
X360380Y226819D01*
X360460Y226848D01*
X360541Y226873D01*
X360623Y226894D01*
X360707Y226912D01*
X360791Y226925D01*
X360875Y226935D01*
X360960Y226941D01*
X361045Y226943D01*
X359203Y225101D02*
X359205Y225005D01*
X359211Y224909D01*
X359221Y224814D01*
X359234Y224719D01*
X359252Y224624D01*
X359273Y224531D01*
X359298Y224438D01*
X359327Y224347D01*
X359359Y224256D01*
X359395Y224167D01*
X359435Y224080D01*
X359478Y223994D01*
X359524Y223910D01*
X359574Y223828D01*
X359628Y223748D01*
X359684Y223671D01*
X359744Y223596D01*
X359806Y223523D01*
X359872Y223453D01*
X359940Y223385D01*
X360011Y223320D01*
X360084Y223259D01*
X360160Y223200D01*
X360239Y223144D01*
X360319Y223092D01*
X360402Y223043D01*
X360486Y222997D01*
X360572Y222955D01*
X360660Y222917D01*
X360749Y222882D01*
X360840Y222850D01*
X362477Y226328D02*
X362418Y226388D01*
X362356Y226445D01*
X362292Y226500D01*
X362225Y226551D01*
X362156Y226600D01*
X362086Y226646D01*
X362013Y226689D01*
X361939Y226729D01*
X361863Y226765D01*
X361785Y226798D01*
X361706Y226828D01*
X361626Y226855D01*
X361545Y226878D01*
X361463Y226897D01*
X361381Y226913D01*
X361297Y226926D01*
X361213Y226935D01*
X361129Y226940D01*
X361045Y226942D01*
X362477Y226328D02*
X366569Y222850D01*
X366569Y226942D01*
X362886Y230166D02*
X362733Y230168D01*
X362580Y230174D01*
X362428Y230183D01*
X362275Y230197D01*
X362123Y230214D01*
X361972Y230235D01*
X361821Y230260D01*
X361671Y230289D01*
X361521Y230321D01*
X361373Y230358D01*
X361225Y230398D01*
X361078Y230441D01*
X360933Y230489D01*
X360789Y230540D01*
X360646Y230594D01*
X360504Y230653D01*
X360365Y230714D01*
X360226Y230780D01*
X360226Y230779D02*
X360156Y230805D01*
X360086Y230835D01*
X360019Y230868D01*
X359953Y230904D01*
X359889Y230943D01*
X359827Y230986D01*
X359768Y231032D01*
X359710Y231080D01*
X359656Y231131D01*
X359603Y231185D01*
X359554Y231242D01*
X359507Y231301D01*
X359464Y231362D01*
X359423Y231425D01*
X359386Y231490D01*
X359351Y231557D01*
X359321Y231626D01*
X359293Y231696D01*
X359270Y231767D01*
X359249Y231839D01*
X359233Y231912D01*
X359220Y231986D01*
X359210Y232061D01*
X359205Y232136D01*
X359203Y232211D01*
X359205Y232286D01*
X359210Y232361D01*
X359220Y232436D01*
X359233Y232510D01*
X359249Y232583D01*
X359270Y232655D01*
X359293Y232726D01*
X359321Y232796D01*
X359351Y232865D01*
X359386Y232932D01*
X359423Y232997D01*
X359464Y233060D01*
X359507Y233121D01*
X359554Y233180D01*
X359603Y233237D01*
X359656Y233291D01*
X359710Y233342D01*
X359768Y233391D01*
X359827Y233436D01*
X359889Y233479D01*
X359953Y233518D01*
X360019Y233555D01*
X360087Y233587D01*
X360156Y233617D01*
X360226Y233643D01*
X360364Y233708D01*
X360504Y233770D01*
X360646Y233828D01*
X360789Y233883D01*
X360933Y233934D01*
X361078Y233982D01*
X361225Y234025D01*
X361372Y234065D01*
X361521Y234102D01*
X361671Y234134D01*
X361821Y234163D01*
X361972Y234188D01*
X362123Y234209D01*
X362275Y234226D01*
X362428Y234240D01*
X362580Y234249D01*
X362733Y234255D01*
X362886Y234257D01*
X362886Y230166D02*
X363039Y230168D01*
X363192Y230174D01*
X363344Y230183D01*
X363497Y230197D01*
X363649Y230214D01*
X363800Y230235D01*
X363951Y230260D01*
X364101Y230289D01*
X364251Y230321D01*
X364399Y230358D01*
X364547Y230398D01*
X364694Y230441D01*
X364839Y230489D01*
X364983Y230540D01*
X365126Y230594D01*
X365268Y230653D01*
X365407Y230714D01*
X365546Y230780D01*
X365546Y230779D02*
X365617Y230805D01*
X365686Y230835D01*
X365753Y230868D01*
X365819Y230904D01*
X365883Y230943D01*
X365945Y230986D01*
X366004Y231032D01*
X366062Y231080D01*
X366116Y231131D01*
X366169Y231185D01*
X366218Y231242D01*
X366265Y231301D01*
X366308Y231362D01*
X366349Y231425D01*
X366386Y231490D01*
X366421Y231557D01*
X366451Y231626D01*
X366479Y231696D01*
X366502Y231767D01*
X366523Y231839D01*
X366539Y231912D01*
X366552Y231986D01*
X366562Y232061D01*
X366567Y232136D01*
X366569Y232211D01*
X365546Y233643D02*
X365408Y233708D01*
X365268Y233770D01*
X365126Y233828D01*
X364983Y233883D01*
X364839Y233934D01*
X364694Y233982D01*
X364547Y234025D01*
X364400Y234065D01*
X364251Y234102D01*
X364101Y234134D01*
X363951Y234163D01*
X363800Y234188D01*
X363649Y234209D01*
X363497Y234226D01*
X363344Y234240D01*
X363192Y234249D01*
X363039Y234255D01*
X362886Y234257D01*
X365546Y233643D02*
X365616Y233617D01*
X365686Y233587D01*
X365753Y233554D01*
X365819Y233518D01*
X365883Y233479D01*
X365945Y233436D01*
X366004Y233390D01*
X366062Y233342D01*
X366116Y233291D01*
X366169Y233237D01*
X366218Y233180D01*
X366265Y233121D01*
X366308Y233060D01*
X366349Y232997D01*
X366386Y232932D01*
X366421Y232865D01*
X366451Y232796D01*
X366479Y232726D01*
X366502Y232655D01*
X366523Y232583D01*
X366539Y232510D01*
X366552Y232436D01*
X366562Y232361D01*
X366567Y232286D01*
X366569Y232211D01*
X364932Y230575D02*
X360840Y233848D01*
X412197Y218216D02*
X412197Y216579D01*
X412195Y216501D01*
X412190Y216423D01*
X412180Y216346D01*
X412167Y216269D01*
X412151Y216193D01*
X412131Y216118D01*
X412107Y216044D01*
X412080Y215971D01*
X412049Y215899D01*
X412015Y215829D01*
X411978Y215761D01*
X411937Y215694D01*
X411893Y215629D01*
X411847Y215567D01*
X411797Y215507D01*
X411745Y215449D01*
X411690Y215394D01*
X411632Y215342D01*
X411572Y215292D01*
X411510Y215246D01*
X411445Y215202D01*
X411379Y215161D01*
X411310Y215124D01*
X411240Y215090D01*
X411168Y215059D01*
X411095Y215032D01*
X411021Y215008D01*
X410946Y214988D01*
X410870Y214972D01*
X410793Y214959D01*
X410716Y214949D01*
X410638Y214944D01*
X410560Y214942D01*
X410560Y214943D02*
X406468Y214943D01*
X406468Y214942D02*
X406388Y214944D01*
X406308Y214950D01*
X406228Y214960D01*
X406149Y214973D01*
X406070Y214991D01*
X405993Y215012D01*
X405917Y215038D01*
X405842Y215067D01*
X405768Y215099D01*
X405696Y215135D01*
X405626Y215175D01*
X405559Y215218D01*
X405493Y215264D01*
X405430Y215314D01*
X405369Y215366D01*
X405310Y215421D01*
X405255Y215480D01*
X405203Y215540D01*
X405153Y215604D01*
X405107Y215669D01*
X405064Y215737D01*
X405024Y215807D01*
X404988Y215879D01*
X404956Y215953D01*
X404927Y216027D01*
X404902Y216104D01*
X404880Y216181D01*
X404862Y216260D01*
X404849Y216339D01*
X404839Y216418D01*
X404833Y216499D01*
X404831Y216579D01*
X404831Y218216D01*
X404831Y223312D02*
X404833Y223397D01*
X404839Y223482D01*
X404849Y223566D01*
X404862Y223650D01*
X404880Y223734D01*
X404901Y223816D01*
X404926Y223897D01*
X404955Y223977D01*
X404988Y224056D01*
X405024Y224133D01*
X405064Y224208D01*
X405107Y224282D01*
X405153Y224353D01*
X405203Y224422D01*
X405256Y224489D01*
X405312Y224553D01*
X405371Y224614D01*
X405432Y224673D01*
X405496Y224729D01*
X405563Y224782D01*
X405632Y224832D01*
X405703Y224878D01*
X405777Y224921D01*
X405852Y224961D01*
X405929Y224997D01*
X406008Y225030D01*
X406088Y225059D01*
X406169Y225084D01*
X406251Y225105D01*
X406335Y225123D01*
X406419Y225136D01*
X406503Y225146D01*
X406588Y225152D01*
X406673Y225154D01*
X404831Y223312D02*
X404833Y223216D01*
X404839Y223120D01*
X404849Y223025D01*
X404862Y222930D01*
X404880Y222835D01*
X404901Y222742D01*
X404926Y222649D01*
X404955Y222558D01*
X404987Y222467D01*
X405023Y222378D01*
X405063Y222291D01*
X405106Y222205D01*
X405152Y222121D01*
X405202Y222039D01*
X405256Y221959D01*
X405312Y221882D01*
X405372Y221807D01*
X405434Y221734D01*
X405500Y221664D01*
X405568Y221596D01*
X405639Y221531D01*
X405712Y221470D01*
X405788Y221411D01*
X405867Y221355D01*
X405947Y221303D01*
X406030Y221254D01*
X406114Y221208D01*
X406200Y221166D01*
X406288Y221128D01*
X406377Y221093D01*
X406468Y221061D01*
X408105Y224540D02*
X408046Y224600D01*
X407984Y224657D01*
X407920Y224712D01*
X407853Y224763D01*
X407784Y224812D01*
X407714Y224858D01*
X407641Y224901D01*
X407567Y224941D01*
X407491Y224977D01*
X407413Y225010D01*
X407334Y225040D01*
X407254Y225067D01*
X407173Y225090D01*
X407091Y225109D01*
X407009Y225125D01*
X406925Y225138D01*
X406841Y225147D01*
X406757Y225152D01*
X406673Y225154D01*
X408105Y224540D02*
X412197Y221062D01*
X412197Y225154D01*
X406468Y228377D02*
X404831Y230423D01*
X412197Y230423D01*
X412197Y228377D02*
X412197Y232469D01*
X298998Y209669D02*
X298998Y202303D01*
X298998Y209669D02*
X301044Y209669D01*
X301133Y209667D01*
X301222Y209661D01*
X301311Y209651D01*
X301399Y209638D01*
X301487Y209621D01*
X301574Y209599D01*
X301659Y209574D01*
X301744Y209546D01*
X301827Y209513D01*
X301909Y209477D01*
X301989Y209438D01*
X302067Y209395D01*
X302143Y209349D01*
X302218Y209299D01*
X302290Y209246D01*
X302359Y209190D01*
X302426Y209131D01*
X302491Y209070D01*
X302552Y209005D01*
X302611Y208938D01*
X302667Y208869D01*
X302720Y208797D01*
X302770Y208722D01*
X302816Y208646D01*
X302859Y208568D01*
X302898Y208488D01*
X302934Y208406D01*
X302967Y208323D01*
X302995Y208238D01*
X303020Y208153D01*
X303042Y208066D01*
X303059Y207978D01*
X303072Y207890D01*
X303082Y207801D01*
X303088Y207712D01*
X303090Y207623D01*
X303088Y207534D01*
X303082Y207445D01*
X303072Y207356D01*
X303059Y207268D01*
X303042Y207180D01*
X303020Y207093D01*
X302995Y207008D01*
X302967Y206923D01*
X302934Y206840D01*
X302898Y206758D01*
X302859Y206678D01*
X302816Y206600D01*
X302770Y206524D01*
X302720Y206449D01*
X302667Y206377D01*
X302611Y206308D01*
X302552Y206241D01*
X302491Y206176D01*
X302426Y206115D01*
X302359Y206056D01*
X302290Y206000D01*
X302218Y205947D01*
X302143Y205897D01*
X302067Y205851D01*
X301989Y205808D01*
X301909Y205769D01*
X301827Y205733D01*
X301744Y205700D01*
X301659Y205672D01*
X301574Y205647D01*
X301487Y205625D01*
X301399Y205608D01*
X301311Y205595D01*
X301222Y205585D01*
X301133Y205579D01*
X301044Y205577D01*
X298998Y205577D01*
X301453Y205577D02*
X303090Y202303D01*
X306262Y208032D02*
X308308Y209669D01*
X308308Y202303D01*
X306262Y202303D02*
X310354Y202303D01*
X313577Y202303D02*
X316032Y202303D01*
X316110Y202305D01*
X316188Y202310D01*
X316265Y202320D01*
X316342Y202333D01*
X316418Y202349D01*
X316493Y202369D01*
X316567Y202393D01*
X316640Y202420D01*
X316712Y202451D01*
X316782Y202485D01*
X316851Y202522D01*
X316917Y202563D01*
X316982Y202607D01*
X317044Y202653D01*
X317104Y202703D01*
X317162Y202755D01*
X317217Y202810D01*
X317269Y202868D01*
X317319Y202928D01*
X317365Y202990D01*
X317409Y203055D01*
X317450Y203122D01*
X317487Y203190D01*
X317521Y203260D01*
X317552Y203332D01*
X317579Y203405D01*
X317603Y203479D01*
X317623Y203554D01*
X317639Y203630D01*
X317652Y203707D01*
X317662Y203784D01*
X317667Y203862D01*
X317669Y203940D01*
X317669Y204758D01*
X317667Y204836D01*
X317662Y204914D01*
X317652Y204991D01*
X317639Y205068D01*
X317623Y205144D01*
X317603Y205219D01*
X317579Y205293D01*
X317552Y205366D01*
X317521Y205438D01*
X317487Y205508D01*
X317450Y205577D01*
X317409Y205643D01*
X317365Y205708D01*
X317319Y205770D01*
X317269Y205830D01*
X317217Y205888D01*
X317162Y205943D01*
X317104Y205995D01*
X317044Y206045D01*
X316982Y206091D01*
X316917Y206135D01*
X316851Y206176D01*
X316782Y206213D01*
X316712Y206247D01*
X316640Y206278D01*
X316567Y206305D01*
X316493Y206329D01*
X316418Y206349D01*
X316342Y206365D01*
X316265Y206378D01*
X316188Y206388D01*
X316110Y206393D01*
X316032Y206395D01*
X313577Y206395D01*
X313577Y209669D01*
X317669Y209669D01*
D16*
X502400Y200450D02*
X502400Y187750D01*
X502400Y200450D02*
X508750Y206800D01*
X521450Y206800D02*
X527800Y200450D01*
X508750Y206800D02*
X502400Y213150D01*
X502400Y225850D01*
X508750Y232200D01*
X521450Y232200D02*
X527800Y225850D01*
X527800Y213150D01*
X521450Y206800D01*
X521450Y181400D02*
X508750Y181400D01*
X502400Y187750D01*
X521450Y181400D02*
X527800Y187750D01*
X527800Y200450D01*
X508750Y232200D02*
X502400Y238550D01*
X502400Y251250D01*
X508750Y257600D01*
X521450Y257600D02*
X527800Y251250D01*
X527800Y238550D01*
X521450Y232200D01*
X508750Y257600D02*
X502400Y263950D01*
X502400Y276650D01*
X508750Y283000D01*
X521450Y283000D02*
X527800Y276650D01*
X527800Y263950D01*
X521450Y257600D01*
X521450Y283200D02*
X508750Y283200D01*
X361100Y24050D02*
X367450Y17700D01*
X380150Y17700D02*
X386500Y24050D01*
X392850Y17700D01*
X405550Y17700D02*
X411900Y24050D01*
X418250Y17700D01*
X430950Y17700D02*
X437300Y24050D01*
X361100Y24050D02*
X361100Y62150D01*
X367450Y68500D01*
X380150Y68500D01*
X386500Y62150D01*
X392850Y68500D01*
X405550Y68500D01*
X411900Y62150D01*
X418250Y68500D01*
X430950Y68500D01*
X437300Y62150D01*
X386500Y62150D02*
X386500Y24050D01*
X411900Y24050D02*
X411900Y62150D01*
X437300Y62150D02*
X437300Y24050D01*
X430950Y17700D02*
X418250Y17700D01*
X405550Y17700D02*
X392850Y17700D01*
X380150Y17700D02*
X367450Y17700D01*
X437300Y24050D02*
X443650Y17700D01*
X456350Y17700D02*
X462700Y24050D01*
X437300Y62150D02*
X443650Y68500D01*
X456350Y68500D01*
X462700Y62150D01*
X462700Y24050D01*
X456350Y17700D02*
X443650Y17700D01*
D10*
X380055Y288681D02*
X378418Y288681D01*
X378340Y288683D01*
X378262Y288688D01*
X378185Y288698D01*
X378108Y288711D01*
X378032Y288727D01*
X377957Y288747D01*
X377883Y288771D01*
X377810Y288798D01*
X377738Y288829D01*
X377668Y288863D01*
X377600Y288900D01*
X377533Y288941D01*
X377468Y288985D01*
X377406Y289031D01*
X377346Y289081D01*
X377288Y289133D01*
X377233Y289188D01*
X377181Y289246D01*
X377131Y289306D01*
X377085Y289368D01*
X377041Y289433D01*
X377000Y289500D01*
X376963Y289568D01*
X376929Y289638D01*
X376898Y289710D01*
X376871Y289783D01*
X376847Y289857D01*
X376827Y289932D01*
X376811Y290008D01*
X376798Y290085D01*
X376788Y290162D01*
X376783Y290240D01*
X376781Y290318D01*
X376781Y294410D01*
X376783Y294490D01*
X376789Y294570D01*
X376799Y294650D01*
X376812Y294729D01*
X376830Y294808D01*
X376851Y294885D01*
X376877Y294961D01*
X376906Y295036D01*
X376938Y295110D01*
X376974Y295182D01*
X377014Y295252D01*
X377057Y295319D01*
X377103Y295385D01*
X377153Y295448D01*
X377205Y295509D01*
X377260Y295568D01*
X377319Y295623D01*
X377379Y295675D01*
X377443Y295725D01*
X377509Y295771D01*
X377576Y295814D01*
X377646Y295854D01*
X377718Y295890D01*
X377792Y295922D01*
X377866Y295951D01*
X377943Y295977D01*
X378020Y295998D01*
X378099Y296016D01*
X378178Y296029D01*
X378258Y296039D01*
X378338Y296045D01*
X378418Y296047D01*
X380055Y296047D01*
X385151Y296048D02*
X385236Y296046D01*
X385321Y296040D01*
X385405Y296030D01*
X385489Y296017D01*
X385573Y295999D01*
X385655Y295978D01*
X385736Y295953D01*
X385816Y295924D01*
X385895Y295891D01*
X385972Y295855D01*
X386047Y295815D01*
X386121Y295772D01*
X386192Y295726D01*
X386261Y295676D01*
X386328Y295623D01*
X386392Y295567D01*
X386453Y295508D01*
X386512Y295447D01*
X386568Y295383D01*
X386621Y295316D01*
X386671Y295247D01*
X386717Y295176D01*
X386760Y295102D01*
X386800Y295027D01*
X386836Y294950D01*
X386869Y294871D01*
X386898Y294791D01*
X386923Y294710D01*
X386944Y294628D01*
X386962Y294544D01*
X386975Y294460D01*
X386985Y294376D01*
X386991Y294291D01*
X386993Y294206D01*
X385151Y296047D02*
X385055Y296045D01*
X384959Y296039D01*
X384864Y296029D01*
X384769Y296016D01*
X384674Y295998D01*
X384581Y295977D01*
X384488Y295952D01*
X384397Y295923D01*
X384306Y295891D01*
X384217Y295855D01*
X384130Y295815D01*
X384044Y295772D01*
X383960Y295726D01*
X383878Y295676D01*
X383798Y295622D01*
X383721Y295566D01*
X383646Y295506D01*
X383573Y295444D01*
X383503Y295378D01*
X383435Y295310D01*
X383370Y295239D01*
X383309Y295166D01*
X383250Y295090D01*
X383194Y295011D01*
X383142Y294931D01*
X383093Y294848D01*
X383047Y294764D01*
X383005Y294678D01*
X382967Y294590D01*
X382932Y294501D01*
X382900Y294410D01*
X386378Y292774D02*
X386438Y292833D01*
X386495Y292895D01*
X386550Y292959D01*
X386601Y293026D01*
X386650Y293095D01*
X386696Y293165D01*
X386739Y293238D01*
X386779Y293312D01*
X386815Y293388D01*
X386848Y293466D01*
X386878Y293545D01*
X386905Y293625D01*
X386928Y293706D01*
X386947Y293788D01*
X386963Y293870D01*
X386976Y293954D01*
X386985Y294038D01*
X386990Y294122D01*
X386992Y294206D01*
X386378Y292773D02*
X382900Y288681D01*
X386992Y288681D01*
X394308Y294206D02*
X394306Y294291D01*
X394300Y294376D01*
X394290Y294460D01*
X394277Y294544D01*
X394259Y294628D01*
X394238Y294710D01*
X394213Y294791D01*
X394184Y294871D01*
X394151Y294950D01*
X394115Y295027D01*
X394075Y295102D01*
X394032Y295176D01*
X393986Y295247D01*
X393936Y295316D01*
X393883Y295383D01*
X393827Y295447D01*
X393768Y295508D01*
X393707Y295567D01*
X393643Y295623D01*
X393576Y295676D01*
X393507Y295726D01*
X393436Y295772D01*
X393362Y295815D01*
X393287Y295855D01*
X393210Y295891D01*
X393131Y295924D01*
X393051Y295953D01*
X392970Y295978D01*
X392888Y295999D01*
X392804Y296017D01*
X392720Y296030D01*
X392636Y296040D01*
X392551Y296046D01*
X392466Y296048D01*
X392466Y296047D02*
X392370Y296045D01*
X392274Y296039D01*
X392179Y296029D01*
X392084Y296016D01*
X391989Y295998D01*
X391896Y295977D01*
X391803Y295952D01*
X391712Y295923D01*
X391621Y295891D01*
X391532Y295855D01*
X391445Y295815D01*
X391359Y295772D01*
X391275Y295726D01*
X391193Y295676D01*
X391113Y295622D01*
X391036Y295566D01*
X390961Y295506D01*
X390888Y295444D01*
X390818Y295378D01*
X390750Y295310D01*
X390685Y295239D01*
X390624Y295166D01*
X390565Y295090D01*
X390509Y295011D01*
X390457Y294931D01*
X390408Y294848D01*
X390362Y294764D01*
X390320Y294678D01*
X390282Y294590D01*
X390247Y294501D01*
X390215Y294410D01*
X393694Y292774D02*
X393754Y292833D01*
X393811Y292895D01*
X393866Y292959D01*
X393917Y293026D01*
X393966Y293095D01*
X394012Y293165D01*
X394055Y293238D01*
X394095Y293312D01*
X394131Y293388D01*
X394164Y293466D01*
X394194Y293545D01*
X394221Y293625D01*
X394244Y293706D01*
X394263Y293788D01*
X394279Y293870D01*
X394292Y293954D01*
X394301Y294038D01*
X394306Y294122D01*
X394308Y294206D01*
X393694Y292773D02*
X390215Y288681D01*
X394308Y288681D01*
X349655Y288481D02*
X348018Y288481D01*
X347940Y288483D01*
X347862Y288488D01*
X347785Y288498D01*
X347708Y288511D01*
X347632Y288527D01*
X347557Y288547D01*
X347483Y288571D01*
X347410Y288598D01*
X347338Y288629D01*
X347268Y288663D01*
X347200Y288700D01*
X347133Y288741D01*
X347068Y288785D01*
X347006Y288831D01*
X346946Y288881D01*
X346888Y288933D01*
X346833Y288988D01*
X346781Y289046D01*
X346731Y289106D01*
X346685Y289168D01*
X346641Y289233D01*
X346600Y289300D01*
X346563Y289368D01*
X346529Y289438D01*
X346498Y289510D01*
X346471Y289583D01*
X346447Y289657D01*
X346427Y289732D01*
X346411Y289808D01*
X346398Y289885D01*
X346388Y289962D01*
X346383Y290040D01*
X346381Y290118D01*
X346381Y294210D01*
X346383Y294290D01*
X346389Y294370D01*
X346399Y294450D01*
X346412Y294529D01*
X346430Y294608D01*
X346451Y294685D01*
X346477Y294761D01*
X346506Y294836D01*
X346538Y294910D01*
X346574Y294982D01*
X346614Y295052D01*
X346657Y295119D01*
X346703Y295185D01*
X346753Y295248D01*
X346805Y295309D01*
X346860Y295368D01*
X346919Y295423D01*
X346979Y295475D01*
X347043Y295525D01*
X347109Y295571D01*
X347176Y295614D01*
X347246Y295654D01*
X347318Y295690D01*
X347392Y295722D01*
X347466Y295751D01*
X347543Y295777D01*
X347620Y295798D01*
X347699Y295816D01*
X347778Y295829D01*
X347858Y295839D01*
X347938Y295845D01*
X348018Y295847D01*
X349655Y295847D01*
X354751Y295848D02*
X354836Y295846D01*
X354921Y295840D01*
X355005Y295830D01*
X355089Y295817D01*
X355173Y295799D01*
X355255Y295778D01*
X355336Y295753D01*
X355416Y295724D01*
X355495Y295691D01*
X355572Y295655D01*
X355647Y295615D01*
X355721Y295572D01*
X355792Y295526D01*
X355861Y295476D01*
X355928Y295423D01*
X355992Y295367D01*
X356053Y295308D01*
X356112Y295247D01*
X356168Y295183D01*
X356221Y295116D01*
X356271Y295047D01*
X356317Y294976D01*
X356360Y294902D01*
X356400Y294827D01*
X356436Y294750D01*
X356469Y294671D01*
X356498Y294591D01*
X356523Y294510D01*
X356544Y294428D01*
X356562Y294344D01*
X356575Y294260D01*
X356585Y294176D01*
X356591Y294091D01*
X356593Y294006D01*
X354751Y295847D02*
X354655Y295845D01*
X354559Y295839D01*
X354464Y295829D01*
X354369Y295816D01*
X354274Y295798D01*
X354181Y295777D01*
X354088Y295752D01*
X353997Y295723D01*
X353906Y295691D01*
X353817Y295655D01*
X353730Y295615D01*
X353644Y295572D01*
X353560Y295526D01*
X353478Y295476D01*
X353398Y295422D01*
X353321Y295366D01*
X353246Y295306D01*
X353173Y295244D01*
X353103Y295178D01*
X353035Y295110D01*
X352970Y295039D01*
X352909Y294966D01*
X352850Y294890D01*
X352794Y294811D01*
X352742Y294731D01*
X352693Y294648D01*
X352647Y294564D01*
X352605Y294478D01*
X352567Y294390D01*
X352532Y294301D01*
X352500Y294210D01*
X355978Y292574D02*
X356038Y292633D01*
X356095Y292695D01*
X356150Y292759D01*
X356201Y292826D01*
X356250Y292895D01*
X356296Y292965D01*
X356339Y293038D01*
X356379Y293112D01*
X356415Y293188D01*
X356448Y293266D01*
X356478Y293345D01*
X356505Y293425D01*
X356528Y293506D01*
X356547Y293588D01*
X356563Y293670D01*
X356576Y293754D01*
X356585Y293838D01*
X356590Y293922D01*
X356592Y294006D01*
X355978Y292573D02*
X352500Y288481D01*
X356592Y288481D01*
X359815Y288481D02*
X361861Y288481D01*
X361950Y288483D01*
X362039Y288489D01*
X362128Y288499D01*
X362216Y288512D01*
X362304Y288529D01*
X362391Y288551D01*
X362476Y288576D01*
X362561Y288604D01*
X362644Y288637D01*
X362726Y288673D01*
X362806Y288712D01*
X362884Y288755D01*
X362960Y288801D01*
X363035Y288851D01*
X363107Y288904D01*
X363176Y288960D01*
X363243Y289019D01*
X363308Y289080D01*
X363369Y289145D01*
X363428Y289212D01*
X363484Y289281D01*
X363537Y289353D01*
X363587Y289428D01*
X363633Y289504D01*
X363676Y289582D01*
X363715Y289662D01*
X363751Y289744D01*
X363784Y289827D01*
X363812Y289912D01*
X363837Y289997D01*
X363859Y290084D01*
X363876Y290172D01*
X363889Y290260D01*
X363899Y290349D01*
X363905Y290438D01*
X363907Y290527D01*
X363905Y290616D01*
X363899Y290705D01*
X363889Y290794D01*
X363876Y290882D01*
X363859Y290970D01*
X363837Y291057D01*
X363812Y291142D01*
X363784Y291227D01*
X363751Y291310D01*
X363715Y291392D01*
X363676Y291472D01*
X363633Y291550D01*
X363587Y291626D01*
X363537Y291701D01*
X363484Y291773D01*
X363428Y291842D01*
X363369Y291909D01*
X363308Y291974D01*
X363243Y292035D01*
X363176Y292094D01*
X363107Y292150D01*
X363035Y292203D01*
X362960Y292253D01*
X362884Y292299D01*
X362806Y292342D01*
X362726Y292381D01*
X362644Y292417D01*
X362561Y292450D01*
X362476Y292478D01*
X362391Y292503D01*
X362304Y292525D01*
X362216Y292542D01*
X362128Y292555D01*
X362039Y292565D01*
X361950Y292571D01*
X361861Y292573D01*
X362271Y295847D02*
X359815Y295847D01*
X362271Y295847D02*
X362350Y295845D01*
X362429Y295839D01*
X362508Y295830D01*
X362586Y295817D01*
X362663Y295799D01*
X362739Y295779D01*
X362814Y295754D01*
X362888Y295726D01*
X362961Y295695D01*
X363032Y295659D01*
X363101Y295621D01*
X363168Y295579D01*
X363233Y295534D01*
X363296Y295486D01*
X363357Y295435D01*
X363414Y295381D01*
X363470Y295325D01*
X363522Y295266D01*
X363572Y295204D01*
X363618Y295140D01*
X363662Y295074D01*
X363702Y295006D01*
X363738Y294936D01*
X363772Y294864D01*
X363802Y294790D01*
X363828Y294716D01*
X363851Y294640D01*
X363869Y294563D01*
X363885Y294486D01*
X363896Y294407D01*
X363904Y294329D01*
X363908Y294250D01*
X363908Y294170D01*
X363904Y294091D01*
X363896Y294013D01*
X363885Y293934D01*
X363869Y293857D01*
X363851Y293780D01*
X363828Y293704D01*
X363802Y293630D01*
X363772Y293556D01*
X363738Y293484D01*
X363702Y293414D01*
X363662Y293346D01*
X363618Y293280D01*
X363572Y293216D01*
X363522Y293154D01*
X363470Y293095D01*
X363414Y293039D01*
X363357Y292985D01*
X363296Y292934D01*
X363233Y292886D01*
X363168Y292841D01*
X363101Y292799D01*
X363032Y292761D01*
X362961Y292725D01*
X362888Y292694D01*
X362814Y292666D01*
X362739Y292641D01*
X362663Y292621D01*
X362586Y292603D01*
X362508Y292590D01*
X362429Y292581D01*
X362350Y292575D01*
X362271Y292573D01*
X360634Y292573D01*
X111269Y256531D02*
X103903Y256531D01*
X103903Y258577D01*
X103905Y258666D01*
X103911Y258755D01*
X103921Y258844D01*
X103934Y258932D01*
X103951Y259020D01*
X103973Y259107D01*
X103998Y259192D01*
X104026Y259277D01*
X104059Y259360D01*
X104095Y259442D01*
X104134Y259522D01*
X104177Y259600D01*
X104223Y259676D01*
X104273Y259751D01*
X104326Y259823D01*
X104382Y259892D01*
X104441Y259959D01*
X104502Y260024D01*
X104567Y260085D01*
X104634Y260144D01*
X104703Y260200D01*
X104775Y260253D01*
X104850Y260303D01*
X104926Y260349D01*
X105004Y260392D01*
X105084Y260431D01*
X105166Y260467D01*
X105249Y260500D01*
X105334Y260528D01*
X105419Y260553D01*
X105506Y260575D01*
X105594Y260592D01*
X105682Y260605D01*
X105771Y260615D01*
X105860Y260621D01*
X105949Y260623D01*
X106038Y260621D01*
X106127Y260615D01*
X106216Y260605D01*
X106304Y260592D01*
X106392Y260575D01*
X106479Y260553D01*
X106564Y260528D01*
X106649Y260500D01*
X106732Y260467D01*
X106814Y260431D01*
X106894Y260392D01*
X106972Y260349D01*
X107048Y260303D01*
X107123Y260253D01*
X107195Y260200D01*
X107264Y260144D01*
X107331Y260085D01*
X107396Y260024D01*
X107457Y259959D01*
X107516Y259892D01*
X107572Y259823D01*
X107625Y259751D01*
X107675Y259676D01*
X107721Y259600D01*
X107764Y259522D01*
X107803Y259442D01*
X107839Y259360D01*
X107872Y259277D01*
X107900Y259192D01*
X107925Y259107D01*
X107947Y259020D01*
X107964Y258932D01*
X107977Y258844D01*
X107987Y258755D01*
X107993Y258666D01*
X107995Y258577D01*
X107995Y256531D01*
X107995Y258986D02*
X111269Y260623D01*
X105540Y263795D02*
X103903Y265841D01*
X111269Y265841D01*
X111269Y263795D02*
X111269Y267887D01*
X107177Y271110D02*
X107177Y273566D01*
X107179Y273644D01*
X107184Y273722D01*
X107194Y273799D01*
X107207Y273876D01*
X107223Y273952D01*
X107243Y274027D01*
X107267Y274101D01*
X107294Y274174D01*
X107325Y274246D01*
X107359Y274316D01*
X107396Y274385D01*
X107437Y274451D01*
X107481Y274516D01*
X107527Y274578D01*
X107577Y274638D01*
X107629Y274696D01*
X107684Y274751D01*
X107742Y274803D01*
X107802Y274853D01*
X107864Y274899D01*
X107929Y274943D01*
X107996Y274984D01*
X108064Y275021D01*
X108134Y275055D01*
X108206Y275086D01*
X108279Y275113D01*
X108353Y275137D01*
X108428Y275157D01*
X108504Y275173D01*
X108581Y275186D01*
X108658Y275196D01*
X108736Y275201D01*
X108814Y275203D01*
X108814Y275202D02*
X109223Y275202D01*
X109312Y275200D01*
X109401Y275194D01*
X109490Y275184D01*
X109578Y275171D01*
X109666Y275154D01*
X109753Y275132D01*
X109838Y275107D01*
X109923Y275079D01*
X110006Y275046D01*
X110088Y275010D01*
X110168Y274971D01*
X110246Y274928D01*
X110322Y274882D01*
X110397Y274832D01*
X110469Y274779D01*
X110538Y274723D01*
X110605Y274664D01*
X110670Y274603D01*
X110731Y274538D01*
X110790Y274471D01*
X110846Y274402D01*
X110899Y274330D01*
X110949Y274255D01*
X110995Y274179D01*
X111038Y274101D01*
X111077Y274021D01*
X111113Y273939D01*
X111146Y273856D01*
X111174Y273771D01*
X111199Y273686D01*
X111221Y273599D01*
X111238Y273511D01*
X111251Y273423D01*
X111261Y273334D01*
X111267Y273245D01*
X111269Y273156D01*
X111267Y273067D01*
X111261Y272978D01*
X111251Y272889D01*
X111238Y272801D01*
X111221Y272713D01*
X111199Y272626D01*
X111174Y272541D01*
X111146Y272456D01*
X111113Y272373D01*
X111077Y272291D01*
X111038Y272211D01*
X110995Y272133D01*
X110949Y272057D01*
X110899Y271982D01*
X110846Y271910D01*
X110790Y271841D01*
X110731Y271774D01*
X110670Y271709D01*
X110605Y271648D01*
X110538Y271589D01*
X110469Y271533D01*
X110397Y271480D01*
X110322Y271430D01*
X110246Y271384D01*
X110168Y271341D01*
X110088Y271302D01*
X110006Y271266D01*
X109923Y271233D01*
X109838Y271205D01*
X109753Y271180D01*
X109666Y271158D01*
X109578Y271141D01*
X109490Y271128D01*
X109401Y271118D01*
X109312Y271112D01*
X109223Y271110D01*
X107177Y271110D01*
X107063Y271112D01*
X106949Y271118D01*
X106835Y271128D01*
X106721Y271142D01*
X106608Y271160D01*
X106496Y271182D01*
X106385Y271207D01*
X106275Y271237D01*
X106165Y271270D01*
X106057Y271307D01*
X105951Y271348D01*
X105845Y271393D01*
X105742Y271441D01*
X105640Y271493D01*
X105540Y271549D01*
X105442Y271607D01*
X105346Y271670D01*
X105253Y271735D01*
X105161Y271804D01*
X105073Y271876D01*
X104986Y271951D01*
X104903Y272029D01*
X104822Y272110D01*
X104744Y272193D01*
X104669Y272279D01*
X104597Y272368D01*
X104528Y272460D01*
X104463Y272553D01*
X104401Y272649D01*
X104342Y272747D01*
X104286Y272847D01*
X104234Y272949D01*
X104186Y273052D01*
X104141Y273157D01*
X104100Y273264D01*
X104063Y273372D01*
X104030Y273482D01*
X104000Y273592D01*
X103975Y273703D01*
X103953Y273815D01*
X103935Y273928D01*
X103921Y274042D01*
X103911Y274156D01*
X103905Y274270D01*
X103903Y274384D01*
M02*
