G04 EAGLE Gerber RS-274X export*
G75*
%MOMM*%
%FSLAX34Y34*%
%LPD*%
%INSoldermask Top*%
%IPPOS*%
%AMOC8*
5,1,8,0,0,1.08239X$1,22.5*%
G01*
%ADD10C,3.303200*%
%ADD11R,1.103200X0.503200*%
%ADD12R,0.503200X1.103200*%
%ADD13R,2.653200X2.753200*%
%ADD14R,1.678200X0.653200*%
%ADD15R,2.603200X3.603200*%
%ADD16R,0.383200X0.670200*%
%ADD17R,0.503200X1.203200*%
%ADD18R,1.003200X0.553200*%
%ADD19R,1.853200X1.503200*%
%ADD20R,0.903200X0.503200*%
%ADD21R,1.203200X1.903200*%
%ADD22R,1.203200X1.303200*%
%ADD23R,1.303200X1.203200*%
%ADD24R,0.903200X1.703200*%
%ADD25R,1.003200X2.203200*%
%ADD26R,2.203200X1.003200*%
%ADD27R,1.183200X3.903200*%
%ADD28R,1.003200X1.103200*%
%ADD29R,1.103200X1.003200*%
%ADD30C,1.727200*%
%ADD31P,2.034460X8X22.500000*%
%ADD32R,2.003200X1.803200*%
%ADD33C,0.809600*%
%ADD34C,0.959600*%


D10*
X30000Y270000D03*
X510000Y30000D03*
X30000Y30000D03*
D11*
X63300Y182000D03*
X63300Y177000D03*
X63300Y172000D03*
X63300Y167000D03*
X63300Y162000D03*
X63300Y157000D03*
D12*
X70300Y150000D03*
X75300Y150000D03*
X80300Y150000D03*
X85300Y150000D03*
X90300Y150000D03*
X95300Y150000D03*
D11*
X102300Y157000D03*
X102300Y162000D03*
X102300Y167000D03*
X102300Y172000D03*
X102300Y177000D03*
X102300Y182000D03*
D12*
X95300Y189000D03*
X90300Y189000D03*
X85300Y189000D03*
X80300Y189000D03*
X75300Y189000D03*
X70300Y189000D03*
D13*
X82800Y169500D03*
D14*
X397720Y193250D03*
X397720Y186750D03*
X397720Y180250D03*
X397720Y173750D03*
X397720Y167250D03*
X397720Y160750D03*
X397720Y154250D03*
X397720Y147750D03*
X397720Y141250D03*
X397720Y134750D03*
X456480Y134750D03*
X456480Y141250D03*
X456480Y147750D03*
X456480Y154250D03*
X456480Y160750D03*
X456480Y167250D03*
X456480Y173750D03*
X456480Y180250D03*
X456480Y186750D03*
X456480Y193250D03*
D15*
X427100Y164000D03*
D16*
X231100Y253260D03*
X231100Y273340D03*
X234600Y253260D03*
X234600Y273340D03*
X238100Y253260D03*
X238100Y273340D03*
X241600Y253260D03*
X241600Y273340D03*
X245100Y253260D03*
X245100Y273340D03*
X248600Y253260D03*
X248600Y273340D03*
X252100Y253260D03*
X252100Y273340D03*
X255600Y253260D03*
X255600Y273340D03*
X259100Y253260D03*
X259100Y273340D03*
X262600Y253260D03*
X262600Y273340D03*
X266100Y253260D03*
X266100Y273340D03*
X269600Y253260D03*
X269600Y273340D03*
X273100Y253260D03*
X273100Y273340D03*
X276600Y253260D03*
X276600Y273340D03*
X280100Y253260D03*
X280100Y273340D03*
X283600Y253260D03*
X283600Y273340D03*
X287100Y253260D03*
X287100Y273340D03*
X290600Y253260D03*
X290600Y273340D03*
X294100Y253260D03*
X294100Y273340D03*
X297600Y253260D03*
X297600Y273340D03*
X301100Y253260D03*
X301100Y273340D03*
X304600Y253260D03*
X304600Y273340D03*
X308100Y253260D03*
X308100Y273340D03*
X311600Y253260D03*
X311600Y273340D03*
X315100Y253260D03*
X315100Y273340D03*
D17*
X218000Y263300D03*
X328200Y263300D03*
D18*
X224100Y272650D03*
X322100Y272650D03*
X322100Y253950D03*
X224100Y253950D03*
D17*
X193900Y63300D03*
X198900Y63300D03*
X203900Y63300D03*
X208900Y63300D03*
X213900Y63300D03*
X218900Y63300D03*
X223900Y63300D03*
X228900Y63300D03*
X233900Y63300D03*
X238900Y63300D03*
X243900Y63300D03*
X248900Y63300D03*
X253900Y63300D03*
X258900Y63300D03*
X263900Y63300D03*
X268900Y63300D03*
X273900Y63300D03*
X278900Y63300D03*
X283900Y63300D03*
X288900Y63300D03*
X293900Y63300D03*
X298900Y63300D03*
D19*
X171150Y44300D03*
X321650Y44300D03*
D20*
X76300Y56900D03*
X76300Y51900D03*
X76300Y46900D03*
X76300Y41900D03*
X97300Y41900D03*
X97300Y46900D03*
X97300Y51900D03*
X97300Y56900D03*
D21*
X86800Y49400D03*
D22*
X86000Y68500D03*
X86000Y85500D03*
X77500Y25000D03*
X94500Y25000D03*
D23*
X58000Y67500D03*
X58000Y50500D03*
D22*
X151900Y257700D03*
X151900Y274700D03*
X172600Y257800D03*
X172600Y274800D03*
D23*
X193500Y258000D03*
X193500Y275000D03*
D24*
X112100Y59600D03*
X135100Y59600D03*
D25*
X24000Y188000D03*
X44000Y188000D03*
D23*
X44000Y168500D03*
X44000Y151500D03*
D22*
X23000Y168500D03*
X23000Y151500D03*
D23*
X44500Y134000D03*
X27500Y134000D03*
D22*
X204800Y222900D03*
X221800Y222900D03*
X165700Y221100D03*
X165700Y238100D03*
X187400Y221300D03*
X187400Y238300D03*
X58000Y220500D03*
X58000Y203500D03*
X98600Y204500D03*
X98600Y221500D03*
D23*
X78200Y224600D03*
X78200Y207600D03*
X120000Y216500D03*
X120000Y233500D03*
X132500Y199000D03*
X115500Y199000D03*
D22*
X141000Y181500D03*
X141000Y164500D03*
D26*
X66300Y131400D03*
X66300Y111400D03*
D22*
X219200Y201600D03*
X236200Y201600D03*
D23*
X120000Y181500D03*
X120000Y164500D03*
D22*
X120300Y150400D03*
X120300Y133400D03*
D23*
X141200Y150600D03*
X141200Y133600D03*
D22*
X201300Y204600D03*
X201300Y187600D03*
X179700Y205000D03*
X179700Y188000D03*
D27*
X447650Y223500D03*
X423950Y223500D03*
D28*
X14500Y212000D03*
X37500Y212000D03*
D29*
X90500Y105800D03*
X90500Y128800D03*
D28*
X424800Y264800D03*
X447800Y264800D03*
D22*
X474500Y133000D03*
X491500Y133000D03*
X491000Y151500D03*
X491000Y168500D03*
D23*
X512000Y168500D03*
X512000Y151500D03*
X379500Y190000D03*
X362500Y190000D03*
X398000Y122500D03*
X398000Y105500D03*
D22*
X368400Y168300D03*
X351400Y168300D03*
X353000Y207500D03*
X353000Y224500D03*
X374000Y207500D03*
X374000Y224500D03*
X395000Y207500D03*
X395000Y224500D03*
X319200Y222800D03*
X302200Y222800D03*
D30*
X507480Y194100D02*
X522720Y194100D01*
X522720Y219500D02*
X507480Y219500D01*
X507480Y244900D02*
X522720Y244900D01*
X522720Y270300D02*
X507480Y270300D01*
D31*
X373800Y30400D03*
X373800Y55800D03*
X399200Y30400D03*
X399200Y55800D03*
X424600Y30400D03*
X424600Y55800D03*
X450000Y30400D03*
X450000Y55800D03*
D32*
X386800Y246800D03*
X386800Y274800D03*
X357100Y246900D03*
X357100Y274900D03*
D33*
X255400Y104300D03*
X254200Y130600D03*
X265600Y88100D03*
X246500Y49300D03*
X269400Y239600D03*
X289400Y233700D03*
X171200Y44300D03*
X321600Y44300D03*
X276500Y49200D03*
X216500Y49100D03*
D34*
X427100Y173900D03*
X427100Y153900D03*
X350000Y190000D03*
X373900Y224500D03*
X352900Y224400D03*
X395000Y224700D03*
X338200Y168800D03*
X398000Y91200D03*
X101800Y86800D03*
X13300Y134000D03*
X7200Y151700D03*
X179600Y174300D03*
X201300Y173000D03*
X155400Y181500D03*
X145200Y199000D03*
X150200Y238100D03*
X151900Y286800D03*
X86700Y49400D03*
X58400Y79400D03*
X172600Y287000D03*
X202300Y237300D03*
X98600Y233900D03*
X76000Y177000D03*
X90000Y177000D03*
X76000Y162000D03*
X90000Y162000D03*
X119500Y245300D03*
X46200Y111200D03*
X461500Y122700D03*
X383300Y136200D03*
X357000Y275000D03*
X387000Y275000D03*
D33*
X293000Y283500D03*
D34*
X44500Y134000D03*
X24000Y188000D03*
X120000Y20000D03*
X86000Y68500D03*
X150600Y110600D03*
X151900Y257700D03*
X90000Y140000D03*
X78200Y224600D03*
X165700Y221100D03*
X58000Y203500D03*
X78200Y207600D03*
X120000Y216500D03*
X179700Y205000D03*
X120300Y133400D03*
X473000Y153000D03*
D33*
X310100Y237900D03*
X443800Y167178D03*
X319900Y242000D03*
X443656Y150300D03*
X257508Y281700D03*
X254500Y121500D03*
X254735Y112896D03*
X265307Y287000D03*
X276796Y232700D03*
X273911Y285000D03*
X283100Y239600D03*
X283100Y283800D03*
X257600Y73300D03*
X239996Y287974D03*
X259795Y81695D03*
X250600Y287300D03*
D34*
X475600Y188400D03*
X423950Y223500D03*
D33*
X71500Y64500D03*
M02*
