M48
;GenerationSoftware,Autodesk,EAGLE,9.6.2*%
;CreationDate,2021-07-04T19:52:08Z*%
FMAT,2
ICI,OFF
METRIC,TZ,000.000
T4C0.200
T3C0.350
T2C1.016
T1C3.100
%
G90
M71
T1
X3000Y27000
X3000Y3000
X51000Y3000
T2
X39920Y5580
X39920Y3040
X37380Y5580
X37380Y3040
X51510Y27030
X51510Y24490
X51510Y21950
X51510Y19410
X45000Y5580
X42460Y3040
X42460Y5580
X45000Y3040
T3
X37390Y22450
X35290Y22440
X39500Y22470
X33820Y16880
X39800Y9120
X10180Y8680
X1330Y13400
X720Y15170
X17960Y17430
X15540Y18150
X14520Y19900
X15020Y23810
X15190Y28680
X8670Y4940
X5840Y7940
X17260Y28700
X20230Y23730
X9860Y23390
X7600Y17700
X9000Y17700
X7600Y16200
X9000Y16200
X11950Y24530
X4620Y11120
X46150Y12270
X38330Y13620
X35700Y27500
X38700Y27500
X4450Y13400
X2400Y18800
X12000Y2000
X20130Y17300
X15060Y11060
X15190Y25770
X9000Y14000
X7820Y22460
X16570Y22110
X5800Y20350
X7820Y20760
X12000Y21650
X17970Y20500
X12030Y13340
X47300Y15300
X47560Y18840
X42395Y22350
X8600Y6850
X42710Y15390
X42710Y17390
X35000Y19000
T4
X25473Y11290
X26531Y28700
X27680Y23270
X27391Y28500
X28310Y23960
X29300Y28350
X25760Y7330
X24000Y28797
X25979Y8169
X25060Y28730
X31010Y23790
X44380Y16718
X7150Y6450
X25540Y10430
X21650Y4910
X27650Y4920
X31990Y24200
X32160Y4430
X17120Y4430
X28940Y23370
X26940Y23960
X24650Y4930
X26560Y8810
X25420Y13060
X44366Y15030
X25751Y28170
X25450Y12150
X28310Y28380
M30